<svg xmlns="http://www.w3.org/2000/svg" viewBox="0 0 2455.43 969.37"><defs><style>.cls-1{fill:#5e5e5e;}</style></defs><title>logo-wdma</title><g id="Layer_2" data-name="Layer 2"><g id="Layer_1-2" data-name="Layer 1"><path class="cls-1" d="M557.47,254.36V663.45H237V254.36Z"/><path class="cls-1" d="M0,252.78H26.47c53.77,0,107.56.34,161.32-.28,13.42-.15,18.12,3.72,18.07,17.63-.45,126.21-.28,252.42-.24,378.63,0,8.41,1.25,16.33-11.86,16.23-62.55-.47-125.11-.27-187.67-.38-1.58,0-3.16-.68-6.09-1.36Z"/><path class="cls-1" d="M237.19,12.7H557V211.61H237.19Z"/><path class="cls-1" d="M2025.06,663.62h-37.74V321.83l-4.34-1.35c-1.72,3.82-3.6,7.57-5.14,11.46q-62.33,157.44-124.41,315c-4.32,11-8,18.72-22.58,17.56-13-1-22.19-.71-28.33-16.6C1760.88,540,1717.72,432.75,1675,325.29a13.75,13.75,0,0,0-6.37-7.61V663h-38.81V255.47c17.16,0,34.5-.75,51.68.58,3.78.29,8.34,7.41,10.29,12.29q47.49,119.12,94.35,238.49c13.44,34.05,26.91,68.08,41.77,105.68,12.52-31.72,23.71-60,34.85-88.32,33.71-85.67,67.58-171.28,100.83-257.13,3.64-9.42,8.31-12.33,17.85-11.83,14.19.75,28.44.2,43.59.2Z"/><path class="cls-1" d="M885.19,257.6c2.07-1.19,2.53-1.66,3-1.7,45.73-3.67,45.6-3.63,57.82,40.11,29.05,104,58.22,207.94,90.51,312.45q22.85-87.59,45.7-175.16c15.38-58.86,30.79-117.72,46.34-177.17h39.26c-37.61,136.29-75,271.78-112.43,407.36h-41.73c-34.21-120.56-68.37-241-103.79-365.83C884.14,389,859.75,475.48,835.37,562c-8.33,29.55-17.17,59-24.76,88.7C808,661,803.76,665.4,792.82,664.22c-9.16-1-18.51-.2-28.83-.2C726.3,528.15,688.82,393.07,651,256.63H693.1q45.48,175.15,91.28,351.59l3.14-.1Q836.36,432.86,885.19,257.6Z"/><path class="cls-1" d="M1223.64,664V257.55c56.66,0,112.95-4.22,168.36.95,93.8,8.73,144.71,59.53,156,153.27a407.1,407.1,0,0,1-2.76,112.78c-12.73,77.94-63.26,124-142.21,136.23a258.8,258.8,0,0,1-37.7,3.08C1318.26,664.22,1271.19,664,1223.64,664Zm39.14-36.22c43.45,0,85.28,2.85,126.57-.65,67-5.66,106.46-43.95,118.6-110a312.87,312.87,0,0,0-1-119.28c-11.38-56.3-44-94-101.37-102.22-46.76-6.71-94.54-6.33-142.84-9.15Z"/><path class="cls-1" d="M0,12.11H204.22V212.26H0Z"/><path class="cls-1" d="M2251.41,256.81A17.69,17.69,0,0,1,2254,256c40.87-3,40.86-3,55.74,35q70.43,179.79,140.85,359.57c1.55,4,2.77,8.08,4.61,13.48-11,0-20.85-.61-30.55.18-8.73.72-12.44-3-15.37-10.76-13.19-34.83-27.31-69.32-40.28-104.23-3.44-9.28-8-12.34-17.85-12.25q-79.82.74-159.63,0c-10-.1-14.56,3.22-17.93,12.34-12,32.37-25.65,64.14-36.75,96.79-5,14.59-12,20.48-27,18.11-6.39-1-13.08-.17-22.61-.17Zm20.72,38.44c-27.88,71.4-54.26,138.94-81,207.46h159.18Z"/><path class="cls-1" d="M1458.69,969.29c-2.16-4.18-6.12-8.33-6.19-12.54-.53-31.24-.29-62.49-3.09-94.66-3.24,7.56-6.63,15-9.69,22.68-10,24.93-19.71,50-30,74.77-1.38,3.35-5.92,8.11-8.25,7.73-3.72-.62-8.45-4.33-9.94-7.9-13.4-32.2-26.18-64.65-42.76-96.57,0,31.26-.21,62.53.13,93.79.09,9-1.42,14.16-11.91,9.69V837.1c13.52-4.78,19,.81,23.45,12.76,12.13,32.88,25.69,65.24,40.25,101.73,7.89-20.13,14.51-37.14,21.21-54.12,6.44-16.32,13.73-32.35,19.18-49,3.94-12,10.56-15.43,22.81-11.43V966.1Z"/><path class="cls-1" d="M654.47,966.87V837.21c13-4.63,18.93,0,23.42,12.28,12.21,33.26,25.94,66,40.3,102,14.36-36.11,27.51-69.09,40.6-102.1,5.4-13.63,5.33-13.65,22.46-13.13V966.76c-10.39,3.65-11.69-1.93-11.61-10.54.28-31.14.11-62.28-2.86-94.36-5,12.24-10,24.46-14.9,36.72-8.17,20.32-16.09,40.75-24.64,60.91-1.42,3.35-6,8.17-8.2,7.74a15.46,15.46,0,0,1-9.89-8c-13.4-32.14-26.19-64.54-42.69-96.42,0,31.22-.25,62.45.15,93.67C666.73,965.56,664.38,969.6,654.47,966.87Z"/><path class="cls-1" d="M646.31,747.41H2453.06v2.1H646.42C646.38,748.81,646.35,748.11,646.31,747.41Z"/><path class="cls-1" d="M2353.59,835.74c21.27,0,41-.41,60.72.11,20.3.52,33.51,9.16,37.76,23.43,5,16.93-.6,31-18.49,44.51,25.84,14.34,13.09,41.64,21.85,61.93-1.2,1.22-2.41,2.43-3.62,3.65-3.69-3.63-9.3-6.63-10.75-11-4.83-14.66-3.65-37.13-13.17-43-13.55-8.37-34.54-4.74-52.35-6.11-2.66-.2-5.36.27-8.37.45-1.64,19.51-3.22,38.62-5.19,57.69,0,.28-5,0-8.39,0Zm12.51,62.49c17.59,0,34.48.86,51.24-.26,14.41-1,23.18-10.13,23.72-24.69.5-13.5-6-24.53-20.08-25.77-18.15-1.6-36.54-.39-54.88-.39Z"/><path class="cls-1" d="M1701.58,836c21.33,0,41-.62,60.68.2,14.65.62,29.06,4.32,34.48,20.35,5.59,16.55.11,30.13-15.68,40.51,2.93,2.1,5.2,3.93,7.66,5.45,12.89,7.93,16.44,20,14.59,34-2,15.28-11,26.33-25.92,28.06-24.81,2.88-49.91,3.14-75.81,4.56Zm12.12,120.41c19.24,0,37.34,1.21,55.19-.39,14.11-1.26,22.58-10.74,22.45-25.77-.13-15.3-9.41-23.67-23.43-24.72-17.79-1.34-35.76-.33-54.21-.33Zm.12-63.1c17.61,0,34.55,1,51.29-.34,12.54-1,21.47-8.41,21.43-22.56,0-13.79-8.13-22.13-20.91-23.18-17.13-1.4-34.46-.35-51.81-.35Z"/><path class="cls-1" d="M1018.29,967.85V837.44c40-6.17,87.15-2.37,89.66,8.35h-77.4v48.65c16.79,0,33.06-.5,49.27.22,7.86.36,15.62,3,23.43,4.65-8,1.88-16,5-24.15,5.4-15.73.87-31.54.26-48.25.26V957.3c21.78,0,44-.29,66.14.26,4.18.11,8.28,3.59,12.42,5.51-4,1.59-7.87,4.5-11.83,4.57C1071.41,968.05,1045.23,967.85,1018.29,967.85Z"/><path class="cls-1" d="M2033.56,967.86c0-41,0-80.28,0-119.58,0-3.68.39-7.37.59-10.83,40.5-6,85.66-2.68,90.34,8.17h-77.77v48c24.36,2.72,49.26-1.38,73.07,2.31l-.9,8.75h-72.2v52.68c22,0,44.28-.31,66.55.27,4.12.11,8.16,3.76,12.23,5.77-4,1.5-8.07,4.24-12.14,4.3C2087.24,968.05,2061.11,967.86,2033.56,967.86Z"/><path class="cls-1" d="M697.77,185.35c10.5-23.81,19.79-45.25,29.67-66.41.57-1.21,6-.15,9-.15,5.64,26.33,3,74.85-6.78,83.08V147.34l-5.16-1.14c-5.77,14.17-11.32,28.43-17.46,42.43-1.82,4.13-5.34,7.52-8.08,11.25-3.23-3.77-7.59-7-9.51-11.38-6.75-15.35-12.67-31.07-23-46.31v57.73l-7.12-.09c-3.19-26.57-.36-53.44-1.55-80.11l4.6-3.25c4.17,3.89,10.05,7,12.2,11.81C682.68,146.18,689.5,164.63,697.77,185.35Z"/><path class="cls-1" d="M646.69,3.8c12,18.91,11.14,43,21.59,66.51,5.77-20.55,10.36-38,15.76-55.21,1.24-3.94,5.31-7,8.08-10.44C694.9,8,699,11,700.21,14.89c5.27,16.4,9.69,33.08,15.51,53.5,12-22.49,10.53-46.29,21.89-64.58L743.8,6c-7,25.54-13.92,51.11-21.23,76.57-.55,1.91-5.1,4.69-5.75,4.22-2.74-2-5.8-4.67-6.78-7.73-4.5-14.07-8.31-28.37-12.43-42.57-1.34-4.63-2.89-9.21-5.6-17.8-6.49,22.3-11.64,40.85-17.44,59.2-1.1,3.49-4.78,6.16-7.28,9.21-2.41-3.13-6-5.91-7-9.44C653.33,54.15,647,30.46,640.39,6.82Z"/><path class="cls-1" d="M1036.86,3.92c11.6,19,10.79,42.94,21.37,66,5.36-19.15,9.75-36.07,15-52.73,1.42-4.54,5.4-8.27,8.21-12.38,3.31,4.19,8.11,7.89,9.66,12.65,5.36,16.57,9.59,33.5,15.18,53.66,9.36-24,10.63-47.25,20.66-67.14l6.33,2c-3.24,12.7-6.4,25.42-9.75,38.09-2.8,10.58-5.46,21.22-8.93,31.59-1.4,4.2-4.78,7.73-7.26,11.57-2.92-4-7.1-7.6-8.55-12.08-5.47-16.91-10.06-34.12-18.45-51.32-5,17.45-9.69,35-15.14,52.28-1.3,4.11-5,7.45-7.66,11.14-2.7-3.59-6.67-6.8-7.87-10.83-6.8-23-12.94-46.25-19.31-69.4Z"/><path class="cls-1" d="M797.88,26.92V87.48C788.36,82,785.36,37.83,791.69,0c23,20.15,33.36,46.33,54.79,70.41v-66l5.95.32V87.58c-16.07-2.9-18.81-19-27.09-29-8.59-10.34-15.61-22-23.32-33Z"/><path class="cls-1" d="M874.49,87.28V4.76c20.8,1.43,43.84-6.66,58.49,15,10.5,15.55,10.48,34,1.49,50.08C920.89,94.12,896.51,85.68,874.49,87.28Zm9.29-8.06c16.56-.65,35.46,4.2,41.91-13.23,4.58-12.36,4.14-29.84-1.23-41.82-7-15.59-25-11.12-40.68-11.19Z"/><path class="cls-1" d="M838.05,139.6V200c-9.92-4.85-12.63-38.32-7.31-84.27,26.18,15.74,32.82,44.85,55.86,66.21V118l6.12.42v82c-16.29-3-19.35-18.8-27.54-28.88-8.52-10.48-15.61-22.11-23.33-33.24Z"/><path class="cls-1" d="M1593.81,88.22c-2.08-3.93-5.32-7.66-6-11.82-4.34-25-4.14-25.05-29.78-24.92-4.27,0-8.55,0-13.77,0-.58,12.6-1.1,24.1-1.72,37.74-8.75-9.63-10.84-45.41-6.7-84.08,13.84,0,28-1.27,41.91.3,19.28,2.17,26.53,18.89,15.44,35.09-3.71,5.43-2.73,7.75-.68,13.32,3.78,10.21,4.41,21.58,6.35,32.47Zm-49.72-75.11V42.6c10.27,0,20.36,1.72,29.41-.61,5.76-1.49,13.77-8.94,13.82-13.77,0-5-7.56-12.93-13.21-14.45C1565.09,11.32,1554.92,13.11,1544.09,13.11Z"/><path class="cls-1" d="M2365.45,116.32c19.94,17.68,30.12,43.55,51.13,67V115.05c9.62,10.73,11.74,50.29,6.86,87.92-25.19-16.79-33.05-44.94-53.26-65.05-1.84,21.54.86,42.35-1.65,62.43l-7-.63V119.54Z"/><path class="cls-1" d="M1352.46,118.15c15.82,0,29.42-.58,43,.15,18.32,1,29.55,22,13.57,39.53,3.06,14.56,5.75,27.41,8.44,40.25l-3.25,2.59c-2.51-2.12-6.3-3.77-7.29-6.45-3.3-8.89-2.91-22.6-8.91-26.21-8.78-5.28-21.86-3.44-34.37-4.77-1.09,13.5-2,25.23-3,37l-5.62-.3C1349.73,173.8,1354.16,147.16,1352.46,118.15ZM1363,156.07c11.11,0,21.36,1.89,30.31-.7,5.47-1.58,11.68-9.73,12.37-15.54.45-3.85-7.7-11.39-13.07-12.64-9.14-2.12-19.13-.58-29.61-.58Z"/><path class="cls-1" d="M1577.94,170.94c2.62,3,5,6.27,7.91,8.84,5.4,4.7,10.61,11.39,16.93,12.88,10.65,2.52,24,2.12,27-11.35,3.21-14.39-10.4-15.41-20-17.92-15.34-4-32.39-5.49-32.41-27.42q1.73-4.12,3.46-8.23c13.75-12,30.12-14.87,43.5-7.18,8.22,4.73,14.2,11,10.36,25.78-4.2-5.48-6.66-8.33-8.72-11.43-7.71-11.67-18.62-13.13-30-7.76-3.84,1.81-7.29,8.31-7.44,12.79-.12,3.41,4.59,8.68,8.33,10.18,8.55,3.44,17.94,4.68,26.76,7.54,10.2,3.31,19,10.24,15.51,21.41-2.54,8-9.6,17.67-17,20.56-24.34,9.54-44-2.57-46.38-26.16Z"/><path class="cls-1" d="M1284.56,4.73c21.38,1.23,44-6.27,59.61,14.58,9.78,13,9.77,40,.1,53.18-15.54,21.16-38.1,13.34-59.71,14.82Zm9.66,74.16c15.88-.16,34.54,4.66,41.62-11.93,5.15-12,5.14-29.85,0-41.88-7.1-16.5-25.59-12.19-41.59-11.55Z"/><path class="cls-1" d="M949.44,45.49c.34-26.07,15.91-42.68,39.69-42.34,23.22.33,38.43,18,37.92,44.06-.5,25.22-15.83,41.64-38.8,41.54C964.8,88.66,949.11,71.16,949.44,45.49Zm68.2-.44c-.34-20.83-12-33.92-29.93-33.57-17.67.34-29.15,14.08-29,34.68s12,34.53,29.24,34.64C1006.13,80.92,1018,66.62,1017.64,45.05Z"/><path class="cls-1" d="M1444.14,44.23c.43-25.34,15.54-41.3,38.88-41.1s38.49,17.49,38.16,43.75c-.32,26-16.06,42.55-40,41.89C1457.83,88.13,1443.67,71.12,1444.14,44.23ZM1511.77,46c.13-21.07-10.94-34.31-28.85-34.52-17.71-.19-29.58,13.15-30,33.75-.45,21,12.07,35.81,30,35.57C1500.38,80.57,1511.64,67,1511.77,46Z"/><path class="cls-1" d="M1981.44,160.46c-.42,25.59-16.82,42.56-40.34,41.73-22.73-.8-37.75-18.55-37.29-44.08s16.14-41.93,39.77-41.5S1981.87,134,1981.44,160.46Zm-9.25-1.71c-.23-20.63-12.06-34.5-29.39-34.45-17.87,0-30.42,15.19-29.85,36s12.34,33.6,30.5,33.26C1961.12,193.25,1972.43,179.55,1972.19,158.75Z"/><path class="cls-1" d="M2346.74,158.88c.11,25.75-15.74,43.39-39,43.37-23,0-39.35-18.19-39.08-43.49.27-25.13,15.49-41.89,38.34-42.23C2330.72,116.19,2346.63,133.15,2346.74,158.88Zm-68.76-.2c-.32,20.37,11.41,34.51,28.94,34.88,18,.38,29.95-12.6,30.5-33.18.57-21.17-11.61-36-29.5-36C2290.58,124.42,2278.3,138.49,2278,158.68Z"/><path class="cls-1" d="M1773.89,130.74c-7.24,9.53-4.16,16.11,6.25,19.75,7.18,2.51,14.69,4.13,22.09,6,15.73,4,23.4,13.19,19.81,29.91-1.18,2.11-2.37,4.21-3.55,6.31-13.66,11.18-29,12.07-44.8,6.27-13.06-4.8-17.4-16.59-8.83-30.67,2.34,19.67,13.44,27.42,29.31,24.65,6.79-1.18,12.59-8.09,18.84-12.4-5.1-5.34-9.35-12.2-15.51-15.63-6.93-3.85-15.84-3.94-23.42-6.87-12.67-4.88-16.92-16.09-11.16-27.85,6-12.3,17.7-15.91,29-12.91a54.73,54.73,0,0,1,25.81,16.2c5.2,5.93,1.66,11.77-7.69,7.06l-12.87-14.15-6.93-1.43Z"/><path class="cls-1" d="M1206.7,43.58l14.46,17.69c2.2-4.65,3.91-8.27,5.61-11.89l5,.71c-.69,6-2.89,12.35-1.67,17.94,1.3,6,5.82,11.19,11.37,21.07l-19.14-9c-18.81,11.37-34.64,11.5-43.72-.46-8.64-11.36-5.26-22,13.06-39.42-6.83-11-14.69-24.39,2-32.41,6.08-2.91,19.79.07,24,5.26C1227.81,25.44,1217,34.76,1206.7,43.58Zm13.2,30.06c-6-7.48-9-11.35-12.11-15.08s-6.28-7.18-12.37-14.1c-4.79,9.37-10.1,16.21-11.3,23.7-.56,3.47,6.75,11.5,10.77,11.69C1202.4,80.2,1210.1,76.34,1219.9,73.64Zm-23.42-38.43,10.08,1.38q2-10.07,4.09-20.12l-14.17-1.76Z"/><path class="cls-1" d="M1437.94,46.62c-.28,25.88-16.14,42.68-39.79,42.13-23.4-.55-38.31-18-37.73-44.23.56-25,16.09-41.46,39-41.39C1422.74,3.21,1438.21,20.68,1437.94,46.62Zm-9.26.32c.31-21-10.7-34.79-28.21-35.41-18.54-.66-31,13.2-31.1,34.47,0,20.1,12.16,34.57,29.37,34.8C1416.39,81,1428.39,67.46,1428.68,46.94Z"/><path class="cls-1" d="M1558.64,156.6c-1.32,1.43-4,3.27-3.73,4.22,3.77,12.46,7.95,24.8,12,37.18l-5.52,2.91c-2.2-2.53-5.57-4.71-6.41-7.63-9.27-31.86-9.17-31.89-43.81-27.52-.65,11.14-1.33,22.58-2.11,36-9-9-11.26-51.64-6.17-83.59,20.29,3.49,43.43-9.57,60.44,12.52Q1561,143.62,1558.64,156.6Zm-47.66-.24c10.44,0,20.66,1.84,29.67-.66,5.83-1.62,13.43-9.44,13.66-14.77.21-4.63-8.1-12.38-13.92-13.9-9-2.37-19.15-.63-29.41-.63Z"/><path class="cls-1" d="M1843,156.8c-9.38-9.39-11.65-19.7-3.29-30.82,7-9.24,25.78-12.5,38-7,12,5.37,15.18,10.79,13.23,25.83-3.31-3.63-6.16-5.68-7.55-8.46-5.7-11.45-15.74-13.93-26.31-10.73-5.07,1.54-10.7,7.83-11.94,13-.76,3.12,5.59,9.9,10.13,12,8.38,3.79,18.86,3.58,26.44,8.29,6.42,4,14.1,12.79,13.75,19.05-.42,7.43-7.23,17.65-14.06,21-22.91,11.29-45.73-.93-49.33-24.43,3.27,1.09,8.84,1.45,9.44,3.37,5.56,17.77,19.37,17.51,33,14.41,5-1.14,11.51-8,12-12.83.41-4.15-5.9-11.1-10.78-13.17C1865.33,161.82,1854,159.8,1843,156.8Z"/><path class="cls-1" d="M1441.93,193.39h47l.07,4.42h-57v-78h56.3c.08,1.49.16,3,.23,4.47H1442v29.78h43.27c.14,2.19.27,4.38.41,6.57L1441.93,163Z"/><path class="cls-1" d="M1189.4,164.57c4.19,19.78-6.16,33.64-23.48,37-21.79,4.21-41.16-10-44.74-32.9-4.31-27.54,9.25-49.2,32.43-51.77,21.26-2.35,35.08,7.41,37.14,30.53-17.68-20.86-35.6-36-55.68-9-9.77,13.12-6.39,39.67,5.62,48.47C1165.47,205,1178.13,187,1189.4,164.57Z"/><path class="cls-1" d="M1334.19,118.58c0,21.38,1.91,43-1,64-1,7.21-13.71,17-21.9,17.92-10.54,1.14-23.78-3-32.47-9.45-10.63-7.88-10.62-59.75-1.37-74.82,1.65,4.47,3.65,7.48,3.74,10.54.37,13.14,0,26.29.21,39.44.26,20.09,6.15,27.21,22.27,27.3,16.34.09,22.56-7.14,22.77-26.76.12-12.59-.26-25.2.18-37.79.14-3.8,2.28-7.54,3.5-11.31Z"/><path class="cls-1" d="M2057.93,167.22c2.59,20.61-8.93,33.51-27.8,34.93-21.87,1.65-38.27-13.34-41.26-37.72-3-24.19,11-44.64,32.44-47.48,20.86-2.77,34.49,6.3,39,30.42-20.16-21.08-40-38-58.49-5.2-8.81,15.6-3.86,38.09,9.13,46.19C2035.15,203.45,2047.1,186.76,2057.93,167.22Z"/><path class="cls-1" d="M816.89,201c-13.41-5.3-10-28.37-33.76-27.29-21.94,1-19.37,21.6-35.7,25,3.69-9.69,7.28-19.41,11.09-29,5.82-14.74,11.57-29.52,17.89-44,1.3-3,4.85-6.77,7.55-6.92,2.55-.14,6.65,3.46,7.82,6.34,9.87,24.12,19.22,48.46,28.72,72.73Zm-47.28-35.69H798c-4.93-12.66-9.06-23.29-14.05-36.15Z"/><path class="cls-1" d="M1112.12,200.36c-2.53-1.34-6.58-2.11-7.33-4.12-4.75-12.7-9-21.87-27-21.65-17.1.21-21.24,8.51-25.55,20.91-.8,2.32-5.07,3.44-10.7,2.62,10.14-25.08,19.71-50.42,30.73-75.11,3.87-8.66,10.5-6.8,13.9,1.66,9.74,24.24,19.18,48.6,28.74,72.91Zm-48-34h28.62L1078,129.07Z"/><path class="cls-1" d="M2166.25,201.22c-12.52-6.72-10.45-27.93-33.73-27.53-22.43.39-18.36,22.86-37.32,28.8,11.89-29.43,22-54.9,32.92-80,.56-1.28,11.94-.63,12.82,1.45,10.35,24.39,19.65,49.23,29.23,74Q2168.21,199.56,2166.25,201.22Zm-32.42-72.91L2119,166.42h28.77Z"/><path class="cls-1" d="M1747.77,201.24c-2.84-4.23-7.22-8.12-8.23-12.75-3.37-15.48-14.85-12.59-25.62-13.22-10.5-.61-17.87,1.25-20.78,13-1.17,4.73-5.65,8.64-8.63,12.93l-4.84-3.13c9.86-24.67,19.61-49.4,29.77-73.95,1-2.5,5-5.87,6.83-5.48,3,.64,6.8,3.53,8,6.4,9.81,24.17,19.1,48.54,28.55,72.85Zm-46-35.08h29c-4.88-12.35-9.21-23.29-14.65-37.07Z"/><path class="cls-1" d="M920.7,118.54c0,17.14-.28,34.28.09,51.41.28,12.8,5,22.35,19.75,23.45,16.38,1.21,24.93-5.64,25.79-22.25.65-12.58,0-25.21.24-37.82.07-5,.77-10,1.19-15,3.33.28,5.31.38,5.31.46-.25,22.92,3.1,46.74-2.13,68.5-4.62,19.21-39.72,20.53-52.85,4.35C909.42,181,908,131.05,916,118.29Z"/><path class="cls-1" d="M1045.26,124.77h-41.69V153.6h36.13l.45,5.05c-10.36,8.29-24.07.28-37.69,5.4,0,8.58.41,18.26-.26,27.86-.19,2.72-3.56,5.23-5.47,7.83-1.43-2.48-4.08-4.94-4.11-7.44-.32-24-.19-48.06-.19-72.26h52.77Z"/><path class="cls-1" d="M1198.33,119.85h65.15l.4,5-26.36,2.69c-5.52,23.72,3.2,49.23-4.65,72.83l-5.67-.08v-72.1l-28.91-3.2C1198.31,123.24,1198.32,121.54,1198.33,119.85Z"/><path class="cls-1" d="M2200.93,127.7l-27.52-2.91.21-4.33h64.1l.57,3.77-27.24,3.38c0,20.18.22,40.8-.2,61.4-.07,3.66-2.76,7.27-4.24,10.9-1.9-3.7-5.33-7.35-5.43-11.1C2200.64,168.71,2200.93,148.59,2200.93,127.7Z"/><path class="cls-1" d="M2253.09,201.49c-9-12.23-8.81-72.94,0-84.29Z"/><path class="cls-1" d="M759.77,86.37V5.59l4.2,0V86.3Z"/><path class="cls-1" d="M2077.76,199.31V119l4-.09v80.41Z"/><path class="cls-1" d="M1797.22,126.41l12.87,14.15C1799.93,141.18,1795.83,136.3,1797.22,126.41Z"/><path class="cls-1" d="M1558.64,156.6q2.35-13,4.73-25.94,1.44,0,2.88,0h0c.31,5.94,1.63,12.07.53,17.73C1566.17,151.56,1561.48,153.9,1558.64,156.6Z"/><path class="cls-1" d="M1773.89,130.74l16.4-5.76C1789.78,141,1778.74,127.07,1773.89,130.74Z"/><path class="cls-1" d="M1818.49,192.71c1.18-2.1,2.37-4.2,3.55-6.31l5.8,3.71Z"/><path class="cls-1" d="M1577.94,170.94l-2.29,2.53Z"/></g></g></svg>