<svg xmlns="http://www.w3.org/2000/svg" viewBox="0 0 860.27 969.37"><defs><style>.cls-1{fill:#5e5e5e;}</style></defs><title>logo-sa</title><g id="Layer_2" data-name="Layer 2"><g id="Layer_1-2" data-name="Layer 1"><path class="cls-1" d="M465.28,969.37c-19-2.35-38-4.36-56.93-7.1-103.44-14.94-191.49-61.73-265.68-133.71-52.19-50.64-90.31-111.63-114-180.73C-14.08,523.46-9.48,401,45.64,281.08,98,167.25,183.31,87.2,297.69,37.87c51.7-22.31,106.17-34.09,162.6-36.13C462.87,1.65,465.41.6,468,0h29.62C513.05,1.74,528.54,3.3,544,5.24c55.07,6.9,107.86,22,157.26,47.23a484.56,484.56,0,0,1,115.11,82.27c.89.85,1.19,2.31,2.11,4.21l-73,68.27C566.26,39.55,325.62,84,199.92,220.46,55.65,377.05,68.65,611.9,210.52,752.4c51.86,51.38,114.21,84.86,185.83,101.42,72,16.66,142.64,10.57,211.27-13.31,68.81-23.93,125.71-66.46,171.63-124.84l81,72.4c-41.33,49.31-87.49,89.69-143,119.81-54.92,29.79-113,48.61-174.45,57.93-14,2.13-28.34,2.42-42.53,3.56Z"/><path class="cls-1" d="M712.77,687.69,653.06,635c10.85-19.49,22.54-38,31.56-57.76,4.66-10.18,5.19-22.48,6.15-33.95.24-2.85-5.06-8.8-7.91-8.86-29.12-.67-58.25-.41-89.58-.41,0,12.37,0,24,0,35.53.2,63.65.28,127.3.79,190.94.08,9.2-2.71,14.62-11.86,17-23.18,6.05-46.25,12.47-71,19.2V161.28c119.85,21,209,82.11,256.92,194.31C819.47,476,798.63,586.94,712.77,687.69ZM694.59,441.06c5.78-56.5-47.51-145.63-96.74-162.35V441.06Z"/><path class="cls-1" d="M447.84,794C305.7,787.42,187.58,655.46,169.21,548.66c3.33-.43,6.61-1.23,9.89-1.23,20.38,0,40.79.83,61.14,0,8.88-.37,12.61,2.23,15,10.5,11.34,39.45,34.19,71.62,65.57,97.37,15.26,12.53,32.67,22.45,51.12,34.91.46-7.18.91-11.07.92-15,.05-48.46.35-96.92-.34-145.37-.09-6.66-3.61-14.66-8.16-19.65-54.84-60-110.18-119.59-165.9-179.84,57.85-94.31,136.13-156.66,250.23-167.91V293.07H381v-28.5c-22.63,6.38-39.84,18.09-53.19,35.34-22,28.38-21.76,28.47,2.79,53.24q57.18,57.68,114.1,115.59c3.25,3.33,5.94,8.95,5.92,13.49Q450,635.65,448.7,789.06A35.19,35.19,0,0,1,447.84,794Z"/></g></g></svg>