<svg xmlns="http://www.w3.org/2000/svg" viewBox="0 0 2590.77 969.37"><defs><style>.cls-1{fill:#5e5e5e;}</style></defs><title>logo-aama</title><g id="Layer_2" data-name="Layer 2"><g id="Layer_1-2" data-name="Layer 1"><path class="cls-1" d="M967.71,0c0,3,.09,5.94.09,8.91q0,473.22,0,946.45c0,12,0,12-11.77,12H9.55c-3.18,0-6.37.16-9.55.25V0ZM292,669.28l-1.85,0c-.22,2.63-.62,5.25-.62,7.88q-.06,78.3,0,156.61c0,4.66-.62,7.84-6.33,7.79-17.42-.12-34.84-.09-52.27,0-4.2,0-5.48-1.92-5.34-5.9.22-6.57,0-13.15,0-19.73q0-134.33,0-268.65c0-8.46.05-8.47,8.32-8.47,17.43,0,34.9.76,52.26-.31,9.24-.57,13.54,3.32,16.67,10.65,1.07,2.51,2.06,5.06,3.21,7.53,16.8,36,33.7,72,50.42,108,11.46,24.7,22.62,49.54,34,74.26,3.39,7.34,7.2,14.48,11.21,22.49,1.75-3.33,3-5.52,4.09-7.8q30.76-65.89,61.5-131.8c11.79-25.2,24.11-50.17,35.43-75.59,2.7-6.07,5.93-7.61,11.83-7.54,18.69.22,37.4.29,56.09,0,5.68-.11,7.89,1.66,7,7.21a21.08,21.08,0,0,0,0,3.18q0,138.46,0,276.92c0,1.66.34,3.31.71,6.83,2.23-4,3.58-6.14,4.63-8.39q24.28-52.07,48.5-104.16c14.55-31.25,29.21-62.46,43.66-93.77q17-36.9,33.61-74c2.12-4.75,4.65-6.91,10.27-6.81,23,.37,45.9.22,68.85.11,3.92,0,6.15,1.35,7.79,5,5.27,11.67,10.92,23.16,16.32,34.77q23,49.44,45.92,98.93,24.38,52.68,48.67,105.4c.84,1.82,2.34,3.34,4.44,6.27.19-3,.32-4,.32-5.09q0-123.49,0-247c0-13.73,0-13.74-13.88-13.74l-672.55,0c-7.71,0-9.08-1.08-8.93-8.75.23-11.22,1.33-22.43,1.34-33.64q.16-141.64.06-283.3c0-5.73-.16-11.46,0-17.18.15-4.47-1.8-5.89-6.11-5.88q-74,.13-147.9,0c-4.88,0-6.5,1.95-6.18,6.42.12,1.69,0,3.39,0,5.09v699c0,3.18,0,6.36,0,9.54.18,8.59.19,8.59,8.88,8.59H895c3.4,0,6.81-.14,10.19.07,4.51.29,6.4-1.19,6.33-6.12-.27-18.46-.32-36.93,0-55.39.1-5.71-2-7.38-7.38-7.27-12.54.24-25.08.1-37.61,0-4.08,0-7.33-.62-9.44-5.5-6.36-14.74-13.68-29.08-20.34-43.71-1.93-4.23-4.37-5.68-9.15-5.66-49.08.21-98.17.33-147.25-.1-7.43-.06-10.44,2.86-13,9-5.7,13.43-12.07,26.57-18,39.91-2,4.49-5,6.23-9.86,6.22q-58.65-.21-117.3-.09c-6,0-8.38-1.63-8.34-8.34.31-52.2.19-104.4.15-156.6,0-2.48-.46-5-.7-7.43-11.06,20.54-20.85,41-30.49,61.52q-24.65,52.46-49.07,105c-2,4.25-4.55,6-9.25,5.92-12.32-.24-24.69-.72-37,.1-10.87.73-16.77-2.32-21.39-13.22-12.34-29.15-26.55-57.52-40-86.2Q309.05,705.82,292,669.28ZM909.2,443.52l1.95-.55c.11-2,.31-4.08.31-6.12q0-181.1,0-362.19c0-17.39,0-17.39-17.75-17.39H71.43c-2.13,0-4.26.14-6.38,0-5.71-.44-7.84,2-7.79,7.8.23,26.53.08,53.05.12,79.57,0,9.33.09,9.34,9.48,9.34H569.78c4.89,0,9.79.21,14.66-.08,4.56-.26,5.95,1.66,5.73,6-.54,10.79-1.1,21.6-1.12,32.4q-.21,127.62-.17,255.24c0,2.34.48,4.68.89,8.36,1.79-2,2.69-2.57,3.08-3.41q26.76-57.6,53.44-115.24c11.68-25.27,23.23-50.6,34.94-75.85,9.71-20.95,19.68-41.78,29.25-62.79,1.43-3.15,3.08-3.8,6.15-3.78,23.79.1,47.59.15,71.38,0,4.3,0,6.26,1.52,8,5.4,8.69,19.17,17.85,38.13,26.7,57.23q36.81,79.5,73.52,159.06C900.45,425.54,904.88,434.51,909.2,443.52Zm-665.32.76,1.86.46c5.36-10.78,11-21.45,16-32.37q30.44-65.73,60.6-131.61c11.67-25.35,23.42-50.67,34.95-76.09,4.32-9.54,4.35-9.81,14.81-9.8,21.67,0,43.34.24,65-.14,5.44-.1,7.75,2,9.83,6.56q27.19,59.66,54.76,119.14,25.21,54.63,50.57,109.18c2.46,5.29,5.31,10.4,8,15.59l1.8-.59v-6.14q0-123.17,0-246.33c0-11.53,1.06-10.41-10.12-10.42q-150.11-.06-300.21-.14c-6,0-8,1.45-8,7.76q.3,124.12.14,248.24Zm666.83,57.58c1.67-10.48,1-11.3-8.82-11.3-12.11,0-24.22,0-36.33,0-3.93,0-6.43-1.08-8.26-5.23-6.46-14.7-13.63-29.08-20.28-43.7-2-4.3-4.22-6.27-9.44-6.24q-73.94.36-147.87,0c-6.4,0-9.51,2.29-11.89,7.79-6.22,14.34-12.9,28.48-19.26,42.76-1.49,3.34-3.51,4.7-7.3,4.65-14.87-.19-29.75.06-44.62-.07-4.78-.05-7.71,1.06-7.74,6.62s3.54,5.3,7.3,5.3q153.93,0,307.86-.06C906.32,502.36,908.59,502,910.71,501.86Zm-349.38,0c1.77-10.4,1-11.31-8.7-11.31-12.1,0-24.21-.24-36.31.12-5.07.15-7.83-1.9-9.74-6.19-6.13-13.8-12.15-27.66-18.68-41.27-1.67-3.48-2.65-7.9-9-7.86-50.76.32-101.52.13-152.28.34a8.09,8.09,0,0,0-6,3.71c-7.47,15-14.73,30.18-21.65,45.47-2,4.42-4.65,5.83-9.27,5.75-12.74-.22-25.48,0-38.23-.05-4.38,0-7.72.37-7.78,6.41-.06,6.37,3.91,5.4,7.61,5.4q151,0,302,0C556.06,502.37,558.76,502,561.33,501.87Zm192.15,111c-1.83,2.72-3.16,4.24-4,6q-22.66,48.81-45.21,97.67c-2.86,6.18-1.81,7.78,5.25,7.9,2.55,0,5.1-.05,7.64-.05q40.15,0,80.29,0c6.49,0,6.82-.62,4.24-6.34-1.65-3.64-3.18-7.32-4.84-10.94C782.66,676.22,768.43,645.34,753.48,612.89ZM455.06,372.52c-6-12.58-11.29-23.56-16.41-34.63-11.06-23.88-22-47.81-33.08-71.67-.52-1.12-1.9-1.85-2.89-2.75a12.59,12.59,0,0,0-2.27,2.61c-2,4.39-3.83,8.88-5.86,13.28-13.61,29.5-27.16,59-41,88.45-2.49,5.31-.14,5.8,4.1,5.79q43.66-.12,87.32-.22C447.84,373.37,450.69,372.91,455.06,372.52ZM753.35,261.74a57.53,57.53,0,0,0-3.66,5.71C741.42,285.29,733.23,303.17,725,321c-7,15.06-14.06,30.06-21,45.13-2.59,5.66-1.67,7.35,3.54,7.34q34.38,0,68.76-.07c7.21,0,14.43,0,21.64-.05,4-.05,6.81-.54,4.1-5.92-4.23-8.41-7.64-17.22-11.59-25.78C778.33,315.43,766.12,289.24,753.35,261.74Z"/><path class="cls-1" d="M2590.77,679.9c-1.09,2.16-2.14,4.34-3.27,6.48-6.76,12.88-17.07,20.89-31.45,24.17a85.18,85.18,0,0,1-49.25-2.79c-14.3-5.2-26.53-25.74-23.75-40.51.23-1.23,2.41-3,3.73-3,10.19-.26,20.39-.36,30.57,0,1.53.06,3.81,2.78,4.28,4.64,3,11.91,6.86,16.1,15.58,16,5.91-.09,11-1.79,12.85-8.15,2-6.93-.09-13.22-6.16-16.34-8.59-4.43-17.61-8-26.3-12.28-12-5.9-23.31-12.63-29.87-25.24-10.62-20.38-2.3-51.53,25.14-59.11,18.31-5.06,36.25-5,53.86,2.7,13.22,5.77,22.48,21.15,21.72,35.55-.21,3.81-1.56,5.16-5.39,5.08-8.7-.18-17.42-.23-26.11.12-5.21.21-7-1.64-7.3-6.86-.7-11.29-9.53-16.37-19.31-11.6-6.45,3.16-9.31,11.25-4.25,16.18,5.38,5.24,12.48,8.89,19.19,12.58,9,5,18.66,8.75,27.45,14,7.67,4.6,13.71,11.18,16.07,20.34.14.54,1.29.83,2,1.23Z"/><path class="cls-1" d="M1186.87,568.34c-1.85,7.9-3.77,15.78-5.54,23.7-4.27,19.14-8.6,38.27-12.68,57.45-3.81,17.94-7.24,36-11.1,53.87-.37,1.69-2.55,4.19-4,4.24-10.15.37-20.31.2-30.89.2-9.75-47.39-19.4-94.27-29.17-141.77-1,.88-1.76,1.24-1.75,1.56.44,10.75,1,21.5,1.42,32.25.33,8.89.43,17.79.7,26.69q1.06,36.22,2.2,72.45c.27,8.63,0,8.93-8.65,9-9.56,0-19.13-.17-28.68.08-4.31.12-6.06-1.13-6-5.7q.16-90.69,0-181.39c0-4.22,1.38-5.49,5.5-5.46q26.76.24,53.53,0c3.84,0,4.85,1.42,5.56,5,2.78,14,6.14,27.94,9,41.95,2.13,10.28,3.76,20.67,5.87,31,2,9.61,4.27,19.15,6.82,30.52,1.67-2.5,2.9-3.58,3.17-4.86,3.71-18,7.2-36,10.93-53.92q4.75-22.89,10-45.68c.35-1.5,2.58-3.65,4-3.67q28.36-.37,56.72,0c1.34,0,3.66,2.63,3.78,4.17.45,5.9.2,11.86.2,17.8,0,54.1-.13,108.2.13,162.3,0,6.61-1.93,8.41-8.31,8.06-9.75-.54-19.55-.35-29.31-.07-4.83.13-6.28-1.7-6.08-6.34.81-19.07,1.34-38.14,2-57.22q1.18-34,2.38-68c.09-2.65,0-5.31,0-8Z"/><path class="cls-1" d="M1255.51,195V146.72c0-15.91.11-31.82-.1-47.72-.05-3.71-1.15-7.41-1.91-11.08-1-4.64-4.35-6.9-8.68-6.82-4.58.08-9,1.52-9.93,7a67.84,67.84,0,0,0-1.44,11.21c-.08,29.7-.08,59.39.15,89.09,0,4.88-1.21,6.84-6.42,6.64-9.76-.37-19.54-.24-29.31-.05-4.31.09-5.94-1.31-5.92-5.83q.19-66.19,0-132.37c0-4.65,1.76-5.81,6-5.7,8.71.2,17.44.35,26.13-.06,5.16-.24,6.93,1.64,6.41,6.53a18.6,18.6,0,0,0,.72,7.16c8-10.51,18.32-17.33,30.87-18,12.92-.67,23.21,6.07,29.71,17.17,3.6-3.35,6.8-6,9.64-9,14.29-15.14,48.8-7.34,54.89,11.11a24.74,24.74,0,0,1,1.68,7.28q.27,58.55.12,117.09c0,1.51-2.32,4.29-3.61,4.33-12.08.33-24.17.2-37.35.2v-8.44q0-47.1,0-94.19c0-5.41-1.91-9.63-7.61-10.85-5-1.06-9.54.2-11.88,5-1.13,2.34-1.23,5.33-1.24,8q-.15,46.13-.09,92.27c0,8-.12,8.15-8.21,8.16C1277.52,195,1267,195,1255.51,195Z"/><path class="cls-1" d="M1180.53,963.92c-14.69,0-28.9.34-43-.41-1.81-.1-4.1-5.68-4.81-9a194,194,0,0,1-3.13-21.9c-.34-3.53-1.88-4.93-5.16-4.94-8.91,0-17.84-.28-26.74.15-1.67.08-4.29,2.7-4.63,4.5-1.9,10.12-3.24,20.36-4.85,31.12h-45.33c1.05-5.62,1.9-11,3.07-16.25,4.75-21.35,9.73-42.66,14.36-64,3.83-17.68,7.14-35.48,11-53.16,4-18.31,8.18-36.56,12.53-54.77.34-1.42,2.6-3.38,4-3.4q23.88-.35,47.77,0c1.42,0,3.8,1.5,4.08,2.69,2.84,12.08,5.29,24.25,7.93,36.37,3.1,14.18,6.34,28.34,9.43,42.52,2,9.26,3.84,18.57,5.83,27.84,3,14.2,6.16,28.38,9.23,42.58q3.08,14.2,6.1,28.42C1178.87,955.7,1179.55,959.16,1180.53,963.92Zm-69.26-149.66c-1.07,1.25-1.51,1.52-1.56,1.86-3.48,22.73-7,45.45-10.35,68.19-1.17,8-.91,8.07,7.34,8.11,4,0,8.08,0,12.11,0,3.55,0,4.82-1.2,4-5.1-1.4-7-2.19-14.18-3.14-21.3-1.94-14.64-3.75-29.31-5.79-43.95C1113.58,819.67,1112.36,817.38,1111.27,814.26Z"/><path class="cls-1" d="M1180.42,450.57h-45.69c-1.66-9.41-3.86-19-4.87-28.7-.58-5.56-2.66-7.31-7.88-7.13-7.63.25-15.29.32-22.92,0-4.09-.16-5.8,1.57-6.34,5.25-1.29,8.76-2.49,17.54-4,26.26-.29,1.67-1.85,4.43-2.88,4.45-14.15.29-28.31.2-43.36.2,14-64.39,27.82-127.86,41.68-191.54a33,33,0,0,1,4.47-.62c14.86-.05,29.72.05,44.59-.08,4.17,0,6.13.93,7.08,5.73,3.53,18,7.93,35.74,11.81,53.64,3.74,17.29,7.14,34.66,10.86,51.95,3.81,17.68,7.89,35.3,11.76,53C1176.68,432,1178.45,441,1180.42,450.57Zm-68-148.85-2.31.23q-5.76,38.64-11.5,77.18h25.17Z"/><path class="cls-1" d="M1180.68,194.94c-14.65,0-28.63.09-42.6-.15-1.19,0-3.08-2-3.37-3.42-1.88-8.83-3.86-17.69-4.89-26.64-.63-5.43-3.06-7.5-8-7.53-7.43,0-14.87.05-22.3,0-3.77-.05-6,1.41-6.53,5.32-1.52,10.42-3.18,20.83-4.88,31.9h-45.55C1056.39,130.51,1070.17,67,1084,3.11h55.16C1153,66.68,1166.67,130.16,1180.68,194.94Zm-69.4-150-1.13.31c-3.87,25.85-7.73,51.69-11.74,78.48,8.12,0,14.87.09,21.61,0,3.3-.06,4-1.56,3.3-5-1.63-7.63-2.64-15.39-3.69-23.13-2-14.62-3.75-29.28-5.8-43.9C1113.51,49.28,1112.16,47.12,1111.28,44.89Z"/><path class="cls-1" d="M1407.46,355c0-29.48.15-59-.13-88.43-.06-6.15,1.83-8.22,8-7.93,9.32.45,18.69.33,28,.06,4.6-.14,5.85,1.72,5.79,6-.2,15.06-.22,30.12-.15,45.17,0,1.91.94,3.81,1.45,5.71a32.63,32.63,0,0,0,4.42-2.84c15.83-13.95,47-13,55.82,9.92a41.26,41.26,0,0,1,2.47,14.21c.24,35.84.11,71.68.32,107.51,0,5.3-1.78,7.05-7,6.87-9.54-.33-19.11-.25-28.66,0-4.72.11-6.17-1.66-6.14-6.36.18-31.59.11-63.19.08-94.79,0-10.89-4-14-14.69-11.62-4.62,1-7.91,6.88-8,15-.15,11,0,22.06,0,33.09,0,19.3-.16,38.6.1,57.89.08,5.36-1.78,7-7,6.8-9.12-.34-18.27-.38-27.39,0-5.48.22-7.35-1.43-7.3-7.14.27-29.69.12-59.38.12-89.07Z"/><path class="cls-1" d="M1758.26,609.91c-12.44,0-24.92.09-37.38-.17-1.1,0-3.06-2.33-3.08-3.61-.33-18.84,7.23-35.11,28.43-42,16.76-5.46,34.13-4.87,51-2,18.09,3.07,30.35,13,30.91,36.21.72,29.69.17,59.41.43,89.11.06,6.45,1.26,12.89,2.06,20.52h-17.56c-4.89,0-9.79-.27-14.65.06-5.68.39-8.36-2-8.45-7.57a25.76,25.76,0,0,0-.92-4.11c-3.76,3.22-6.8,6-10,8.54-17,13.42-51.78,12.1-60.35-15.2-7.92-25.24-1.38-54.21,32-64.32a299.57,299.57,0,0,0,29.06-10.49c6.35-2.67,9.17-10.39,7.4-17.14-1.52-5.78-7.69-10.58-13.59-10.55-6.61,0-11.09,3.86-13.11,11.56C1759.51,602.16,1759.05,605.71,1758.26,609.91Zm30.09,30.71-2.59-1.26c-5.09,2.34-10.23,4.57-15.26,7-7.61,3.73-11.65,10-12.89,18.32-1.12,7.44,3.39,15.16,10.21,16.84s16.07-.92,17.27-9.31C1786.59,661.76,1787.3,651.17,1788.35,640.62Z"/><path class="cls-1" d="M1860.46,183.67c-3,2.42-5,4-6.88,5.65-14.43,13.09-37.29,14.17-52.51,2.81-11.83-8.84-15.26-27.63-12.63-42.74,4-23.11,19.8-33.43,40.52-39.23a130.1,130.1,0,0,0,22.44-8.36c6.67-3.3,8.87-11.5,6.11-18s-7.79-9.76-14.33-9c-6,.72-11,5.83-12,12.21-1.65,10.23-1.65,10.23-12.38,10.23-8.07,0-16.15-.09-24.22,0-3.49.06-4.8-1.22-4.9-4.81-.66-24.26,13.94-40.36,38-44.06A115,115,0,0,1,1873,50.28c17.55,4.26,26.12,17,26.52,34.67.64,28.21.17,56.44.39,84.66.07,8.12.89,16.24,1.42,25.19-11.56,0-23.79.1-36-.16-1.23,0-2.85-2-3.49-3.49C1861,189.35,1861,187.18,1860.46,183.67Zm-.78-54.88-2.5-1.65c-4.68,2.08-9.33,4.24-14,6.23-7.32,3.08-11.49,8.67-13.69,16.14-2.27,7.7,2.34,17.15,9.75,19.42,7.6,2.32,15.5-1.82,17.19-10.46C1858.28,148.73,1858.64,138.69,1859.68,128.79Z"/><path class="cls-1" d="M1359.36,707.86c-11.39,0-23.24.13-35.09-.17-1.43,0-3.64-2.15-4.08-3.69-2.26-7.94-2.62-8.33-8.39-2.14-13.6,14.61-40.07,13.91-52.35,3.44-13.36-11.38-15.18-26.29-12.87-42.66,3.46-24.54,20.63-34.06,41.88-39.87a121.48,121.48,0,0,0,21.12-8c5.28-2.58,7.82-7.87,7.16-13.77-.62-5.56-2.88-10.24-8.85-12.68-8.23-3.35-17.16,2.1-18.59,12-.42,2.9-.48,5.85-.73,9.2h-39.48c-5.13-15.21,4.36-35.13,20.53-43,14.28-6.93,29.59-6.73,44.81-5.6a84.42,84.42,0,0,1,22.78,4.51c14.52,5.35,20,17.86,20.38,32,.71,28.2.21,56.44.42,84.66C1358.08,690.48,1358.86,698.8,1359.36,707.86Zm-42.73-68.7c-6.29,2.68-11.46,4.56-16.34,7-9,4.57-16.58,17.43-11.72,27.41,2.81,5.76,6.7,8,12.67,8.44,6.18.45,10.63-2.59,12.72-7.59C1318.46,663.67,1316.87,652.23,1316.63,639.16Z"/><path class="cls-1" d="M1858.79,963.94c-12,0-23.89.49-35.66-.4-2.43-.18-4.47-5.49-7.16-9-2.32,1.88-5.41,4.52-8.65,7-17.67,13.39-52.64,10.77-59.92-15.54-7.5-27.11-.38-54.41,32-64.23,8.29-2.51,16.64-4.94,24.76-8,9.42-3.51,15.77-12.58,8.58-23.82-2.08-3.25-7.29-6.07-11.17-6.22a11.39,11.39,0,0,0-11.51,8.25c-1.29,4.43-2.11,9-3.25,13.95h-39.61c-2.93-22.71,8.7-40.21,28.35-45.7,19.1-5.35,38.49-4.83,57.68,0,12.6,3.2,22.84,16.2,23,30.14.39,30.54.13,61.08.44,91.62C1856.71,949.06,1858,956.1,1858.79,963.94Zm-43.38-68.3c-6.4,3-11.61,5.05-16.47,7.75-8.92,5-13.34,12.38-12,23,.82,6.16,4.62,11,10.3,11.9,7.77,1.27,12.67-1.13,15.55-7.56C1817.74,919.75,1814.71,908.43,1815.41,895.64Z"/><path class="cls-1" d="M2358.16,451c-12.55,0-24.4.11-36.24-.15-1.27,0-2.85-1.95-3.65-3.35a33.31,33.31,0,0,1-2.17-5.76c-7.27,4.26-13.6,9.56-20.9,12-25.58,8.43-51.78-5.78-51.39-35.23.14-11,1.24-21.44,7.35-30.91,8-12.44,21-16.61,34.08-20.85a190.39,190.39,0,0,0,21.78-8c6.69-3.13,9.09-11.7,6.42-19.36-1.85-5.28-7.92-8.92-13.69-8.19-7.32.93-12.32,6.2-12.44,14.39-.1,6.3-2.38,8.64-8.76,8.31-8.9-.47-17.85-.34-26.76-.06-4.46.15-5.86-1.5-6-5.81-.84-20.33,10.82-36.33,32.37-41.93,16.23-4.21,32.93-3.48,49.22.13,20.67,4.57,28.17,17.61,28.2,38.43,0,29.06-.14,58.13.1,87.19C2355.69,437.83,2357.18,443.86,2358.16,451Zm-42.27-54.76c-.65-14-.79-14.09-12.39-9-13.36,5.85-19.36,14-18.59,25.21.41,5.92,5.59,11.92,11.17,12.93,7.4,1.32,13.11-.88,15.38-7.66S2314.48,403.43,2315.89,396.25Z"/><path class="cls-1" d="M2385.64,643.08h-51.25c-18.19,0-18.29,0-18.06,18.42a49.46,49.46,0,0,0,1.84,12.51c1.81,6.49,6.8,9.08,14.47,8.35,6.4-.61,9-4.44,9.66-10.48,1.66-14,1.78-14,16.21-14,6.58,0,13.18.15,19.76-.06,5.29-.16,7.44,2.19,6.84,7.32-1.86,16-5.75,31.13-21,39.72a59.66,59.66,0,0,1-20.14,6.89c-16.31,2.44-32.57,1.87-47.57-6.31-14.15-7.71-20.75-20.31-21.12-35.87-.5-20.58-.61-41.18,0-61.74.8-25.67,11.79-42.85,42.37-46.52,13.76-1.65,27.52-1.75,40.86,2.78,14.18,4.82,26.51,15.56,27,32.87C2386,612,2385.64,627.06,2385.64,643.08Zm-41.12-27.89c0-6,.34-11.1-.07-16.1-.73-8.88-10.77-14.47-18.82-10.77-6.4,2.95-12.15,18.67-8.9,24.89a4.7,4.7,0,0,0,3.51,1.89C2328,615.27,2335.85,615.19,2344.52,615.19Z"/><path class="cls-1" d="M1691.92,376.9c0-10.18-.12-20.35,0-30.53.28-21.29,14.19-37.09,34.48-40.9,18.14-3.4,36.43-3.62,53.62,4.55,11,5.21,19.18,13.48,20.27,26.17,1.22,14.31,1.36,28.72,1.93,43.09.21,5.26-2.08,7.56-7.66,7.49-18.69-.23-37.38.05-56.06-.18-4.75,0-6.4,1.45-6.15,6.19.38,7,.05,14,.31,21,.23,6.5,4.45,11.26,10.09,11.95,9,1.09,12-.44,14.37-8.33,1.1-3.58.87-7.57,2-11.16.57-1.84,2.68-4.51,4.18-4.56,10.81-.37,21.65-.31,32.47,0,1.45,0,4,2.15,4.08,3.45,1.55,21.13-7.93,43.1-34.38,48.57-16.64,3.43-32.68,3.14-48.66-2.66-14.06-5.11-24.43-18.61-24.79-33.45-.32-13.55-.06-27.12-.06-40.68ZM1746,359c15.2.05,17.3-2.56,13.64-17-1.87-7.38-7-11.33-14.16-10.88-6.46.4-11.86,5.86-12.68,12.79C1731,358.9,1731,358.9,1746,359Z"/><path class="cls-1" d="M1378.77,125.41c0-13.35-1.12-26.81.25-40,2.39-23.12,15.6-32.41,34-36.37,15.81-3.4,32-3.54,47.64,2,14.18,5,25.7,14.67,26.49,33.11.56,13.34.14,26.73.36,40.09.08,5.08-2.22,6.45-7,6.4-18.48-.22-37,0-55.45-.19-4.7-.05-7.19,1-6.64,6.39.78,7.56.74,15.21,1.59,22.76.7,6.22,5,9.71,11,10,7.25.33,10.84-2.2,12.56-8.8a57.66,57.66,0,0,0,1.77-6.74c1.17-9,1.1-9,9.93-9s17.42.19,26.13.09c3.76,0,5.25,1.3,5.23,5.21-.09,23.12-11,42.95-36.93,47.54-17.87,3.15-34.84,2.75-51.17-5.47-14.64-7.39-20.46-20.06-20.61-35.83-.11-10.39,0-20.79,0-31.19Zm67.16-22.87c0-5.87.17-10.9,0-15.92a12.38,12.38,0,0,0-10.41-11.87c-5.93-1.11-11.4.77-13.51,6.53-2,5.59-2.62,11.76-3.34,17.74-.13,1,2.2,3.31,3.46,3.36C1429.84,102.7,1437.62,102.54,1445.93,102.54Z"/><path class="cls-1" d="M1571.66,564.16c12.65,0,24.73,0,36.8,0,4.19,0,3.81,3.15,3.81,5.91q0,26.08,0,52.18,0,38.49,0,77c0,8.63,0,8.65-9,8.66-9.51,0-19,0-29,0-.3-4.6-.55-8.54-.9-13.84-3,3.19-5.75,5.37-7.61,8.14-11.15,16.64-45.59,13.23-54.38-5.1a35.44,35.44,0,0,1-3.6-14.54c-.25-37.33,0-74.66-.14-112,0-5,1.36-6.8,6.47-6.59,8.26.36,16.56.11,24.84.1,10.14,0,10.16,0,10.17,9.81,0,28.21-.06,56.42,0,84.63,0,4.21.67,8.43,1,12.64.42,4.8,3.62,8,7.83,7.42a18.84,18.84,0,0,0,10.8-5.91c2-2.34,2.23-6.76,2.25-10.26.17-29.7.1-59.39.15-89.09C1571.17,570.45,1571.47,567.54,1571.66,564.16Z"/><path class="cls-1" d="M2141.26,893.16c0,10.81.45,21.65-.11,32.43-.79,15.2-5.53,28.85-20.09,36.33-6.2,3.18-13.22,5.84-20.08,6.47-14.46,1.31-29.05,1.55-42.9-4.64-11.71-5.24-20.82-13.51-21.68-26.31-1.71-25.48-2.71-51.1-2-76.61.59-20.69,9.78-37.59,32.17-41.83,11.48-2.17,23.64-2,35.38-1.22,15.92,1.07,28.74,8.47,35.1,23.84A58,58,0,0,1,2141,860.1c.62,11,.17,22,.17,33.06Zm-41.13.5h-.08c0-11.45.13-22.9-.05-34.34-.1-6.08-3.41-11.16-8.89-12.68-3.34-.93-9.16.62-11.23,3.19-2.75,3.4-3.94,8.86-4,13.47-.4,20.13-.21,40.28-.09,60.42,0,2.93,0,6.32,1.46,8.65,1.54,2.54,4.48,5.38,7.21,5.87,10.43,1.85,15.54-2.78,15.67-13.41C2100.22,914.44,2100.13,904.05,2100.13,893.66Z"/><path class="cls-1" d="M1484,707.89c-13,0-25.07.16-37.12-.22-1.3,0-3.54-3.17-3.59-4.91-.32-11.23-.13-22.47-.13-33.71,0-21,.07-42-.08-63-.06-9.2-3.32-12.16-11.73-11.88-5.71.19-8.65,3.11-8.89,8.57-.28,6.13-.19,12.29-.19,18.43,0,26.29-.15,52.59.15,78.87.07,6.12-1.81,8.26-8,8-9.11-.42-18.26-.31-27.38,0-4.92.16-6.83-1.52-6.81-6.53q.21-65.52.09-131c0-5,1.64-6.66,6.69-6.49,10.13.36,20.28.11,30.65.11.53,4.71,1,8.73,1.47,13,5.89-4.94,10.53-10.28,16.36-13.41,11.25-6,23.07-3.91,33.87,1.59,9.92,5.06,14.69,13.68,14.63,25.2-.2,36.26,0,72.51,0,108.77Z"/><path class="cls-1" d="M2097.6,308.05h41.12c.12,2.72.3,5,.3,7.29,0,42.64-.09,85.28.14,127.92,0,5.94-1.29,8.38-7.68,7.94a210.41,210.41,0,0,0-23.56,0c-5.62.24-8.49-1.33-7.47-7.48a9.56,9.56,0,0,0-.46-3.63c-6.44,4.64-12.57,10.38-19.78,13.95-11.23,5.56-37.52.7-42.73-16.36a23.94,23.94,0,0,1-1.38-6.72q-.13-59.83-.08-119.65c0-.82.2-1.65.46-3.68h23.83c16.4,0,16.4,0,16.4,16.26q0,40.09,0,80.18c0,3,.06,5.94.25,8.9.35,5.56,3,9.27,8.86,9.7a11.31,11.31,0,0,0,11.62-9.5,49.75,49.75,0,0,0,.14-6.35q0-45.51,0-91Z"/><path class="cls-1" d="M1527.81,893.61c0,10-.14,19.94,0,29.91.37,22.07-12,39.38-33.29,43.39-16.51,3.12-32.64,3.6-48.38-3-16.16-6.72-24.61-19.65-24.59-37,0-21-.13-42,.09-63,.13-12,2.08-23.37,10.55-33a38.52,38.52,0,0,1,23.39-12.86c14.21-2.14,28.68-2.79,42.89,1.48,18.55,5.57,27.8,19,29,37.08.81,12.25.16,24.59.16,36.9Zm-41-.27h.08q0-15.89,0-31.77c0-1.05-.07-2.12-.17-3.17-.58-6.55-5.71-12.29-11.24-12.6-5.9-.32-11.36,4.31-11.89,11.49-.91,12.41-1.37,24.88-1.42,37.33,0,11.35.22,22.75,1.31,34,.81,8.46,4.3,10.53,12.94,10,7.13-.45,10.12-3.46,10.32-11.61C1487,915.79,1486.81,904.56,1486.81,893.34Z"/><path class="cls-1" d="M2205.14,963.74h-39.77V820.57h37.41c.23,4.62.45,8.94.73,14.48a26.53,26.53,0,0,0,2.17-2.38c7.1-11.32,17.05-17,30.66-15.87,12.79,1.06,23.5,5.61,29.19,17.83a30.06,30.06,0,0,1,2.48,12.25c.19,36.89.07,73.78.2,110.67,0,4.91-1.58,6.75-6.65,6.56-9.54-.34-19.11-.26-28.66,0-4.85.12-6.57-1.43-6.54-6.56.24-31.8.16-63.61.1-95.41,0-8.91-4-12.54-11.9-11.38-5.46.8-8.8,4.82-8.84,11.27-.12,15.69-.06,31.38-.07,47.07q0,25.75,0,51.52A25,25,0,0,1,2205.14,963.74Z"/><path class="cls-1" d="M2128.17,694.29c-6.23,8.44-11.57,15.47-20.61,17.48-18.7,4.16-43.77-3-43.49-29.37.38-36.91.24-73.83,0-110.74,0-6.18,1.77-8.09,7.9-7.71a200.43,200.43,0,0,0,25.47,0c6.39-.41,8.34,1.42,8.27,8-.36,31-.14,62-.13,92.92,0,1.28,0,2.55.06,3.82.42,6.52,3.47,10,9.06,10.27a11.14,11.14,0,0,0,11.5-9.7,58.81,58.81,0,0,0,.35-7.63c0-30.12.17-60.25,0-90.38,0-5.43,1.29-7.59,7.09-7.32,9.54.44,19.12.23,28.68,0,3.79-.08,5.26,1.13,5.25,5.06q-.12,66.84,0,133.67c0,3.84-1.37,5.3-5.22,5.23-8.49-.17-17-.28-25.49,0-5.55.21-8.58-1.27-7.82-7.42C2129.19,699.06,2128.61,697.42,2128.17,694.29Z"/><path class="cls-1" d="M1985.06,195V169.69c0-25.45.06-50.9-.07-76.36,0-9.74-5.36-13.82-14.24-11.51-5.51,1.43-7.1,5.43-7.11,10.51q0,22.59-.07,45.18c0,17-.16,33.94,0,50.9.06,5-1.64,6.79-6.64,6.64-9.55-.27-19.12-.22-28.67,0-4.36.09-6-1.44-6-5.88q.17-66.18,0-132.36c0-4.52,1.8-5.85,6.11-5.71,8.28.26,16.58.36,24.84,0,5.72-.27,8.45,1.47,7.76,7.5-.18,1.52.53,3.14,1,5.75,6.85-8.48,13.51-15.84,23.94-16.92,17.58-1.83,40.54,6.84,40.06,31.05-.73,36.47-.31,73-.06,109.45,0,5.59-1.42,7.41-7.08,7.2C2008,194.69,1996.94,195,1985.06,195Z"/><path class="cls-1" d="M1186.89,920.74h36.68c1.43,4.73,2.33,9.26,4.15,13.39,2.77,6.29,7,7.78,16,6.9,5.11-.51,8.17-3.54,9.41-8,1.95-7.08,0-12.64-6.08-15.77-10.47-5.34-21.48-9.61-31.93-15-12.09-6.22-22.71-14.48-26.6-28.25-6.79-24.06,1.75-45.13,24.63-53.16,19.35-6.78,39.56-6.88,58.54,3.17,14.55,7.72,20.43,21.24,19.81,35.89,0,1.34-2.34,3.67-3.63,3.71-11.23.29-22.46.17-33.7.17-1.15-4.49-2.21-8.48-3.18-12.5-1.39-5.73-5.78-7.6-10.87-8s-10.14,1.49-12,6.52-2.34,10.95,2.84,14.51c5.51,3.8,11.69,6.64,17.6,9.85,10.34,5.63,21.66,10,30.83,17.13,13.91,10.83,16.87,26.14,13.17,43.26-4,18.59-16.22,27.86-33.69,32.11s-34.79,3.56-51.34-3.54C1192.3,956.62,1184.07,939.29,1186.89,920.74Z"/><path class="cls-1" d="M1300.15,920.47c11.44,0,23.06-.1,34.67.15,1.27,0,3,1.86,3.63,3.26.94,2.07,1,4.51,1.58,6.77,1.51,6.35,5.77,10.15,11.71,10.47,9.29.5,12.85-1.49,15.56-8.7,2.35-6.26-.28-12.36-7.6-16-9.8-4.83-20-8.94-29.72-13.84-11.3-5.67-21.21-13.1-26.54-25.12-9.74-22,.48-50.47,26.42-57.53,17.79-4.84,35.51-5.32,52.74,2.45,15.39,6.94,22.21,19.39,22.8,35.83.14,4.09-1.38,5.73-5.55,5.63-8.28-.21-16.59-.49-24.84,0-6.3.39-8.45-1.76-8.88-8-.73-10.68-9.48-15.39-19-10.92-8,3.77-10,13.44-3,19,5.34,4.26,12,6.92,18.14,10.09,9.21,4.75,19,8.6,27.66,14.11,16.57,10.49,19.07,27.09,16.72,44.77-2,15.07-10.91,25.56-25,30.87-21,7.9-41.74,7.33-62.55-2C1306.39,956.07,1297,934.41,1300.15,920.47Z"/><path class="cls-1" d="M1851.33,637.25c0-12.09-.66-24.22.15-36.26,1.47-22,9.82-33.18,29.74-38.6,8.78-2.39,18.6-2.08,27.83-1.39a98.13,98.13,0,0,1,24.42,5.43c10.52,3.64,16.88,12.1,19.48,22.56,1.92,7.71,2,15.88,2.79,23.87.32,3.43-1.5,4.86-5,4.81q-14.34-.21-28.68,0c-4.3.07-6.25-1.86-6.4-6-.12-3.39-.18-6.79-.45-10.17-.58-7.3-5.21-12-11.49-11.87s-11,5-11.43,12.13c-.21,3.17-.09,6.36-.09,9.54,0,19.52-.07,39,.07,58.55,0,7.23,4.07,11.85,10.15,12.44,7.4.72,11.37-1.95,13.14-9.61a75.38,75.38,0,0,0,1.92-14.34c.33-9.75.13-9.78,9.92-9.79,7.65,0,15.3.24,22.94,0,4.56-.12,6.92,1.45,6.44,6.21-1,9.67-.84,19.62-3.22,28.94-3.74,14.71-14.17,23.37-29.11,26.73a93.49,93.49,0,0,1-44.06-.24c-13.15-3.34-23.69-11.21-26.21-24.51-3-15.84-3-32.24-4.29-48.4Z"/><path class="cls-1" d="M1281.25,380.93c0-12.08-.38-24.18.1-36.25.66-16.47,7-30.14,23.08-36.72,12.57-5.15,25.93-5.34,39.43-3.56,11.85,1.57,22.8,4.58,31,13.91,10.15,11.53,11,25.68,10.81,40,0,1-2.48,2.87-3.84,2.9-10.61.25-21.24.31-31.84,0-1.49-.05-3.85-2.44-4.17-4.06-.76-3.91-.3-8-.77-12-.86-7.37-5.44-11.62-11.89-11.45s-10.82,4.49-10.89,12.14c-.2,22.68-.28,45.36.06,68,.13,8.67,4.6,12,12.94,12,5.42,0,8.66-3,9.66-7.52a97.89,97.89,0,0,0,2.17-19.4c.09-4.27,1.1-6.45,5.59-6.42,9.77.07,19.54-.13,29.29.23,1.63.06,4.55,2.44,4.53,3.72-.13,13.29.24,26.69-6.34,39-4.94,9.24-13.06,14.83-22.53,17.25-18.05,4.61-36.41,5.78-54.18-1.76-13.44-5.71-21.06-16.21-21.93-30.6-.8-13.1-.17-26.28-.17-39.42Z"/><path class="cls-1" d="M1666.22,124.42c0-11.88-.1-23.75,0-35.63.13-12.31,3.53-23.77,13.47-31.39,5.61-4.3,13-7,20-8.67,14.22-3.35,28.53-2,42.56,2.08,14.92,4.34,23.41,14.58,26.53,29.38,1.26,6,1.54,12.19,2.12,18.31.42,4.48-1.55,6.58-6.31,6.48-9.34-.19-18.69-.15-28,.06-4.43.1-6-1.8-6.14-6-.14-4.62-.22-9.4-1.48-13.77-1.61-5.59-5.76-9-12-8-6,1-9.29,5-9.58,11-.37,7.83-.34,15.69-.33,23.54,0,15.48-.08,31,.28,46.44.17,7.48,5,11.39,12.35,11.41,6.12,0,9.52-3.49,10.57-8.88a129.89,129.89,0,0,0,1.9-18.29c.2-3.81,1.2-6,5.47-6,9.77.12,19.55-.11,29.31.24,1.64,0,4.61,2.3,4.59,3.5-.2,13.92.27,28-7.38,40.64A34.47,34.47,0,0,1,1740.2,197c-10.5,2-21.49,3.23-32.09,2.42-15.59-1.19-30.54-5.66-37.73-21.76a48.15,48.15,0,0,1-4-17c-.59-12.07-.18-24.18-.18-36.27Z"/><path class="cls-1" d="M1823,380.29c0-12.1-.26-24.19.06-36.28.58-21.71,14.55-36.64,36.08-39.39,15.81-2,31.27-1.65,46.05,5.16,10.72,4.94,17.17,13.67,20.07,24.62,1.82,6.87,1.81,14.24,2.52,21.4.4,4-1.38,5.73-5.57,5.63-9.34-.2-18.69-.27-28,0-5.11.14-6.84-2.24-6.83-6.86A84.34,84.34,0,0,0,1887,345c-.82-7.49-5.08-11.5-11.81-11.39-6.53.1-11,4.59-11.18,12-.29,11.24-.31,22.48-.31,33.73,0,11.66,0,23.33.35,35,.19,7.1,3.88,10.94,10.09,11.42,7.94.61,11.67-1.78,13.18-9.47a100.76,100.76,0,0,0,1.87-17.57c.08-4.19.86-6.34,5.58-6.23q14.33.34,28.68,0c4-.09,5.54,1.77,5.2,5.3-1,10.51-.85,21.42-3.76,31.41-3.78,13-14.3,20.69-27.28,24a94.39,94.39,0,0,1-44.62.42c-16-3.56-29.24-17.53-29.85-33.89-.48-13.14-.09-26.3-.09-39.45Z"/><path class="cls-1" d="M1618,873.9c-.85-6-1.58-11.26-2.33-16.49-.93-6.44-5-11.21-9.86-11.6-5.52-.44-12.11,3.82-12.33,10.36-.81,23.67-.92,47.38-.59,71.07.08,5.36,2.87,10.68,9.94,11.28,9,.77,14.3-3.82,15-13.72a136,136,0,0,0,0-14c-.14-3.74,1.22-5.4,5.14-5.34,10,.15,20,0,29.94,0,3.53,0,5.88,1.5,5.37,5.36-1.37,10.2-2.24,20.53-4.54,30.53-3.19,13.9-13.6,21.79-26.67,24.57a125.23,125.23,0,0,1-34.53,2.57c-23.77-1.71-40-13.77-40.75-40.87-.62-22.67-.86-45.41,0-68.06.9-22.39,10.28-40.25,40-42.46,14.26-1.06,28.23-.8,41.7,5.1,14.67,6.42,20.25,18.74,22.44,33.29a58.71,58.71,0,0,1,.19,14c-.15,1.56-2.39,4.15-3.74,4.19C1641.16,874,1629.94,873.9,1618,873.9Z"/><path class="cls-1" d="M2026.76,523.2c0,11.74.32,22.72-.13,33.68-.23,5.69,1.6,7.77,7.2,7.27,3.77-.34,7.59-.07,11.93-.07V594.2c-4.15,0-8.13.22-12.08-.05-4.83-.33-6.91,1.43-6.9,6.48.08,21.83-.77,43.7.12,65.5.43,10.6.8,13.73,12.95,12.84,4.85-.36,6.93,1,6.55,6.3-.46,6.54-.14,13.14-.18,19.71a18,18,0,0,1-.48,2.43c-14,3.64-28.32,5.24-42.13,0-15.29-5.78-17.81-19.79-18.1-33.94-.41-20.14-.11-40.29-.11-60.43,0-1.06,0-2.12,0-3.18-.2-4.84,1.24-10.93-1.17-14.1-1.93-2.55-8.54-1.55-13.79-2.22V564.1c3,0,6.07-.23,9.14,0,4.35.4,6-1.07,5.89-5.65-.3-10,0-19.93-.07-29.9,0-3.06.34-5.46,4.31-5.43C2001.58,523.25,2013.45,523.2,2026.76,523.2Z"/><path class="cls-1" d="M1646.08,594.19c-4.48,0-8.09.33-11.6-.14-1.67-.22-4.44-1.9-4.49-3-.37-8.79-.21-17.6-.21-26.91h6.68c9.54-.06,9.77-.07,9.54-9.87-.21-9,.73-17.77,5.66-25.46s12.56-11.53,21.17-12.22c10.24-.81,20.59-.19,31.56-.19,0,8.35.27,16.58-.23,24.76-.1,1.59-3,3.52-4.93,4.34-1.83.76-4.18.2-6.3.27-4.42.15-6.53,2.26-6.23,6.85.23,3.54,0,7.11,0,11.48h17.6c0,9.22.25,17.64-.24,26-.09,1.46-3.19,3.58-5.15,3.92-3.67.63-7.53.18-12.23.18v8.07c0,33.08-.1,66.17.11,99.25,0,5-1.38,6.7-6.44,6.51-9.34-.35-18.7-.33-28,0-5.06.19-6.47-1.56-6.44-6.53.21-33.09.13-66.17.15-99.26Z"/><path class="cls-1" d="M1927.84,820.08h18.45c0,9.51.19,18.52-.24,27.51,0,1.07-3.39,2.72-5.3,2.86-12.85.95-12.89.84-12.89,13.55,0,20.37,0,40.75.06,61.12,0,9.1,1.82,11,11,10.25,6.38-.51,8.33,1.73,7.67,7.81a52.9,52.9,0,0,0,.05,12.7c.82,6.13-1.6,9.57-7.54,9.53-11.12-.06-22.52.68-33.29-1.48-12.34-2.49-18.76-11.66-19-24.3-.47-26.31-.35-52.62-.42-78.93,0-9.86,0-10.18-9.54-10-6,.12-7.9-2.11-7.47-7.87a140.68,140.68,0,0,0,0-17.18c-.21-4.28,1.64-5.41,5.62-5.51,11.39-.27,11.39-.41,11.39-11.78,0-7.85.15-15.7,0-23.55-.1-4,1.13-5.7,5.44-5.6,10.19.26,20.4.23,30.59,0,4.19-.09,5.56,1.46,5.49,5.56C1927.71,796.21,1927.84,807.64,1927.84,820.08Z"/><path class="cls-1" d="M2018.15,307.59c0,9.51.14,18.16-.15,26.8,0,1.24-2.1,2.5-3.37,3.59-.38.33-1.23.12-1.86.16-14.16.85-14.21.85-14.26,15.4q-.1,28,0,56c0,11.2,2,13.47,12.79,13,5.83-.23,7.4,1.78,7.07,7.24-.4,6.74-.09,13.53-.09,20.39a68,68,0,0,1-35.55,2.51c-17.27-3.35-25.18-11.86-25.57-33-.46-24.6-.34-49.21,0-73.82.07-6-1.52-8.82-7.77-7.77-6.53,1.11-8.64-1.68-8.18-8.1.51-7.13.11-14.32.11-22.41,4,0,7.34-.17,10.64,0,3.9.25,5.24-1.38,5.18-5.2-.17-9.75.13-19.52-.13-29.27-.12-4.57,1.24-6.51,6.08-6.38,10,.26,20,.21,30,0,4.15-.08,5.63,1.46,5.55,5.56-.18,9.76.09,19.52-.1,29.27-.08,4.36,1.49,6.24,5.93,6S2013.15,307.59,2018.15,307.59Z"/><path class="cls-1" d="M1615.26,338.09c-4,0-7.24.5-10.22-.17-2-.44-4.94-2.49-5-4-.48-8.41-.23-16.87-.23-26l15.52-.77V267.29h40.79v40.33c5.41,0,10,.11,14.59,0,3.9-.11,5.86,1.12,5.64,5.48-.31,6.13-.27,12.3,0,18.44.17,4.66-1.86,6.35-6.36,6.61-13.56.77-13.55.89-13.55,14.68,0,19.52,0,39,0,58.54,0,8.73,2.73,11.32,11.39,11.36,8.4,0,8.42,0,8.47,8.49,0,6.13,0,12.26,0,19-15,4.06-29.84,5.63-44.31-.13-12.9-5.13-16.55-16.55-16.6-29.36-.11-25.24,0-50.48-.06-75.72Z"/><path class="cls-1" d="M2422.18,258.78v183c0,9.29,0,9.3-9.45,9.31-8.71,0-17.42-.13-26.12,0-4.16.07-6.07-1.05-6.06-5.73.13-60.24,0-120.48.26-180.72,0-2,2.48-5.58,3.91-5.63C2397,258.59,2409.25,258.78,2422.18,258.78Z"/><path class="cls-1" d="M2405.66,564.45h37.89c.26,4.78.51,9.29.73,13.38,6-5.16,11.51-10.58,17.75-14.91,2.62-1.82,6.84-1.66,10.34-1.69,1,0,3,2.37,3,3.69.26,12.3.33,24.6,0,36.89,0,1.23-2.71,3.22-4.33,3.42-3.54.43-7.24-.53-10.77-.12-10.34,1.2-13.88,5.36-13.85,14.35.11,26.72,0,53.44,0,80.17,0,8.13-.07,8.28-8.08,8.3-9.34,0-18.69-.08-28,.05-3.65,0-5.5-1.11-5.49-5.05q.13-67.75.16-135.5A17.61,17.61,0,0,1,2405.66,564.45Z"/><path class="cls-1" d="M2231.27,579.13c.89-1.23,1.83-2.42,2.68-3.67,5.23-7.78,11.58-13.78,21.62-14.57,4.39-.35,6.19,1.17,6.11,5.66-.18,10.81-.28,21.63,0,32.43.14,5.08-1.46,6.56-6.59,6.41a54.44,54.44,0,0,0-16.1,2.07c-2.22.63-4.81,3.82-5.22,6.19a126,126,0,0,0-1.84,20.8q-.2,32.74.3,65.5c.09,5.82-1.3,8.46-7.76,8.1-9.31-.52-18.67-.24-28-.08-4.39.08-5.91-1.66-5.9-6q.16-65.82,0-131.65c0-5.34,2.18-6.4,6.82-6.27,8.49.24,17,.4,25.47,0,5.5-.29,7.21,1.84,6.71,6.92a74.42,74.42,0,0,0,0,7.47Z"/><path class="cls-1" d="M2200.58,324.08c6.28-6.08,12.11-11.85,18.11-17.45a9.5,9.5,0,0,1,4-1.72c9.45-2.55,10.66-1.61,10.67,8.13,0,10-.17,19.93.07,29.89.11,4.64-1.32,6.61-6.21,6.17-17.63-1.59-24,1.1-23.3,23.37.81,24.14.13,48.33.25,72.5,0,4.61-1.59,6.35-6.35,6.2-9.75-.31-19.53-.18-29.29-.05-4.1.06-6.07-1-6.05-5.73.15-44.1.05-88.2.24-132.3,0-1.8,2.2-5.11,3.46-5.16,11.19-.41,22.4-.24,34.36-.24Z"/><path class="cls-1" d="M1194.29,307.67c11.58,0,22.8-.15,34,.2,1.39,0,3.56,2.59,3.86,4.25.6,3.42.18,7,.18,11.69,4.9-5.6,8.67-10.11,12.69-14.38a15.86,15.86,0,0,1,5.2-3.47c10.85-4.74,13.3-3.14,13.3,8.46,0,9.33-.22,18.67.09,28,.17,5.14-1.15,7.61-6.78,6.62a36.84,36.84,0,0,0-8.27-.09c-9,.46-13.29,4.49-13.48,13.37-.28,13.36-.18,26.72-.2,40.09,0,14-.17,28,.08,42,.08,4.86-1.34,6.88-6.45,6.76-11.23-.27-22.46-.08-34.22-.08Z"/><path class="cls-1" d="M1545,51.18c.3,5.78.56,10.91.76,14.88,5.86-5.36,11.49-11.12,17.8-16,2.64-2,6.7-2.55,10.21-3,1.1-.12,3.58,2.34,3.6,3.65.23,12.72.21,25.45-.17,38.16,0,1.35-2.68,3.5-4.34,3.74-3.52.5-7.2-.17-10.8-.06-9.21.3-14,5.12-14.08,14.24-.08,26.52,0,53,0,79.55v8.48c-13,0-25.46.08-37.89-.14-1,0-2.37-1.9-2.88-3.19s-.15-2.93-.15-4.42c0-42.85.08-85.7-.12-128.55,0-5.63,1.19-7.88,7.35-7.55C1524.37,51.58,1534.53,51.18,1545,51.18Z"/><path class="cls-1" d="M1637.82,51.18v143.2h-40c-.11-1.91-.32-3.94-.33-6,0-43.48.07-87-.1-130.45,0-5.09,1.13-7.12,6.66-6.91C1615,51.48,1626,51.18,1637.82,51.18Z"/><path class="cls-1" d="M1967.54,892.53c0-22.06.12-44.13-.1-66.19,0-4.74,1.44-6.35,6.18-6.21,9.77.28,19.55.21,29.32,0,3.94-.08,5.77,1,5.76,5.3q-.17,66.51,0,133c0,4.06-1.29,5.69-5.5,5.6q-15-.32-30,0c-4.48.1-5.82-1.6-5.78-6C1967.64,936.24,1967.54,914.39,1967.54,892.53Z"/><path class="cls-1" d="M1722.55,820.21V964h-24c-16.49,0-16.49,0-16.49-16.14,0-40.05.12-80.1-.12-120.15,0-5.78,1.48-7.86,7.45-7.62C1700.17,820.51,1711,820.21,1722.55,820.21Z"/><path class="cls-1" d="M1540.17,307.93H1581V451c-12.65,0-25.11.17-37.54-.27-1.16,0-3.09-3.89-3.12-6-.23-21.84-.14-43.68-.14-65.52V307.93Z"/><path class="cls-1" d="M1988.82,771.6c4.87,0,9.74.14,14.61,0,3.67-.14,5.45,1,5.37,5-.16,8.24,0,16.49,0,24.73,0,3.91-1.54,5.79-5.69,5.72-10-.15-19.9-.09-29.85,0-3.94,0-5.82-1.7-5.77-5.73.1-8.25.18-16.5,0-24.74-.07-3.54,1.2-5,4.77-4.88,5.5.15,11,0,16.51,0Z"/><path class="cls-1" d="M1581.45,258.74c0,11,.16,21.16-.19,31.27,0,1.42-2.64,3.89-4.12,3.93-10.8.34-21.61.37-32.41,0-1.56-.06-4.27-2.77-4.35-4.36-.42-8.87-.38-17.77,0-26.64.06-1.45,2.48-4,3.86-4C1556.25,258.6,1568.3,258.74,1581.45,258.74Z"/><path class="cls-1" d="M1618.25,2.61c4.88,0,9.77.15,14.65-.06,3.71-.15,5.39,1,5.28,5-.24,8.48-.13,17,0,25.45,0,3.47-1.36,5-4.92,4.94-10.41-.11-20.82.16-31.22-.23-1.57,0-4.28-2.76-4.36-4.33-.42-8.89-.37-17.82,0-26.71.06-1.41,2.53-3.75,4-3.88C1607.18,2.33,1612.72,2.62,1618.25,2.61Z"/><path class="cls-1" d="M1722.71,771.71c0,11,.14,21.38-.18,31.7,0,1.22-2.57,3.34-4,3.38-10.4.29-20.82.43-31.2-.09-1.84-.09-4.88-3.38-5-5.35a215.79,215.79,0,0,1-.1-24.79c.08-1.67,2.36-4.6,3.69-4.64C1697.94,771.56,1710,771.71,1722.71,771.71Z"/><path class="cls-1" d="M826.54,116.8c0-17.19,12.35-29.4,29.76-29.47a29.25,29.25,0,0,1,29.58,29.13c0,17.29-12.55,29.75-30,29.72S826.52,134.18,826.54,116.8Zm29.3,24.39c12.92.11,24.38-11.53,24.37-24.73,0-12.7-11.61-23.84-24.81-23.86-12.32,0-23.17,11.16-23.2,23.88C832.18,130.1,842.69,141.08,855.84,141.19Z"/><path class="cls-1" d="M867.81,134.14c-1.66-1-3.75-1.7-4.88-3.13-2.06-2.62-3.26-5.91-5.38-8.47-1.3-1.58-3.62-2.31-5.49-3.42-.8,1.72-2,3.38-2.31,5.19-.42,2.25.06,4.67-.31,6.94a3.31,3.31,0,0,1-2.41,2.12,3.15,3.15,0,0,1-2.33-2.12c-.18-9.51-.24-19,0-28.54,0-1,2.06-2.86,3.2-2.9,5.06-.14,10.25-.33,15.19.58,6.9,1.27,9.84,11.3,4.15,15.32s-3.87,7.13-.93,11.17a48,48,0,0,1,3,5.37Zm-11.3-32c-3.09,2.89-5.9,4.32-6.57,6.43-1.09,3.38.36,6.38,4.85,5.64,3.38-.56,8.68,1,8.38-4.75C863.07,107.31,859.6,105.35,856.51,102.11Z"/></g></g></svg>