<svg xmlns="http://www.w3.org/2000/svg" viewBox="0 0 705.09 969.37"><defs><style>.cls-1{fill:#5e5e5e;}</style></defs><title>logo-nfrc</title><g id="Layer_2" data-name="Layer 2"><g id="Layer_1-2" data-name="Layer 1"><path class="cls-1" d="M705,351.35V702.93H361.9V495.77c83.64-12.25,130.21-60.43,141.27-144.42ZM402.63,567.48l21.7-66.18,57.56,32.36c-1.77-23.7-3.46-46.24-5.19-69.44l65.87,6.43C532,449.23,522,429,511.79,408.33L575,390.71c-11.69-9.88-22.49-18.41-32.55-27.74-5.51-5.11-11.23-7.09-18.52-6.53-3.56.27-5.25,1-5.25,4.87a58.8,58.8,0,0,1-1.1,10.48q-16.06,87.36-96.09,126a148.39,148.39,0,0,1-50.2,13.61c-1.78.18-4.9,1.39-4.94,2.25-.26,4.77-1.43,9.63,2.61,14,6.07,6.56,11.43,13.78,17.19,20.64C391.34,554.47,396.68,560.56,402.63,567.48ZM630.24,455.86l.42-1.29c-13-11.8-26-23.64-39.12-35.32a7.81,7.81,0,0,0-4.84-1.44c-13.11,0-26.22.11-39.33.24a47.7,47.7,0,0,0-4.81.61c8.18,10.91,15.69,21,23.38,31,.71.93,2.5,1.3,3.83,1.42Q592,453,614.19,454.8C619.53,455.23,624.89,455.51,630.24,455.86ZM433,528.14c-.28,1.83-.5,2.72-.54,3.62-.35,10.39-.56,20.79-1.08,31.17a11,11,0,0,0,4,9.57c9.27,8.35,18.25,17,27.36,25.56,5,4.72,10.12,9.41,16,14.84a29.8,29.8,0,0,0,0-3.22c-2.55-16.08-5-32.18-7.78-48.23a11,11,0,0,0-3.17-6.06c-6.65-5.75-13.56-11.21-20.47-16.64C442.75,535.25,438.12,532,433,528.14Zm67.72-45.39c.46,2.54.56,3.63.85,4.68,2.79,10,5.74,20,8.34,30a8.73,8.73,0,0,0,5.12,6.3c12.39,6,24.67,12.18,37,18.24,5.46,2.67,11,5.19,17.4,8.2a27.47,27.47,0,0,0-1-3.43c-7.62-15.14-15.22-30.3-23-45.36-.7-1.35-2.51-2.39-4-3-7.68-3.18-15.41-6.23-23.17-9.23C512.71,487.06,507.19,485.13,500.67,482.75Zm124.38-85.12a10.19,10.19,0,0,0-10.39-10.24,10.37,10.37,0,0,0-10,10.66c.19,5.77,4.35,9.76,10.21,9.76C621,407.81,625.11,403.7,625.05,397.63Zm-60.36,92.64c-.06,6.21,4.1,10.64,9.92,10.58a10.17,10.17,0,0,0,9.86-10.3,9.74,9.74,0,0,0-9.83-10.16C568.77,480.32,564.74,484.33,564.69,490.27ZM494.83,563a10,10,0,0,0,10,10.09,10.2,10.2,0,0,0,10.45-10.17A9.94,9.94,0,0,0,505,553.14C499.15,553.18,494.88,557.32,494.83,563ZM419.44,595.3c0-5.9-4-10.16-9.68-10.23-5.93-.08-10.22,4.27-10.16,10.33a10.13,10.13,0,0,0,10,10.11A10,10,0,0,0,419.44,595.3Z"/><path class="cls-1" d="M4,526.94q0-85.28-.09-170.55C3.9,352.21,5,351,9.27,351q95.37.19,190.73,0c5,0,5.31,2.31,5.61,6,3.51,42.37,21.68,77.44,54.27,104.41a143.77,143.77,0,0,0,84.82,33.36c4.42.26,5.94,1.45,5.93,6.1q-.21,98.49,0,197c0,4.12-1,5.52-5.33,5.51q-167.91-.16-335.81,0c-4.77,0-5.43-1.74-5.43-5.84q.17-85.28.08-170.55Zm113.74-7,.92,1.34L232.52,470l1.06,1.08L191.9,590.71l1.46,1,93.89-88.17c2.37,46,4.66,90.31,6.95,134.64l1.32.08c.65-1.24,1.37-2.45,1.93-3.74,14.37-33.35,28.85-66.65,43-100.11,1.91-4.54,2.54-9.81,2.82-14.79.44-7.54.1-7.64-7.42-8.37-31.67-3.06-59.9-15.08-84.51-34.7-36.47-29.08-57.22-67.33-62.64-113.78-.18-1.51-1.26-4.17-1.91-4.17-6.45,0-13-1.78-19.26,1.69Q119.87,386.73,72.14,413c-1.3.73-2.5,1.64-3.75,2.46l.31,1.23,129.78-2Z"/><path class="cls-1" d="M704.14,339.32h-5.48q-95.61,0-191.23.09c-4.3,0-5.53-1.14-5.91-5.5A147.4,147.4,0,0,0,468,251.62c-26.42-32.28-60.93-49.38-102.13-53.65-1.24-.13-2.48-.34-4-.55V0C535.92-1.76,700.16,147.39,704.14,339.32ZM512.52,277.46l33.31-56.87-69.55,3.89c2.56-22.09,5-43.43,7.63-65.75l-63,29.81c-5.38-21.24-10.6-41.84-16-63.09-1.56,1.47-2.4,2.19-3.16,3-10,10.4-19.57,21.19-30.05,31-5.72,5.4-5.17,11.65-4,17.62.38,2,6.22,2.9,9.6,4.22a16.75,16.75,0,0,0,3.26.72c32.44,5.54,61,19.38,85,41.7,30.78,28.65,48.8,64.08,53.17,106.17.14,1.34,1.29,3.69,1.93,3.68,5.89-.13,12,1.92,17.43-2.71,6-5.06,12.56-9.37,18.87-14,6.78-5,13.54-10,21.41-15.87Zm-77-118.14,1.6.79c9.09-6.76,18.08-13.65,27.32-20.18,3.23-2.29,4.48-5,4.78-8.75,1.05-13.54,2.4-27.07,3.56-40.61.5-5.71.83-11.44,1.28-17.9a18.52,18.52,0,0,0-2.21,1.53c-11.44,12.3-22.94,24.55-34.22,37a9.88,9.88,0,0,0-2,6c-.19,11.36-.1,22.74-.1,34.11ZM540,270.79a11.46,11.46,0,0,0,2.47,1.26c11.31,2,22.6,4.15,34,5.88a8.9,8.9,0,0,0,6-1.85c14-10.88,27.88-22,41.79-33,1.78-1.41,3.6-2.76,5.39-4.13-14.35-.83-27.62-.16-40.79-1-11-.73-19.53,2.3-26.06,11.12a19,19,0,0,1-2.43,2.3Zm-43.9-62.68c3-.68,4.64-1,6.28-1.46,8.94-2.47,17.81-5.19,26.81-7.38,4.31-1.05,6.75-3.21,8.61-7.25,6-13.07,12.49-25.93,18.71-38.91,2.15-4.47,4-9,6.07-13.57a10.48,10.48,0,0,0-5.38,1.32c-11.24,5.77-22.26,12-33.78,17.2-7.74,3.45-12.44,8.26-14.91,16.5C505.18,185.54,500.58,196.12,496.07,208.11Zm121.74,75.11a10,10,0,0,0-10.34,10.23,10.43,10.43,0,0,0,10,10.28,10,10,0,0,0,10.44-10.18C628,287.5,623.82,283.23,617.81,283.22ZM505.16,138a10.13,10.13,0,0,0,10.08-10,9.74,9.74,0,0,0-10.15-9.83c-6,0-10.19,4-10.26,9.67A9.91,9.91,0,0,0,505.16,138Zm62.38,59.73c0,5.92,4.06,10.13,9.79,10.17a10.07,10.07,0,0,0,10-10.1c0-5.86-4.11-10.28-9.71-10.38C571.7,187.32,567.54,191.54,567.54,197.73ZM398.25,93.29a9.81,9.81,0,0,0,9.83,10.21,10.07,10.07,0,0,0,10.13-10A10.4,10.4,0,0,0,408,82.93,10.11,10.11,0,0,0,398.25,93.29Z"/><path class="cls-1" d="M3.85,338.81c.78-9.74,1.28-19.13,2.35-28.45A336.94,336.94,0,0,1,20,245.76,352.33,352.33,0,0,1,186.26,43.39c41.05-22.74,85-35.74,131.47-40.88,9.68-1.08,19.49-1,29.23-1.66,2.84-.18,3.62,1,3.59,3.61-.09,8.65,0,17.29,0,25.94q0,80.22,0,160.44c0,6.61,0,6.36-6.43,6.93-55.08,4.95-96.05,31.55-122.27,80.33a138.57,138.57,0,0,0-16.18,56.35c-.22,3.16-1.07,4.9-4.8,4.9q-96.79-.15-193.58-.11C6.49,339.24,5.71,339.05,3.85,338.81Zm59.47-55.45L63.08,285c6.2,2.87,12.36,5.86,18.62,8.6,28,12.25,56.08,24.29,84,36.74a40.06,40.06,0,0,0,18.63,3.26c2.85-.12,4.13-1,4.49-4.15,2.44-21.83,8.38-42.56,19-61.94,22.53-40.94,56.3-67.88,100.9-81.13,10-3,20.68-3.95,31-6.07,1.55-.32,4.06-1.81,4.08-2.81.17-6.61,1.14-13.16-2.41-19.62C324.07,126.34,307.09,94.59,290,62.93c-.7-1.29-1.62-2.46-2.44-3.68l-.83.39V188.92L182.81,107.79,181.48,109q25.11,57,50.24,114.09l-1.16,1-118.91-42.6-1.05,1.44c28.74,31.22,57.49,62.44,87,94.54Z"/><path class="cls-1" d="M705.09,962.53v6.84H.34v-6.84Z"/><path class="cls-1" d="M352.64,936.32H699c1.12,0,2.49-.38,3.3.12,1.21.74,2.81,2.12,2.8,3.21s-1.63,3.12-2.73,3.26a84.23,84.23,0,0,1-10.55.2q-342.25,0-684.51-.08C4.64,943,0,945.22,0,939.72s4.65-3.3,7.26-3.3Q179.94,936.24,352.64,936.32Z"/><path class="cls-1" d="M387.38,347.42c5,7.82,9.75,15.35,14.67,22.76.73,1.11,2.33,1.6,3.4,2.54a15,15,0,0,1,1.81,2.34c-.92.45-1.82,1.23-2.75,1.28-2.87.18-5.85.49-8.61-.06-2-.4-4.48-1.65-5.53-3.3-4.4-6.85-8.16-14.11-12.56-21-1-1.62-3.65-2.24-5.53-3.31-.73,1.69-1.95,3.34-2.09,5.07-.32,4-.09,8-.11,12,0,3.59.33,6.81,4.92,7.4.58.07,1,1.22,1.54,1.86-.71.47-1.41,1.33-2.13,1.34-6.72.1-13.44.11-20.16,0-.8,0-1.57-1.08-2.36-1.65.65-.54,1.23-1.43,2-1.57,3.81-.74,4.69-3.33,4.68-6.7q0-20.64,0-41.29c0-3.45-.58-6.35-4.8-7.08-.84-.14-1.45-1.61-2.17-2.46l.66-1.47c12.09.52,24.24.55,36.26,1.73,8.31.82,13.26,6.54,13.9,13.64.65,7.26-3.64,13.42-11.39,16.37C390,346.25,389,346.72,387.38,347.42Zm-17.3-15.62h0c0,3-.18,6.1.09,9.11.1,1.17,1.13,3.13,1.89,3.21,5.11.51,10.42.95,14.39-3.28a13.32,13.32,0,0,0,3-14.25c-2.05-6-8.82-9.29-16.37-7.46-5.28,1.28-2.18,6.12-2.94,9.32A15,15,0,0,0,370.08,331.8Z"/><path class="cls-1" d="M239.11,327.12c0,13.75-.13,27.5.17,41.24,0,1.56,2.39,3.12,3.77,4.59a16.49,16.49,0,0,0,2.35,1.75c-.81.57-1.61,1.6-2.44,1.63-4.31.16-8.64.13-13,0-.71,0-1.38-.95-2.07-1.47.58-.61,1.08-1.63,1.75-1.75,3.71-.7,4.31-3.29,4.3-6.42q0-21.12,0-42.24c0-3.1-.53-5.69-4.3-6.41-.84-.16-1.42-1.66-2.81-3.42,6.29,0,11.25-.24,16.16.15,1.47.12,3.24,1.75,4.14,3.15,8.46,13.19,16.75,26.47,25.12,39.72a23.57,23.57,0,0,0,1.74,2.14c.43-.29.89-.45.89-.62.11-12.14.35-24.29.05-36.42,0-1.56-2.87-3.06-4.42-4.58l-2.06-2c.82-.51,1.63-1.45,2.47-1.47,4.94-.14,9.88-.07,16.09-.07-1.23,1.74-1.74,3.28-2.54,3.45-4,.86-4.24,3.64-4.23,6.91.07,15.52.1,31-.05,46.56,0,1.92-.67,5-1.86,5.49-2.86,1.15-5.78.42-7.77-2.75-7.4-11.78-15-23.45-22.47-35.17q-4-6.24-8-12.5Z"/><path class="cls-1" d="M314.93,347.62c0,6.92.05,13,0,19-.05,3.78,1.37,6.08,5.4,6.46.89.08,1.7,1,2.55,1.47-.93.61-1.85,1.73-2.8,1.75-7,.14-14.08.12-21.12,0-.88,0-1.75-.9-2.63-1.38.69-.65,1.29-1.73,2.06-1.87,3.82-.68,4.71-3,4.68-6.57q-.17-20.64,0-41.29c0-3.78-.57-6.63-5.06-7.22-.79-.1-1.38-1.68-2.71-3.42,14.86,0,28.45-.07,42,.14,1.16,0,2.92,1.71,3.29,2.95A96.46,96.46,0,0,1,342.66,328c-3.05,1.68-4.54.33-5.13-2.54-1.06-5.21-4.28-6.7-9.38-6.6-13.33.25-13.33.07-13.32,13.2V335c0,8.05,3.4,10.67,11.05,7.84,1.66-.61,2.39-3.63,3.66-5.46a29.06,29.06,0,0,1,2.46-2.76c.67.91,1.89,1.8,1.92,2.73.18,5.44.18,10.89,0,16.32,0,.92-1.27,1.8-1.94,2.7-.8-.74-2.31-1.5-2.29-2.22.1-5.79-3.15-7-8.07-6.53C319.59,347.79,317.53,347.62,314.93,347.62Z"/><path class="cls-1" d="M470.13,331.26l-3.92.53c-.34-.5-.62-.73-.67-1-1.41-6.67-4-12.36-11.78-13.21-7.94-.86-15,1-20,7.78-7.3,10-7,29.66.51,39.56,8.4,11.1,24.44,10.15,32.43-1.93,2.25-3.4,2.25-3.4,6-1.62-4.22,10-11.94,15.45-22.43,16.05-19.23,1.1-32.67-6.82-33.81-29.36a45.38,45.38,0,0,1,1.38-13.74c3.5-13.22,13.34-19.26,26.11-20.32,6.56-.55,13.3.89,19.95,1.54,2.72.27,4.06,1.78,4.32,4.71C468.53,323.86,469.43,327.42,470.13,331.26Z"/><path class="cls-1" d="M63.44,793.93v-55.6l1.32-1.15c1.12,1,3.2,1.92,3.2,2.88.1,20.47,0,41-.14,61.42,0,.13-.18.26-.28.39-3.27,1.27-5.22.06-6.88-3C52,783.05,43.12,767.29,34.31,751.51a10.37,10.37,0,0,0-3.72-4.13c-.11,1.31-.32,2.61-.32,3.92q0,23.06.06,46.1c0,.64.21,1.41-.06,1.9a27.21,27.21,0,0,1-2.21,3c-.86-1-2.44-2-2.47-3.08-.24-6.55-.13-13.12-.13-19.68,0-12.17-.09-24.34.1-36.5,0-1.84.88-4.62,2.2-5.29,2.65-1.33,4.08,1.07,5.33,3.31q13.78,24.72,27.74,49.34C61.34,791.28,62.06,792.07,63.44,793.93Z"/><path class="cls-1" d="M131.54,870.63c0,9,.1,17.33-.09,25.62,0,1.3-1.37,2.57-2.11,3.86-.8-1.25-2.29-2.5-2.3-3.76-.15-19-.05-38.08-.15-57.12,0-3.05,1.25-3.82,4-3.76,6.56.13,13.13-.06,19.68.11,7.69.19,13.47,3.8,15.23,9.49,2.62,8.43.78,18.35-5.5,21.65a9.32,9.32,0,0,0-1.6,1.5c5.71,4,5.94,9.95,6.28,15.88.31,5.21.63,10.41.95,15.74-3.59,1.42-4.79-.79-5.07-3.87-.49-5.25-.72-10.53-1.17-15.78-.58-6.66-3.55-9.46-10.15-9.55C143.81,870.57,138.08,870.63,131.54,870.63Zm0-5.16c6.7,0,12.6.19,18.47,0,7.47-.31,12.15-5.25,12.31-12.54.15-7.12-4.14-12-11.59-12.59a137.65,137.65,0,0,0-16.25,0,4,4,0,0,0-2.81,2.73C131.45,850.28,131.56,857.58,131.56,865.47Z"/><path class="cls-1" d="M317.24,861.33a32.07,32.07,0,0,1,.47-5.36c.24-.84,1.18-1.48,1.8-2.22.72.81,2,1.56,2.07,2.43a77.42,77.42,0,0,1,.09,8.62c-.25,13.26.26,26.59-1,39.75-1.3,13.35-17,19.43-27.81,11.32-2.58-1.93-4.14-5.21-6.18-7.87l1.61-1.87c1.34.83,3.2,1.34,4,2.54,5,7.93,17,8.34,22.22.56,3-4.43,3.4-9.38,3-14.18-4.05,2.16-7.67,5.08-11.74,6-7.45,1.75-14-2.69-17.14-10.64-2.93-7.35-3-15-1.57-22.63,1.29-6.94,4.48-12.72,12.06-14.61S312.09,854.28,317.24,861.33Zm1.49,15.94c-1.61-5.16-2.31-9.86-4.45-13.79-4.72-8.67-15.34-8.68-20.68-.41-4.52,7-4.2,21.62.61,28.42,5.25,7.4,14.21,7.76,19.05.11C316,887.33,317,882,318.73,877.27Z"/><path class="cls-1" d="M395.57,853.31c-4.45,1.42-5.63.54-6.61-2.21-3.25-9.08-8.11-12.6-16.54-12.71-7.6-.11-13.69,4.23-16.8,12.71a47.41,47.41,0,0,0,.28,34.22c2.73,7.11,7.8,11.66,15.88,11.77,7.86.11,12.81-4.15,16-11,.74-1.59,1.1-3.41,2.07-4.82.87-1.24,2.36-2.05,4.1-3.49,1.33,10.58-7.75,22-17.57,23.55-12.23,2-21.18-3-25.21-14.74-4.4-12.79-4.67-25.86.33-38.52,6-15.26,25.89-19.75,36.63-8.24C391.36,843.39,393,848.49,395.57,853.31Z"/><path class="cls-1" d="M565.27,798.31c-5.77,1.8-10.84,4.11-16.13,4.83s-10.25-3.47-11.51-8.27c-1.82-6.9,0-13.61,5.38-16,4.58-2,9.75-2.77,14.71-3.86,3.63-.8,7.52-.86,7.55-6.13,0-5-2.77-8.83-7.6-9.59-5.23-.82-12.23,0-14.16,7.44-.3,1.18-1.88,2-2.86,3l-1.68-1c.65-2.32.89-4.86,2-6.93,3.07-5.69,10.75-8.45,18-6.86,6.44,1.4,9.48,4.52,10,12.2.6,8.76.33,17.59.47,26.39,0,2.31-.62,5,3,5.49.47.06,1.27,1.29,1.12,1.66a3.23,3.23,0,0,1-1.77,1.85C567.42,803.72,566,800.64,565.27,798.31Zm-.59-20.12-13.58,2.1a18.6,18.6,0,0,0-2.35.4c-5.26,1.51-7.91,5.88-7,11.47.78,4.75,4.23,7.11,9.92,6.78C561.9,798.36,566.83,790.61,564.68,778.19Z"/><path class="cls-1" d="M175.11,866.33c.35-8.49,5.66-13.45,14.59-13.63,9.4-.19,14.11,3.59,14.59,12.61.46,8.61.24,17.26.28,25.88,0,3.19-.41,6.61,5.7,5.59l-.7,1.84c-1.22.69-2.8,2.25-3.6,1.92-2.32-1-4.33-2.67-6.46-4.09l.21-1.79c-1.07.9-2.12,1.84-3.22,2.7-4.52,3.58-9.58,5.13-15.22,3.37s-8.41-6.1-8.48-12.5c-.08-6.69,2.85-11.26,9-13.08,3.8-1.12,7.83-1.42,11.73-2.21,2.92-.59,6.32-.72,6.69-4.83s-.41-7.93-4.77-10c-6.49-3.09-13.22-.45-16.13,6.24-.56,1.28-2,2.17-3.06,3.24Zm24.67,9.87c-4.9.76-9.48,1.37-14,2.2-4.22.76-7.5,2.8-8.27,7.45-.6,3.68-.32,7.95,3.21,9.26a18.63,18.63,0,0,0,11.73.34C199.49,893,201.64,886.26,199.78,876.2Z"/><path class="cls-1" d="M646.63,859c0,14.64-10.79,25.68-25.22,25.82a25.88,25.88,0,0,1-26.25-25.67,26.24,26.24,0,0,1,26.1-26.4C635.75,832.81,646.64,844.08,646.63,859Zm-4.21-.11c-.1-12.58-9.59-22.79-21.13-22.74-11.74,0-21.72,10.73-21.52,23,.2,12.49,9.67,22,21.82,22C633.38,881.09,642.52,871.34,642.42,858.92Z"/><path class="cls-1" d="M77.58,768.52c2-11.68,12.42-17.32,23.28-12.49a10.34,10.34,0,0,1,6.6,9.74c.21,8.79.2,17.59.45,26.38.08,2.76-1.19,6.48,3.61,7,.32,0,.81,1.41.64,2a2.54,2.54,0,0,1-1.63,1.41c-4.64,1.22-6.17-1.86-6.71-4.31-5.53,1.75-10.72,4.23-16.12,4.88-6,.73-10.4-3.49-11.62-9.21-1.59-7.44.59-13.41,6.61-15.7,4.41-1.68,9.25-2.31,13.94-3.19,3.61-.67,7.07-1.24,7.3-6a9.53,9.53,0,0,0-6.54-9.54c-6.86-2-12.61.85-15.5,7.42-.53,1.21-2.16,2-3.28,2.9Zm25.77,9.57L95,779.49a68.56,68.56,0,0,0-8,1.39c-5.25,1.51-8,6-7,11,.89,4.75,4.45,7.34,9.81,7.13C100.3,798.6,105.6,790.56,103.35,778.09Z"/><path class="cls-1" d="M255.83,798.41c-5.46,1.75-10.36,4.14-15.46,4.72-6.21.71-10.35-3.35-11.74-9.63-1.53-6.89.81-13.1,6.6-15.3,4.42-1.67,9.24-2.3,13.92-3.23,3.07-.61,6.26-1,6.63-5s-.49-7.43-4.09-9.59a11.61,11.61,0,0,0-16.7,5.66c-1.22,3-1.22,3-4.67,2.72,1.33-11.86,12.61-18,23.19-12.55,4.47,2.31,6.14,6.27,6.14,11.11,0,8.16-.16,16.32.1,24.48.09,2.81-1.07,6.87,4,7.26.33,0,.89,1.34.74,1.91a2.51,2.51,0,0,1-1.58,1.47C258.43,803.67,256.48,801.05,255.83,798.41Zm-.16-20.26c-5.31.82-10.2,1.41-15,2.36s-7.86,4.44-8.07,8.84c-.19,4,1.21,7.22,5,9,4.28,1.93,11,.24,14.47-3.54C256.45,790.06,256.12,784.36,255.67,778.15Z"/><path class="cls-1" d="M374.56,788.84c-1.71,8.66-6.91,14-14,14.45-8.92.63-15-3-17.79-11.33-3.11-9.4-3.25-18.91,1.39-28,3.29-6.42,8.58-9.83,16-9.2,7.1.62,11.29,5.08,13.34,11.44,1.29,4,1.68,8.34,2.63,13.36H351.44c-6.82,0-7.54.47-5.44,7.07,1.24,3.88,3.52,8.12,6.62,10.58,5.56,4.4,13.31,1.47,16.65-5.43C370.32,789.64,370.92,787.05,374.56,788.84Zm-3.72-13.23c.19-10.2-4.94-16.65-12.62-16.5-7.28.14-12.85,7.49-12.32,16.5Z"/><path class="cls-1" d="M456.55,779.68H425.31c-1.51,8.51,2.91,17.07,9.35,18.91,6.19,1.78,11.77-1,15-7.2a8.47,8.47,0,0,1,4.16-3.26c-.28,8-5.72,14.13-12.39,15.11-8.38,1.22-15.32-1.93-18.22-9.08-4.63-11.39-5.12-22.88,2.52-33.22a15.25,15.25,0,0,1,26.39,2.61C454.3,768.14,454.91,773.45,456.55,779.68ZM424,775.86c9,0,16.76.08,24.54-.12.83,0,2.23-1.64,2.32-2.62.51-5.81-3.9-12-9.37-13.59-5.67-1.66-11.38.89-14.26,6.77C426,768.94,425.33,771.92,424,775.86Z"/><path class="cls-1" d="M305.92,802.8c-1-1-2.83-2.09-2.84-3.15-.17-20.45-.13-40.9-.13-61.67a38.28,38.28,0,0,1,4-.49c9.12,0,18.24-.11,27.35.08,1.26,0,2.49,1.51,3.73,2.31-1.26.77-2.5,2.17-3.78,2.21-7.35.21-14.72.22-22.07.06-3.42-.07-5,1-4.78,4.64.26,5.11.2,10.24,0,15.35-.11,3.11,1,4.24,4.14,4.16,6.71-.18,13.43-.15,20.15.05,1.17,0,2.3,1.32,3.45,2-1.19.85-2.36,2.37-3.58,2.42-6.07.26-12.17.38-18.23.05-4.51-.25-6.22,1-6,5.84.38,8.28.1,16.59.1,24.88Z"/><path class="cls-1" d="M399.57,877.27c.54-3.66.77-7,1.57-10.27,2.21-9,8.29-14.21,16.3-14.32,8.63-.12,14.4,4.53,17,14a38.56,38.56,0,0,1-.27,21.3c-2.44,8.34-8.65,13.36-16.14,13.38-7.81,0-14.09-5-16.51-13.49C400.52,884.33,400.17,880.64,399.57,877.27Zm3.95-.7c1.21,4.63,1.9,9.07,3.55,13.12A10.85,10.85,0,0,0,417.35,897a11.11,11.11,0,0,0,11.09-6.88,30.48,30.48,0,0,0,.21-26.39c-1.9-4.23-5.5-6.5-10.28-6.63-4.95-.13-8.94,1.91-10.88,6.35C405.67,867.55,404.82,872.11,403.52,876.57Z"/><path class="cls-1" d="M608.45,779.16c1.23-5.14,1.79-10,3.56-14.32,2.7-6.64,8.11-10.08,15.42-10.11,7.14,0,12.35,3.29,15.17,9.73a34.14,34.14,0,0,1-.52,29.66c-2.77,5.74-7.41,9-14,9.23-7.17.21-12.58-3.08-15.48-9.28C610.42,789.43,609.76,784.08,608.45,779.16Zm33.53.3c-1.25-5-1.94-9.26-3.44-13.24-1.64-4.37-5.2-6.79-10-7.08-5.06-.3-9.29,1.49-11.68,6-5,9.48-5,19.18.52,28.39a11.46,11.46,0,0,0,19.87-.16C639.66,789.05,640.54,783.88,642,779.46Z"/><path class="cls-1" d="M147.13,778.92c1.27-5.08,2-9.7,3.6-14,2.61-6.82,8-10.15,15.31-10.22s12.46,3.32,15.13,9.79c4.15,10,4.19,20.3-.85,30.13-3,5.87-8,9-14.8,8.69-6.54-.26-11.58-3.33-14.1-9.13C149.3,789.35,148.47,783.91,147.13,778.92Zm4.14-1.53c1,5,1.34,8.75,2.62,12.13,1.93,5.14,5.17,9.15,11.4,9.49,5.52.29,9.31-2.32,11.46-7,4-8.72,4.25-17.74,0-26.39a11.66,11.66,0,0,0-20.44-1.21C153.71,768.51,152.67,773.65,151.27,777.39Z"/><path class="cls-1" d="M487.68,769.25c-1-1.18-2.28-2.23-2.89-3.58-2.5-5.5-8.32-8.39-13.77-5.81-2.2,1-4.16,3.78-5,6.18-1.14,3.14.48,6.14,3.62,7.49,3.8,1.64,7.82,2.78,11.73,4.17,7.05,2.5,10.25,7.42,9.27,14.24-.93,6.5-5.85,10.84-12.91,11.36-10.36.77-16.71-4.72-17-14.93,2.7-1.47,3.66-.25,4.57,2.41,2.33,6.83,6.39,9.14,13.22,8.11,4.58-.69,7.17-3.47,7.77-7.89.57-4.22-1.56-7.16-5.46-8.54-3.6-1.29-7.38-2.05-11-3.29-6.83-2.33-9.4-6.85-8.33-14.19.84-5.74,5.3-9.67,11.6-10.21,9.77-.85,15.88,4.29,15.87,13.35Z"/><path class="cls-1" d="M247.21,854.39c5.27-2.3,3.68,2.25,4.9,4.82,1.34-1.23,2.39-2.3,3.54-3.23,4.69-3.79,9.9-4.3,15.31-2,5.16,2.25,7.17,6.8,7.29,12,.23,10.23.15,20.48,0,30.72,0,1.1-1.17,2.18-1.79,3.28-.73-1.14-2.08-2.28-2.1-3.43-.18-9.12-.05-18.24-.14-27.36-.07-7.53-2.72-11.29-8.3-12.1-6.43-.94-12.09,2.45-13.46,9.41-1.16,5.88-.86,12.06-1.06,18.11-.14,4.15.11,8.32-.14,12.47-.06,1-1.4,2-2.15,2.94-.65-.9-1.84-1.79-1.85-2.69C247.17,883,247.21,868.65,247.21,854.39Z"/><path class="cls-1" d="M469.36,899.62c-.15-1.67-.27-3.08-.44-4.92-2.65,2-4.81,4.12-7.39,5.43a12.52,12.52,0,0,1-18.23-8.78c-1.05-5.6-.83-11.46-.95-17.21-.14-6.54,0-13.1,0-19.6,3.25-1.6,4.25-.53,4.23,2.54-.07,9.61-.16,19.23.06,28.83.18,7.87,4.81,12,11.88,10.94,4.44-.66,7.22-3.68,8.54-7.58A39.69,39.69,0,0,0,469.08,878c.3-8,.09-16,.09-23.86,3-1,4.13-.19,4.11,2.74-.06,13.29,0,26.59,0,39.88C473.33,899.43,472.63,900.89,469.36,899.62Z"/><path class="cls-1" d="M481.77,853.91h4c.22,1.62.45,3.24.52,3.76,4.72-1.67,9.24-4.29,13.94-4.69,6.86-.59,12.33,4.79,12.59,11.74.42,10.86.26,21.73.19,32.6,0,.89-1.22,1.76-1.87,2.64-.64-.9-1.8-1.79-1.82-2.71-.15-8.15-.07-16.3-.11-24.45,0-2.07-.18-4.15-.36-6.21-.42-4.76-2.56-8.21-7.49-9.32s-10.31.87-12.66,5.54a24.37,24.37,0,0,0-2.48,9.57c-.34,8.14,0,16.3-.21,24.45,0,1.12-1.39,2.21-2.13,3.32-.71-1-2-2-2-3C481.73,883,481.77,868.73,481.77,853.91Z"/><path class="cls-1" d="M656.72,760.81c.81-.66,1.89-1.52,2.94-2.42,8.77-7.47,21.43-3.42,22.56,7.9,1.1,11.1.53,22.37.53,33.57,0,.8-1.43,1.6-2.19,2.4-.69-1-2-2-2-3-.16-9.12-.08-18.25-.1-27.38,0-8.37-2.81-12.21-9.17-12.7-6.63-.52-12.31,3.93-13,11.32-.77,8.43-.6,16.93-.83,25.41a21.21,21.21,0,0,1-.09,3.83,9.21,9.21,0,0,1-1.52,2.51c-.68-.84-1.94-1.65-2-2.51-.18-6.08-.11-12.17-.11-18.25,0-6.89-.11-13.78.07-20.66,0-1.59,1.11-3.16,1.7-4.74Z"/><path class="cls-1" d="M554.27,885.22c-1.41,6.76-3.81,12.91-11.17,15.32-5.87,1.92-12,1.44-15.93-3.31a34.12,34.12,0,0,1-6.35-13.52,30.34,30.34,0,0,1,3.39-23.13,16,16,0,0,1,18.16-7.47c6.58,1.67,10.42,6.55,11.06,15.54-2-1.45-3.79-2-4.34-3.23-2.65-5.63-6.51-9.32-13.06-8.2-6.34,1.09-9.06,6-10.53,11.7a30.41,30.41,0,0,0,.89,18.81c2.38,6.3,5.93,9.14,11.44,9.18s8.88-2.64,11.58-9c.66-1.55,2.19-2.73,3.31-4.08Z"/><path class="cls-1" d="M193.76,756.32c.21,1.64.38,3,.64,5.07,2.06-1.63,3.69-3,5.46-4.3,8.4-5.9,20.33-.93,21,9.26.71,11,.35,22.06.3,33.09,0,.93-1.19,1.86-1.82,2.78-.69-1-1.94-2-2-3-.15-9-.07-17.91-.1-26.87,0-8.5-2.7-12.5-8.75-13.19-6.94-.8-12.69,3.27-13.61,11.08-1,8.21-.65,16.57-.88,24.87A19.51,19.51,0,0,1,194,799a14.81,14.81,0,0,1-1.72,3.26c-.74-1.15-1.88-2.21-2.13-3.46A29.66,29.66,0,0,1,190,793c0-10.88,0-21.75,0-32.63C190.05,758.28,189.52,755.5,193.76,756.32Z"/><path class="cls-1" d="M387.71,761c1.22-1.06,2.57-2.31,4-3.45,4.31-3.42,9.14-3.77,14-1.69a11.52,11.52,0,0,1,7.41,10.85c.2,10.86.16,21.74.07,32.6,0,1-1.05,1.92-1.61,2.88-.72-1-2-1.93-2.06-2.91-.16-9.43,0-18.87-.15-28.29-.15-8.91-5.36-13.48-12.91-11.67-4.88,1.17-9.34,6.28-9.71,12.46-.5,8.12-.15,16.3-.45,24.44-.07,2-1.24,4-1.91,6-.63-2-1.77-4-1.8-6.07q-.27-17.26,0-34.52c0-1.87,1.2-3.72,1.85-5.58Z"/><path class="cls-1" d="M580.64,755.13a71.29,71.29,0,0,1,.09-8c.16-1.38,1.25-2.65,1.92-4,.65,1.4,1.7,2.75,1.86,4.21a56.64,56.64,0,0,1,.09,7.16c2.47,2.66,7.89-.82,7,5.26l-6.63.54c0,11.95-.22,23.74.28,35.51.07,1.52,3.89,2.88,6.84,4.92-.29.32-1.28,2.28-2.1,2.21-2.65-.22-5.81-.52-7.67-2.1-1.44-1.21-1.62-4.38-1.66-6.7-.17-9.44-.07-18.9-.07-28.35,0-1.72,0-3.45,0-5.33l-5.16-.68C573.47,754.79,578,756.48,580.64,755.13Z"/><path class="cls-1" d="M119.22,760.46l-5.85-.75c.63-1.36,1.19-3.51,1.68-3.49,5,.15,3.87-3.32,4.25-6.23.31-2.32-1.83-5.51,2-6.84.59,2.38,1.65,4.75,1.65,7.13,0,3.71.37,6.28,5.09,5.81.92-.09,2,1.56,3,2.41l-.75,1.24-7.26.67v15.72c0,4.79,0,9.59,0,14.38,0,7.56.31,7.91,8.19,9-1,1.43-1.8,3.49-2.44,3.43-2.68-.22-5.74-.46-7.78-1.92-1.35-1-1.63-4-1.67-6.15-.18-9.59-.09-19.18-.1-28.77Z"/><path class="cls-1" d="M499.62,760.39a21.89,21.89,0,0,1-4-.4c-.75-.24-1.95-1.11-1.88-1.5.17-.9,1.05-2.43,1.53-2.39,5,.44,4.34-3,4.35-6a18.65,18.65,0,0,1,.1-4.3c.24-1,1.23-1.76,1.89-2.63.59.94,1.49,1.83,1.68,2.85a18.62,18.62,0,0,1,.07,4.78c-.25,3.38.41,5.65,4.62,5.26.88-.08,1.9,1.44,2.85,2.22-.93.58-1.94,1.75-2.8,1.65-4.11-.47-4.77,1.63-4.7,5.1.17,8.64.05,17.28.05,25.91,0,7.46.05,7.5,8.43,8.6-1.37,1.59-2.39,3.58-3.14,3.49-2.63-.33-5.77-.72-7.56-2.36-1.39-1.27-1.41-4.43-1.44-6.75C499.55,782.92,499.62,771.9,499.62,760.39Z"/><path class="cls-1" d="M229.29,897.79c-2.2,1.65-3.55,3.47-4.63,3.32-2.45-.34-5.32-1.08-7-2.73-1.28-1.29-1.29-4.17-1.32-6.35-.13-9.44,0-18.88,0-28.31v-5.21l-5.28-.73c-2.1-5.37,2.78-3.47,5.27-4.77a48.56,48.56,0,0,1,.08-6.92c.25-1.71,1.27-3.31,1.94-5a26.86,26.86,0,0,1,1.85,5.22,48.15,48.15,0,0,1,.08,6.95l6.51.66c.67,3.57.67,3.57-6.51,4.7v14.1c0,5.12-.28,10.26.07,15.35C220.79,894.81,218.62,896.16,229.29,897.79Z"/><path class="cls-1" d="M274.66,769.92c0,9.58.07,19.16-.09,28.73,0,1.2-1.27,2.38-1.95,3.57-.69-1.2-2-2.39-2-3.59q-.18-28.73,0-57.46c0-1.2,1.3-2.4,2-3.59.67,1.2,1.91,2.4,1.93,3.61C274.73,750.77,274.66,760.35,274.66,769.92Z"/><path class="cls-1" d="M521,763.44c3.29-5.34,6.32-9.2,12.5-8.49v4.54c-9.26,2.52-12.48,6.87-12.77,17.65-.19,7.19,0,14.4-.14,21.6,0,1.19-1.26,2.34-1.93,3.51-.72-1.17-2.06-2.33-2.07-3.51q-.23-19.2,0-38.4c0-1.45,1.46-2.88,2.24-4.32.62,1.39,1.28,2.75,1.82,4.16A19.43,19.43,0,0,1,521,763.44Z"/><path class="cls-1" d="M576.83,868c0-9.44-.08-18.88.09-28.32,0-1.35,1.22-2.68,1.87-4,.66,1.24,1.88,2.47,1.89,3.7q.18,28.56,0,57.11c0,1.19-1.33,2.36-2,3.54-.6-1.23-1.71-2.46-1.73-3.7C576.77,886.87,576.83,877.43,576.83,868Z"/><path class="cls-1" d="M598.05,779.07c0-6.56-.08-13.12.08-19.68,0-1.12,1.07-2.23,1.64-3.34.79,1.09,2.27,2.17,2.29,3.27q.23,19.9,0,39.83c0,1-1.3,2.07-2,3.1-.67-1-1.9-2-1.93-3C598,792.51,598.05,785.78,598.05,779.07Z"/><path class="cls-1" d="M235,853.35c1,1,2.75,2,2.76,3,.19,13.59.17,27.19,0,40.78,0,1-1.41,2-2.17,2.92-.62-.9-1.76-1.8-1.77-2.71-.11-14.38-.08-28.75-.08-43.12Z"/><path class="cls-1" d="M566.66,854.22v35.89a51.57,51.57,0,0,1-.09,6.7c-.15,1.15-1.18,2.17-1.82,3.25-.76-1.1-2.18-2.2-2.2-3.31-.16-11.67-.1-23.34-.1-35,0-1.76-.34-3.62.13-5.25.34-1.2,1.74-2.1,2.66-3.14Z"/><path class="cls-1" d="M136.77,779c0-6.56-.08-13.12.08-19.68,0-1.09,1.14-2.15,1.75-3.23.62,1.08,1.76,2.15,1.78,3.24.12,13.12.14,26.24,0,39.36,0,1.16-1.32,2.31-2,3.46-.53-1.15-1.49-2.3-1.51-3.47-.15-6.55-.08-13.12-.08-19.68Z"/><path class="cls-1" d="M603.4,738.41l-3.18,7c-.74-1.27-1.9-2.46-2.14-3.82C597.62,738.92,598.07,736.58,603.4,738.41Z"/><path class="cls-1" d="M142.13,741.84l-3.54,3.54c-.67-1.36-1.87-2.73-1.83-4.07s1.37-2.51,2.14-3.76Z"/><path class="cls-1" d="M568.29,839.31l-3.93,3.61c-.72-1.14-2.05-2.31-2-3.42.06-1.34,1.29-2.63,2-3.94Z"/><path class="cls-1" d="M237.94,842.51c-4.76,1.46-4.57-1.61-4.09-4.11.23-1.23,1.88-2.19,2.89-3.27l1.2,1Z"/><path class="cls-1" d="M627.79,859c1.62,4.82,3.09,9.22,4.62,13.76-4.27,2.1-5.21-.19-5.65-3.21-.59-4-1.43-7.61-6.41-8.25-3-.37-4.7.23-4.53,3.63a29.44,29.44,0,0,1-.12,6.23c-.15.91-1.36,1.64-2.09,2.45-.65-.73-1.85-1.45-1.87-2.19-.13-8-.15-16,0-24A3.34,3.34,0,0,1,614,845c3.65-.23,7.49-.68,10.93.21a10.24,10.24,0,0,1,6.09,5.13C632.61,854.18,630.47,857.44,627.79,859Zm-12-6.64c0,3.12-.6,6.26,3.79,5.91,3.46-.27,7.11-.67,7.24-5.16s-3.48-5.17-6.94-5.55C615.81,847.14,615.65,849.88,615.82,852.38Z"/></g></g></svg>