<svg xmlns="http://www.w3.org/2000/svg" viewBox="0 0 948.12 969.37"><defs><style>.cls-1{fill:#5e5e5e;}</style></defs><title>logo-energy-star</title><g id="Layer_2" data-name="Layer 2"><g id="Layer_1-2" data-name="Layer 1"><path class="cls-1" d="M0,734.29v-5.2Q0,548.85.11,368.6a16.29,16.29,0,0,1,2.69-8.67Q110.47,204.29,289,141.34a551,551,0,0,1,140.49-29C634.39,96.56,830.7,191,946,361.05a12.13,12.13,0,0,1,2.08,6.39q.15,182,.08,364c0,.82-.09,1.64-.17,2.86ZM369.52,489l1,1c-1.58,4.2-3.23,8.38-4.7,12.62s-.36,7.63,3.48,9.89,7.11.83,9.83-2.1a58.4,58.4,0,0,0,4.58-5.92q17.33-24.15,34.64-48.32a48.09,48.09,0,0,1,3.84-4.31L439,472.46c-2.15,7.48-7,16.72,1.62,24.34,8.34,7.4,17.55,2.28,27.58-.86-4.5,5-8.11,8.92-11.54,12.95-15.11,17.72-28.56,36.51-35.88,58.93a44.7,44.7,0,0,0-2.32,14.66c.25,10.24,8.79,15.55,18.15,11.44a32.41,32.41,0,0,0,10.69-7.18c6.85-7.44,13.8-15,19.38-23.37,14.77-22.21,24.28-47,32.86-72.06.68-2,1.42-4.51,3-5.55,14.32-9.65,28.83-19,43.29-28.47.14.14.28.28.43.41a54.58,54.58,0,0,0-2.31,5.49c-1.85,6.18-4.45,12.32-5.14,18.65-1.54,14.26,9.51,22.42,22.83,17.18a43.29,43.29,0,0,0,12.47-7.2c7.52-6.54,14.5-13.71,21.58-20.74,1-1,1.27-2.64,1.88-4l1.8,1.67c-1.1,4.95-2.66,9.3-6.85,13.12-13.4,12.22-26.92,24.41-39.22,37.71-15.92,17.22-28.75,36.72-36.91,58.94-3.29,9-5.79,18.15-4.13,27.86,1.83,10.65,10.9,16,20.8,11.79a36.06,36.06,0,0,0,11.84-8A122.07,122.07,0,0,0,558,593.19c18.47-28.12,32.82-58.42,44.52-89.81,4.61-12.37,12-20.58,22.58-27.65,41.31-27.54,86.23-46.83,133.87-60.2,5.92-1.67,8.46-5.41,7-10.07-1.36-4.39-5.41-6.1-11.11-4.49-46.76,13.23-91.15,31.81-131.94,58.51-1.14.74-2.39,1.33-4.51,2.51.85-2.93,1.37-4.81,2-6.68q4.85-15.49,9.71-31c1.38-4.39.57-8.16-3.74-10.14s-7.68-.17-10.19,3.69c-3.73,5.72-7.46,11.45-11.41,17-11.18,15.8-22.69,31.35-37.87,43.65-3.64,3-7.91,5.13-11.89,7.67L553.08,485c1.2-4.52,2-9.22,3.69-13.53,4.5-11.3,11.83-20.81,20-29.7,2.88-3.13,4.3-6.49,1.54-10.3s-6.48-4.12-10.62-2.1c-8.23,4-16.72,7.56-24.73,12-11.35,6.25-22.38,13.1-33.38,19.6l-4.13-8.59c5.63-5.13,11.63-10.17,17.11-15.73,4.45-4.51,6.63-10.17,3.9-16.46s-8.26-8.9-14.6-8.47a57.41,57.41,0,0,0-17.42,3.54c-14.73,5.91-26,16.59-36.15,28.5-3.84,4.52-7.35,9.32-11.1,14.1-7.05-4.33-10.15-11-11.84-18.17-2.17-9.19-9.7-9.73-15.64-5.44-3.6,2.6-6.81,5.73-10.41,8.8.09-4.37-1.36-7.74-5.69-8.94-4.49-1.23-6.9,1.74-9.54,4.77-10.92,12.56-21.63,25.35-33.21,37.28a123.41,123.41,0,0,1-35.77,26.1c-3.9,1.85-8.23,2.82-12.36,4.19-.49-.65-1-1.29-1.48-1.93,1.27-1.74,2.24-3.84,3.85-5.18,10.27-8.49,21.11-16.35,30.86-25.39,5.34-4.94,10.25-11.22,13-17.87,4.89-11.79-4.43-21.89-17-19.69-10,1.74-17.2,7.72-23.41,15.15-9,10.8-14.49,23.43-18.57,36.77-.59,1.93-1.59,4.32-3.15,5.28a164,164,0,0,1-19.66,10.78c-9.64,4.2-12.76,2-11.83-8.55.83-9.44,2.67-18.78,4.21-28.14.77-4.68-.1-8.71-4.09-11.52-4.19-3-8.58-2.33-12.65.28a34.2,34.2,0,0,0-7,5.59c-4.59,5.05-8.83,10.4-13.27,15.59-1,1.23-2.27,2.3-3.42,3.44l-.94-.85c3.7-7,7.38-14,11.1-21,2.07-3.89,1.82-7.43-1.74-10.26-3.2-2.55-7.39-1.83-10.65,1.69-1.36,1.47-2.58,3.05-3.87,4.58-17.85,21.2-36.65,41.46-58.4,58.77-13.07,10.41-26.61,20.24-43,24.78a39.63,39.63,0,0,1-14.69.85c-4.83-.55-6.62-4.84-6.65-9.3,0-3.21-1.41-7.14,3.28-8.9,26.28-9.93,48.86-25.64,69.33-44.6,11.53-10.66,22.55-21.78,30.64-35.41,4.56-7.67,8.14-15.68,7.76-24.91-.41-10.26-7.56-17.94-17.82-17.68A52.86,52.86,0,0,0,176,402.38c-11.17,4.35-20.42,11.9-28.89,20.23-24.66,24.29-42.71,53.1-57.27,84.28-.81,1.74-2.45,3.86-4.11,4.31-20.29,5.52-40.67,6.84-61.06.32-5.56-1.78-9.7-.34-11.24,4s.69,8.1,6.2,10.19c.78.29,1.57.57,2.37.81,15.08,4.51,30.47,5.2,46,3.46,5.54-.62,11-1.62,16.61-2.46a13.66,13.66,0,0,1,.41,1.81c1.41,18.61,12.58,27.71,31.16,25.56,12-1.39,22.74-6.26,33-12.21,18.9-10.91,35.24-25.09,50.75-40.3,1.18-1.17,2.39-2.3,3.59-3.45a5.59,5.59,0,0,1-.08,3.4c-2.27,8.87-4.62,17.71-6.77,26.61a7.37,7.37,0,0,0,4,8.82c3.64,1.94,6.85.87,9.41-2.06a80.39,80.39,0,0,0,5.07-6.79q16.47-23.55,32.91-47.11c1-1.37,2.15-2.58,3.33-4-.46,7.83-1.44,15.13-1.22,22.4.5,16.16,11.58,24.25,27.1,19.69,7-2,13.53-5.43,20.57-8.33,5.1,9.79,13.93,10.7,23.42,7.82a68.25,68.25,0,0,0,18.16-8.06C349.88,504.41,359.56,496.48,369.52,489ZM740.73,289.08c1.19,3,1.93,4.81,2.65,6.66,11.45,29.31,23,58.6,34.29,88,2.33,6,6.26,8.86,12.75,9.19,23.12,1.15,46.23,2.56,69.35,3.91,10,.59,20.06,1.26,31.19,2-2.22,2-3.51,3.19-4.87,4.32-24.11,20-48.15,40.09-72.38,59.94-5.32,4.37-7,9.2-5.18,15.81,4.87,18.18,9.45,36.42,14.13,54.64,3.56,13.83,7.09,27.67,10.88,42.48-2.22-1.34-3.6-2.13-4.94-3-26.33-17-52.73-33.8-79-50.93-6.1-4-11.32-4-17.47-.07-26.3,17-52.8,33.69-79.23,50.49-1.44.91-3,1.7-5.49,3.15.73-3,1.1-4.76,1.57-6.48q11.58-41.88,23.18-83.76c2-7.24-1-13.22-7.45-15.13-6.25-1.86-12.07,1.8-14.24,9-1.1,3.67-2,7.38-3.07,11.07q-14.69,53.21-29.38,106.42c-1.79,6.51-.05,11.55,4.85,14.3s9.19,1.33,13.56-1.46c33.28-21.24,66.64-42.36,99.88-63.66,3.2-2.05,5.38-2.43,8.8-.17,17.77,11.78,35.77,23.22,53.69,34.78q22.68,14.63,45.38,29.22c6.63,4.23,13.28,3,17-2.74,2.59-4,1.5-7.95.46-12-9.65-37.58-19.21-75.18-29-112.71-1-3.68-.25-5.66,2.6-8q45.51-37.51,90.82-75.29c5.36-4.45,6.74-8.43,5-13.45s-5.66-7.47-12.12-7.84c-39.08-2.25-78.15-4.61-117.24-6.67-4.09-.22-5.66-1.76-7-5.32C789,350.46,783,335.3,777.05,320.1q-12.62-32.34-25.24-64.68c-3-7.66-10.21-11.07-16.19-7.1-2.79,1.86-5.07,5.29-6.35,8.5q-21.51,54.35-42.5,108.9c-1.67,4.35-3.93,5.64-8.29,5.85-39.27,1.91-78.53,4-117.79,6.07-7.53.4-12.14,5.11-11.77,12,.35,6.71,5.68,10.83,13.19,10.43q60.64-3.26,121.28-6.38c16.85-.84,16.8-.68,23-16.54C717.63,348.11,729,319.13,740.73,289.08Z"/><path class="cls-1" d="M.33,758.54h947.5V969.37H.33Zm224.82,165H285.8V909.85H239.5V869.1h42.21V855.78H239.58V817.7h45.24V805.07H224.2V923.35Zm-124,0,1-.05,1.12-13.76H56.38v-40.9H98.27V855.51H56.37V817.73h45.25V805H40.88c-.11,1.4-.28,2.54-.28,3.67q0,55.2,0,110.41a33.27,33.27,0,0,0,.57,4.41l1,.13Zm85.59-23.84c-1.18-2.38-2.43-4.73-3.53-7.14q-19-41.82-38.13-83.6c-.78-1.7-2.57-4-4-4.13-6.25-.46-12.54-.2-19-.2V922.94h13.37V822.49a53.94,53.94,0,0,1,5.82,10.44q19.68,43.16,39.41,86.31c.73,1.59,2.35,3.82,3.68,3.92,6.09.42,12.23.18,18.59.18V805H189.43c0,2.78,0,5.24,0,7.7q-.12,43.47-.23,86.93Zm187.78,23.6c-1.2-13.06-2.46-25.29-3.4-37.53-.89-11.5-3.56-21.56-16.95-24.22-.12,0-.19-.26-.33-.47.44-.19.86-.39,1.3-.54,12.84-4.2,19.89-15.22,18.53-29-1.56-15.81-9.47-25.64-23.5-26.51-14.93-.93-29.95-.2-44.93-.16-.24,0-.48.41-.67.58V923h15.09V869.22c8,0,15.31-.55,22.55.15,7.44.72,11.18,4.85,12.45,12.25.62,3.59.5,7.3.85,10.94.85,8.93,1.61,17.87,2.84,26.75.21,1.5,2.48,3.65,4,3.86C366.4,923.71,370.58,923.35,374.49,923.35ZM836.54,804.88v118.2h14.79V868.39c8.39.37,16.2.32,23.9,1.19,6,.67,9.89,4.76,11,10.77.76,4.24.75,8.61,1.18,12.91.86,8.76,1.64,17.53,2.84,26.25.2,1.42,2.24,3.51,3.61,3.66,4.24.48,8.58.18,12.6.18-1.37-14.32-2.71-28.18-4-42.06-.95-10.14-5.37-17.37-16-19.48-.23,0-.39-.46-.58-.7,15.08-5.21,21.15-15.29,19.38-32.2-1.39-13.34-10-23-23.4-23.82C866.86,804.19,851.85,804.88,836.54,804.88ZM447,872.5v23.64c0,13.5-1.53,15.16-15.27,16.48-1.32.13-2.66.18-4,.21-14.56.37-21.58-4.73-22.58-19.28-1.26-18.24-1.11-36.6-1-54.9.07-17.35,10.65-25.89,27.76-23.14C440,816.82,445,821.82,446.21,830c.31,2.09.51,4.2.75,6.25H462.2c2.7-16.17-5.65-29.14-21.08-32.41a71.88,71.88,0,0,0-16.35-1.54c-21.71.45-34.46,11.23-35.78,32.85a432.39,432.39,0,0,0,.65,59.36c1.45,18.84,12.12,29.12,29,30.85a75.09,75.09,0,0,0,39.47-6.39c3-1.37,4.12-3,4.08-6.37-.19-16.32-.07-32.65-.1-49,0-1.42-.21-2.84-.33-4.3H425.54v13.2Zm282,50.86c4.36,0,7.85-.18,11.32,0,3,.2,4.44-.76,5.28-3.79,2-7,4.43-14,6.47-21,.79-2.73,2.15-3.62,5-3.59q19,.2,38,0c3,0,4.46.87,5.26,3.84,1.9,7.06,4.09,14.05,6.32,21,.4,1.25,1.5,3.18,2.37,3.23,5,.31,10.06.15,15.52.15-.68-2.36-1-3.79-1.5-5.19q-16.23-49.82-32.52-99.61c-1.49-4.55-2.05-10.73-5.27-13s-9.31-.46-14.09-.87c-3.55-.31-4.87,1.14-5.87,4.36-7.53,24.13-15.26,48.2-22.91,72.3C738,895,733.63,908.8,729,923.36Zm-73.26-86.7c2.6-17.4-6.15-30.68-22.47-33.45a57.41,57.41,0,0,0-18.36-.08c-13.13,2.09-22.34,9.48-25.41,22.86-3.14,13.67.82,25.24,12.48,33.28,7,4.8,14.82,8.28,22,12.85,5.13,3.28,10.6,6.66,14.38,11.26,7.7,9.39,3,24.49-8.42,27.63a37.73,37.73,0,0,1-14.72.64c-7.06-.95-11.59-5.62-13.25-12.59a109.86,109.86,0,0,1-1.5-10.89H585.72c.28,4.53.15,8.73.85,12.78,2.36,13.73,10,22,23.92,23.67a85.23,85.23,0,0,0,26.11-1.41c9.32-1.85,15.68-8.37,18.86-17.6,5.32-15.46.89-30.44-12.54-39.75-6.67-4.63-14.23-8-21.12-12.3-4.88-3.07-9.85-6.33-13.81-10.45-5-5.2-5.07-13.87-1.33-20.05,3.56-5.89,11.72-8.8,20.41-7.26,7.24,1.28,11.59,5.74,12.89,13.36.41,2.42.54,4.89.81,7.5Zm-185.25-32c1.07,2.64,1.7,4.33,2.42,6,8,18.47,15.83,37,24.21,55.35a52.77,52.77,0,0,1,5.19,25c-.48,10.59-.12,21.21-.12,32h15.13c0-13.3-.13-26.27.1-39.24a27.24,27.24,0,0,1,2-10.06c9.23-21.39,18.72-42.68,28.11-64,.65-1.46,1.18-3,2-5.05-3.07,0-5.43.31-7.68-.06-5.71-.93-8.37,1.45-10.47,6.84-6.45,16.57-13.6,32.87-20.85,50.16-1-2.34-1.69-3.81-2.3-5.32-6.43-15.89-12.79-31.81-19.37-47.63-.67-1.62-2.6-3.62-4.14-3.8C480.37,804.35,475.87,804.68,470.52,804.68ZM664.38,818h31V923H710.6V817.6h30.93V805H664.38Z"/><path class="cls-1" d="M.26,327.81V0H947.72V327.89C827.81,173.21,671.23,87.77,474.17,87.72S120.38,172.94.26,327.81Z"/><path class="cls-1" d="M189.2,899.63v4.29l-.69.17-1.8-4.34Z"/><path class="cls-1" d="M41.18,923.46a1.71,1.71,0,0,1,1,.13Z"/><path class="cls-1" d="M101.12,923.59l1-.05Z"/><path class="cls-1" d="M224.2,923.35a2.22,2.22,0,0,1,1,.23Z"/><path class="cls-1" d="M109.69,501.21c14.87-29.13,32.68-56.07,58.56-76.74a64.45,64.45,0,0,1,15.46-9c3.39-1.4,7.59-.82,11.43-1.12-.3,4,.5,8.46-1.12,11.78a92.57,92.57,0,0,1-12.14,19.34c-18.88,22.31-41,40.79-67.07,54.31-1.47.75-3,1.3-4.56,1.94C110.07,501.57,109.88,501.39,109.69,501.21Z"/><path class="cls-1" d="M583.14,510.65c-3,7.17-5.52,14.62-9.14,21.48-9.93,18.8-20.22,37.42-30.62,56a62.26,62.26,0,0,1-8.53,11c-1.89,2.08-4.51,3.48-6.8,5.19l-1.85-1c1.13-5.74,1.67-11.67,3.47-17.18,6.4-19.59,17.68-36.44,30.73-52.13,6-7.15,12.49-13.81,18.84-20.62a24.06,24.06,0,0,1,3.86-2.76Z"/><path class="cls-1" d="M475.72,510.83c-9.92,24.59-20.08,49-41.54,66.46C441,550.78,457.28,530.13,475.72,510.83Z"/><path class="cls-1" d="M510.33,426.79c-12.66,12.66-26.2,24-43.3,30.39C478.51,442.85,490.84,429.72,510.33,426.79Z"/><path class="cls-1" d="M477.19,471.7c-7.68,6-15.71,11.35-25.59,13.92,0-8,2-10.15,8.59-11.09,4.07-.59,8.05-1.87,12.06-2.87,1.48-.37,2.95-.81,4.42-1.23Z"/><path class="cls-1" d="M322.12,473.62c4.65-10.19,11.06-18.61,22.33-22.13-4.93,9.89-13.28,16.37-22.26,22.2Z"/><path class="cls-1" d="M369.52,489l1.4-1-.36,2Z"/><path class="cls-1" d="M583.1,510.61l.18-.88.52.3-.66.62Z"/><path class="cls-1" d="M545.78,457.29l1-.15-.58.56C546.06,457.57,545.92,457.43,545.78,457.29Z"/><path class="cls-1" d="M600,467.22l-.37.33c-.1-.12-.3-.25-.29-.38s.21-.24.32-.36Z"/><path class="cls-1" d="M322.19,473.69l-.3.66c.07-.24.15-.48.23-.73Z"/><path class="cls-1" d="M110.25,501.77l-.63.53c0-.36,0-.72.07-1.09C109.88,501.39,110.07,501.57,110.25,501.77Z"/><path class="cls-1" d="M319.59,855.43V818.36c9,0,17.72-.28,26.44.11,4.64.21,7.93,3.4,9.86,7.55,3.55,7.63,3.48,15.52-1.24,22.36-2.2,3.19-6.58,6.27-10.31,6.74C336.35,856.14,328.14,855.43,319.59,855.43Z"/><path class="cls-1" d="M851.52,855.57v-38.1c9.42.43,18.78.78,28.12,1.37,1.35.09,2.75,1.17,3.93,2,6,4.4,8.16,14.43,5.17,23.37-2.58,7.68-7.68,11.27-16.22,11.31C865.71,855.6,858.9,855.57,851.52,855.57Z"/><path class="cls-1" d="M794.8,881.54H757.19l18.09-61.6,1,0C782.39,840.31,788.53,860.72,794.8,881.54Z"/></g></g></svg>