<svg xmlns="http://www.w3.org/2000/svg" viewBox="0 0 785.98 322.01"><defs><style>.cls-1{fill:#fff;}</style></defs><title>logo-solii-short</title><g id="Layer_2" data-name="Layer 2"><g id="Layer_1-2" data-name="Layer 1"><path class="cls-1" d="M225.86,322a4.51,4.51,0,0,1-3.19-7.69l91.63-91.63a4.5,4.5,0,0,1,6.37,6.37L229,320.67A4.48,4.48,0,0,1,225.86,322Z"/><path class="cls-1" d="M4.5,231.29a4.5,4.5,0,0,1-4.5-4.5v-1a4.5,4.5,0,0,1,7.68-3.18l0,0A4.52,4.52,0,0,1,9,225.92c0,.16,0,.33,0,.5s0,.24,0,.37A4.5,4.5,0,0,1,4.5,231.29Z"/><path class="cls-1" d="M4.5,100.66a4.42,4.42,0,0,1-1.71-.34A4.48,4.48,0,0,1,0,96.18v-1a4.5,4.5,0,0,1,9,0c0,.13,0,.25,0,.37s0,.34,0,.5a4.49,4.49,0,0,1-4.52,4.57Z"/><path class="cls-1" d="M95.88,322H4.5a4.49,4.49,0,0,1-4.5-4.5V225.3a4.5,4.5,0,0,1,9,0V313H95.88a4.5,4.5,0,0,1,0,9Z"/><path class="cls-1" d="M96.15,9h-.93a4.5,4.5,0,0,1,0-9h1a4.5,4.5,0,0,1,3.18,7.68l0,0A4.53,4.53,0,0,1,96.15,9Z"/><path class="cls-1" d="M225.86,9a4.51,4.51,0,0,1,0-9h1a4.5,4.5,0,0,1,0,9h-.93Z"/><path class="cls-1" d="M4.5,101.51A4.5,4.5,0,0,1,0,97V4.5A4.49,4.49,0,0,1,4.5,0H97.56a4.5,4.5,0,0,1,0,9H9V97A4.5,4.5,0,0,1,4.5,101.51Z"/><path class="cls-1" d="M96.18,322h-1a4.5,4.5,0,0,1,0-9h.86a4.37,4.37,0,0,1,3.32,1.38A4.51,4.51,0,0,1,96.18,322Z"/><path class="cls-1" d="M317.51,100.68a4.52,4.52,0,0,1-3.15-1.29l0,0A4.5,4.5,0,0,1,313,96.08V95.6c0-.13,0-.25,0-.38a4.5,4.5,0,0,1,9,0v1a4.52,4.52,0,0,1-2.76,4.15A4.58,4.58,0,0,1,317.51,100.68Z"/><path class="cls-1" d="M317.51,322H226a4.5,4.5,0,0,1,0-9h87V225.94a4.5,4.5,0,0,1,9,0v91.57A4.49,4.49,0,0,1,317.51,322Z"/><path class="cls-1" d="M317.51,100.62a4.49,4.49,0,0,1-4.5-4.5V9H222.56a4.5,4.5,0,0,1,0-9h94.95A4.49,4.49,0,0,1,322,4.5V96.12A4.49,4.49,0,0,1,317.51,100.62Z"/><path class="cls-1" d="M317.51,231.29a4.5,4.5,0,0,1-4.5-4.5c0-.13,0-.25,0-.38v-.48a4.51,4.51,0,1,1,9-.1v1A4.5,4.5,0,0,1,317.51,231.29Z"/><path class="cls-1" d="M226.79,322h-1a4.5,4.5,0,0,1-3.18-7.68l0,0a4.31,4.31,0,0,1,3.26-1.31h.86a4.5,4.5,0,0,1,0,9Z"/><path class="cls-1" d="M317.49,230.34a4.42,4.42,0,0,1-1.71-.34,4.47,4.47,0,0,1-2.79-4.08,61.53,61.53,0,0,0-61.26-60.42,4.5,4.5,0,0,1,0-9A61.52,61.52,0,0,0,313,96.09a4.5,4.5,0,1,1,9,.4A70.63,70.63,0,0,1,276.36,161,70.66,70.66,0,0,1,322,225.37a4.47,4.47,0,0,1-1.32,3.68A4.55,4.55,0,0,1,317.49,230.34Z"/><path class="cls-1" d="M161,74.78a4.5,4.5,0,0,1-4.5-4.5A61.52,61.52,0,0,0,96.09,9,4.5,4.5,0,0,1,93,1.34,4.54,4.54,0,0,1,96.48,0,70.64,70.64,0,0,1,161,45.65,70.66,70.66,0,0,1,225.37,0,4.48,4.48,0,0,1,229,1.25,4.54,4.54,0,0,1,230,6.16,4.49,4.49,0,0,1,225.92,9,61.53,61.53,0,0,0,165.5,70.28,4.49,4.49,0,0,1,161,74.78Z"/><path class="cls-1" d="M96.16,322a4.49,4.49,0,0,1-3.23-1.37A4.51,4.51,0,0,1,96.09,313a61.52,61.52,0,0,0,60.41-61.26,4.5,4.5,0,0,1,9,0A61.53,61.53,0,0,0,225.92,313a4.5,4.5,0,1,1-.4,9A70.63,70.63,0,0,1,161,276.36,70.64,70.64,0,0,1,96.64,322,3.85,3.85,0,0,1,96.16,322Z"/><path class="cls-1" d="M4.52,230.36A4.51,4.51,0,0,1,0,225.53,70.66,70.66,0,0,1,45.65,161,70.64,70.64,0,0,1,0,96.64,4.44,4.44,0,0,1,1.32,93,4.51,4.51,0,0,1,9,96.09,61.52,61.52,0,0,0,70.28,156.5a4.5,4.5,0,0,1,0,9A61.53,61.53,0,0,0,9,225.92,4.51,4.51,0,0,1,6.22,230,4.59,4.59,0,0,1,4.52,230.36Z"/><path class="cls-1" d="M161,231.29a4.51,4.51,0,0,1-4.5-4.5A61.36,61.36,0,0,0,95.22,165.5a4.5,4.5,0,0,1,0-9A61.35,61.35,0,0,0,156.5,95.22a4.5,4.5,0,0,1,9,0,61.36,61.36,0,0,0,61.29,61.28,4.5,4.5,0,0,1,0,9,61.37,61.37,0,0,0-61.29,61.29A4.5,4.5,0,0,1,161,231.29ZM120,161a70.67,70.67,0,0,1,41,41,70.71,70.71,0,0,1,41-41,70.67,70.67,0,0,1-41-41A70.62,70.62,0,0,1,120,161Z"/><path class="cls-1" d="M4.52,100.66A4.51,4.51,0,0,1,1.34,93L93,1.34a4.5,4.5,0,0,1,6.37,6.37L7.71,99.34A4.49,4.49,0,0,1,4.52,100.66Z"/><path class="cls-1" d="M89.82,165.5H70.28A70.56,70.56,0,0,1,0,96.22,4.53,4.53,0,0,1,1.34,93L93,1.34A4.7,4.7,0,0,1,96.22,0,70.56,70.56,0,0,1,165.5,70.28V89.83a4.5,4.5,0,0,1-4.5,4.5A66.76,66.76,0,0,0,94.32,161,4.49,4.49,0,0,1,89.82,165.5ZM9.08,98a61.53,61.53,0,0,0,61.2,58.54H85.46a75.78,75.78,0,0,1,71-71V70.28A61.53,61.53,0,0,0,98,9.08Z"/><path class="cls-1" d="M95.22,165.5h-5.4a4.5,4.5,0,0,1-4.5-4.5A75.76,75.76,0,0,1,161,85.33a4.49,4.49,0,0,1,4.5,4.5v5.39A70.35,70.35,0,0,1,95.22,165.5Zm-.74-9h.74A61.35,61.35,0,0,0,156.5,95.22v-.74A66.78,66.78,0,0,0,94.48,156.5Z"/><path class="cls-1" d="M317.49,100.66a4.49,4.49,0,0,1-3.19-1.32L222.67,7.71A4.5,4.5,0,0,1,229,1.34L320.67,93a4.51,4.51,0,0,1-3.18,7.69Z"/><path class="cls-1" d="M251.73,165.5H232.18a4.5,4.5,0,0,1-4.5-4.5A66.75,66.75,0,0,0,161,94.33a4.51,4.51,0,0,1-4.5-4.5V70.28A70.57,70.57,0,0,1,225.79,0,4.62,4.62,0,0,1,229,1.34L320.67,93A4.53,4.53,0,0,1,322,96.22,70.56,70.56,0,0,1,251.73,165.5Zm-15.18-9h15.18A61.53,61.53,0,0,0,312.93,98L224.05,9.08a61.54,61.54,0,0,0-58.55,61.2V85.46A75.79,75.79,0,0,1,236.55,156.5Z"/><path class="cls-1" d="M232.18,165.5h-5.39A70.36,70.36,0,0,1,156.5,95.22V89.83a4.5,4.5,0,0,1,4.5-4.5A75.76,75.76,0,0,1,236.68,161,4.49,4.49,0,0,1,232.18,165.5Zm-66.68-71v.74a61.36,61.36,0,0,0,61.29,61.28h.74A66.78,66.78,0,0,0,165.5,94.48Z"/><path class="cls-1" d="M96.15,322A4.48,4.48,0,0,1,93,320.67L1.34,229a4.5,4.5,0,0,1,6.37-6.37L99.34,314.3A4.51,4.51,0,0,1,96.15,322Z"/><path class="cls-1" d="M96.15,322A4.53,4.53,0,0,1,93,320.67L1.34,229A4.53,4.53,0,0,1,0,225.79,70.57,70.57,0,0,1,70.28,156.5H89.82a4.5,4.5,0,0,1,4.5,4.5A66.77,66.77,0,0,0,161,227.69a4.49,4.49,0,0,1,4.5,4.5v19.54A70.56,70.56,0,0,1,96.22,322ZM9.08,224.05,98,312.93a61.53,61.53,0,0,0,58.54-61.2V236.55a75.77,75.77,0,0,1-71-71.05H70.28A61.54,61.54,0,0,0,9.08,224.05Z"/><path class="cls-1" d="M161,236.69A75.77,75.77,0,0,1,85.32,161a4.51,4.51,0,0,1,4.5-4.5h5.4a70.36,70.36,0,0,1,70.28,70.29v5.4A4.5,4.5,0,0,1,161,236.69ZM94.48,165.5a66.8,66.8,0,0,0,62,62v-.75A61.36,61.36,0,0,0,95.22,165.5Z"/><path class="cls-1" d="M225.86,322h-.07a70.57,70.57,0,0,1-69.29-70.26V232.19a4.5,4.5,0,0,1,4.5-4.5A66.76,66.76,0,0,0,227.68,161a4.51,4.51,0,0,1,4.5-4.5h19.55A70.57,70.57,0,0,1,322,225.79a4.53,4.53,0,0,1-1.32,3.25L229,320.67A4.53,4.53,0,0,1,225.86,322ZM165.5,236.55v15.18a61.54,61.54,0,0,0,58.55,61.2l88.88-88.88a61.54,61.54,0,0,0-61.2-58.55H236.55A75.78,75.78,0,0,1,165.5,236.55Z"/><path class="cls-1" d="M80.4,247.72a4,4,0,0,1-2.83-6.82L95.1,223.37a4,4,0,1,1,5.66,5.65L83.23,246.55A4,4,0,0,1,80.4,247.72Z"/><path class="cls-1" d="M225.65,102a4,4,0,0,1-2.83-6.82l17.53-17.53A4,4,0,1,1,246,83.27L228.48,100.8A4,4,0,0,1,225.65,102Z"/><path class="cls-1" d="M243.18,247.72a4,4,0,0,1-2.83-1.17L222.82,229a4,4,0,1,1,5.66-5.65L246,240.9a4,4,0,0,1-2.83,6.82Z"/><path class="cls-1" d="M97.93,102a4,4,0,0,1-2.83-1.17L77.57,83.27a4,4,0,0,1,5.66-5.65l17.53,17.53A4,4,0,0,1,97.93,102Z"/><path class="cls-1" d="M473.44,139.51c-6.52-8.45-13.28-12.31-29.93-12.31-14.24,0-23.41,5.55-23.41,16.17,0,13.76,12.07,17.86,28,19.07,22.68,1.69,43.44,8.2,43.44,36,0,21-14.24,35.48-45.37,35.48-24.62,0-37.41-7.49-46.58-20l14.24-10.13C420.34,212.4,429,216,446.41,216c16.17,0,25.82-6.28,25.82-17.14,0-13-7.72-17.62-31.13-19.31-20.28-1.44-40.31-9.65-40.31-36,0-20,14.48-34.27,43.2-34.27,19.55,0,34.52,5.07,43.93,20Z"/><path class="cls-1" d="M612.45,179.33c0,31.38-15.44,54.55-50.2,54.55-32.1,0-50.2-21.24-50.2-54.55V163.4c0-34.27,18.59-54.06,50.2-54.06,31.86,0,50.2,19.55,50.2,54.06Zm-19.3,0V163.4c0-22.93-11.11-36.68-30.9-36.68s-30.89,14-30.89,36.68v15.93c0,20.76,8.69,37.17,30.89,37.17C582.77,216.5,593.15,199.85,593.15,179.33Z"/><path class="cls-1" d="M637.79,65.42H657.1V190c0,13,.73,24.14,20.52,24.14V232c-30.41,0-39.83-12.07-39.83-37.17Z"/><path class="cls-1" d="M706.34,65.42h21.72V87.14H706.34Zm1.2,45.85h19.31V232H707.54Z"/><path class="cls-1" d="M764.26,65.42H786V87.14H764.26Zm1.2,45.85h19.31V232H765.46Z"/></g></g></svg>