<svg xmlns="http://www.w3.org/2000/svg" xmlns:xlink="http://www.w3.org/1999/xlink" viewBox="0 0 110.78 175.74"><defs><style>.cls-1{fill:#f2f1f0;}.cls-2{fill:#e4e4e3;}.cls-3{fill:url(#linear-gradient);}.cls-4{fill:#3b3c3b;}.cls-5{fill:#ccc;}</style><linearGradient id="linear-gradient" x1="57.32" y1="126.29" x2="57.32" gradientUnits="userSpaceOnUse"><stop offset="0" stop-color="#477539"/><stop offset="0.8" stop-color="#98b63d"/></linearGradient></defs><title>logo-dionne</title><g id="Layer_2" data-name="Layer 2"><g id="Layer_1-2" data-name="Layer 1"><polygon class="cls-1" points="69.23 36.21 69.23 89 80.8 95.02 80.8 39.25 69.23 36.21"/><polygon class="cls-2" points="69.23 89 38.3 100 38.1 112.79 80.8 95.02 69.23 89"/><path class="cls-3" d="M38.1,112.79l-16.65,6.84V0L80.8,21.65v17.6L39.38,28.37ZM80.8,95,38.1,112.79,38,126.29,93.19,104V43.38L80.8,39.25Z"/><path class="cls-4" d="M0,136.74a41.75,41.75,0,0,1,6.56-.47c4.21,0,7.13.87,9.2,2.61s3.51,4.45,3.51,8.3c0,4-1.37,7-3.51,9s-5.82,3.08-10.21,3.08A44.15,44.15,0,0,1,0,158.92Zm4.12,19.11a15.23,15.23,0,0,0,2.27.1c5.36,0,8.53-2.91,8.53-8.64,0-5-2.84-7.83-8-7.83a12.58,12.58,0,0,0-2.81.24Z"/><path class="cls-4" d="M26.31,136.44V159H22.19V136.44Z"/><path class="cls-4" d="M50.37,147.48c0,7.56-4.59,11.88-10.81,11.88s-10.38-4.85-10.38-11.48c0-6.92,4.35-11.81,10.71-11.81C46.48,136.07,50.37,141.06,50.37,147.48Zm-16.84.34c0,4.58,2.31,8.23,6.26,8.23s6.23-3.68,6.23-8.4c0-4.25-2.11-8.27-6.23-8.27S33.53,143.16,33.53,147.82Z"/><path class="cls-4" d="M53.25,159V136.44h4.68l5.83,9.67a61.91,61.91,0,0,1,3.84,7.56h.07c-.27-3-.37-5.92-.37-9.37v-7.86h3.82V159H66.87L61,149.09a78.22,78.22,0,0,1-4-7.8l-.1,0c.17,2.92.2,5.89.2,9.61V159Z"/><path class="cls-4" d="M75.2,159V136.44h4.69l5.82,9.67a62,62,0,0,1,3.85,7.56h.07c-.27-3-.37-5.92-.37-9.37v-7.86h3.81V159H88.82l-5.89-9.9a80.38,80.38,0,0,1-4.05-7.8l-.1,0c.17,2.92.2,5.89.2,9.61V159Z"/><path class="cls-4" d="M109.77,149h-8.5v6.62h9.51V159H97.16V136.44h13.12v3.38h-9v5.82h8.5Z"/><path class="cls-5" d="M19.19,173.29l-.77,2.33h-1l2.52-7.4H21.1l2.53,7.4h-1l-.79-2.33Zm2.43-.74-.73-2.13c-.16-.49-.27-.93-.38-1.35h0c-.11.43-.23.88-.38,1.34l-.72,2.14Z"/><path class="cls-5" d="M24.5,168.32a9.73,9.73,0,0,1,1.83-.16,3,3,0,0,1,2.14.61,1.81,1.81,0,0,1,.58,1.4,1.94,1.94,0,0,1-1.39,1.89v0a1.84,1.84,0,0,1,1.09,1.49,11,11,0,0,0,.57,2h-1a9.53,9.53,0,0,1-.5-1.76c-.21-1-.61-1.41-1.48-1.44h-.9v3.2H24.5Zm.95,3.37h1c1,0,1.67-.56,1.67-1.41s-.69-1.37-1.7-1.38a3.58,3.58,0,0,0-.95.09Z"/><path class="cls-5" d="M35.39,175.38a4.65,4.65,0,0,1-2,.35A3.46,3.46,0,0,1,29.78,172a3.68,3.68,0,0,1,3.86-3.89,4,4,0,0,1,1.76.33l-.23.78a3.41,3.41,0,0,0-1.49-.31,2.75,2.75,0,0,0-2.89,3,2.69,2.69,0,0,0,2.84,3,3.73,3.73,0,0,0,1.56-.31Z"/><path class="cls-5" d="M37.32,168.22v3.1H40.9v-3.1h1v7.4h-1v-3.47H37.32v3.47h-1v-7.4Z"/><path class="cls-5" d="M44.26,168.22v7.4h-.95v-7.4Z"/><path class="cls-5" d="M47.12,169H44.87v-.81h5.48V169H48.09v6.59h-1Z"/><path class="cls-5" d="M54.79,172.15H51.91v2.67h3.21v.8H51v-7.4h4v.8h-3v2.34h2.88Z"/><path class="cls-5" d="M61.31,175.38a4.67,4.67,0,0,1-2,.35A3.46,3.46,0,0,1,55.7,172a3.68,3.68,0,0,1,3.86-3.89,4,4,0,0,1,1.76.33l-.23.78a3.41,3.41,0,0,0-1.49-.31,2.75,2.75,0,0,0-2.89,3,2.69,2.69,0,0,0,2.84,3,3.73,3.73,0,0,0,1.56-.31Z"/><path class="cls-5" d="M64,169H61.75v-.81h5.48V169H65v6.59H64Z"/><path class="cls-5" d="M68.79,168.22v4.38c0,1.66.73,2.36,1.72,2.36s1.8-.72,1.8-2.36v-4.38h1v4.32c0,2.27-1.2,3.2-2.8,3.2s-2.66-.86-2.66-3.16v-4.36Z"/><path class="cls-5" d="M74.72,168.32a9.73,9.73,0,0,1,1.83-.16,3,3,0,0,1,2.14.61,1.82,1.82,0,0,1,.59,1.4,1.94,1.94,0,0,1-1.4,1.89v0A1.84,1.84,0,0,1,79,173.59a11.89,11.89,0,0,0,.57,2h-1a9.84,9.84,0,0,1-.49-1.76c-.22-1-.62-1.41-1.49-1.44h-.9v3.2h-1Zm1,3.37h1c1,0,1.67-.56,1.67-1.41s-.69-1.37-1.7-1.38a3.7,3.7,0,0,0-1,.09Z"/><path class="cls-5" d="M81.66,173.29l-.77,2.33h-1l2.52-7.4h1.15l2.53,7.4h-1l-.79-2.33Zm2.43-.74-.73-2.13c-.16-.49-.27-.93-.38-1.35h0c-.11.43-.23.88-.38,1.34l-.72,2.14Z"/><path class="cls-5" d="M87,168.22h1v6.6h3.16v.8H87Z"/><path class="cls-5" d="M95.76,172.15H92.88v2.67h3.21v.8H91.93v-7.4h4v.8H92.88v2.34h2.88Z"/></g></g></svg>