<svg id="Français_-_Non_métallique" data-name="Français - Non métallique" xmlns="http://www.w3.org/2000/svg" viewBox="0 0 360 162"><defs><style>.cls-1{fill:#231f20;}.cls-2{fill:#989482;}</style></defs><title>logo-belisle</title><path class="cls-1" d="M118,107.82h-2v-.12a.67.67,0,0,0,.4-.09.2.2,0,0,0,0-.14.44.44,0,0,0,0-.26l-.73-1.79h-3.53l-.66,1.65a1.15,1.15,0,0,0-.09.36.21.21,0,0,0,0,.15.55.55,0,0,0,.4.12v.12h-1.76v-.12a.63.63,0,0,0,.44-.21,1.3,1.3,0,0,0,.32-.48l3-7.22h.53l3.12,7.53a.81.81,0,0,0,.25.3.72.72,0,0,0,.26.08Zm-4.08-6.8-1.55,3.83h3.1Z"/><path class="cls-1" d="M121.19,107.13a.92.92,0,0,0,.08.45c0,.08.17.12.34.12h.17v.12h-2.14v-.12h.17a.35.35,0,0,0,.31-.12.94.94,0,0,0,.07-.45v-6.57a.94.94,0,0,0-.07-.45.35.35,0,0,0-.31-.12h-.17v-.12h2.81a3.17,3.17,0,0,1,1.94.53,1.87,1.87,0,0,1,.69,1.57,1.78,1.78,0,0,1-.5,1.26,2.59,2.59,0,0,1-1.52.66c.23.2.43.39.6.56a4.29,4.29,0,0,1,.43.46l.37.46.43.56a3.21,3.21,0,0,1,.35.57c.09.21.19.4.28.58a2.17,2.17,0,0,0,.32.44.52.52,0,0,0,.4.18v.12h-1.43c-.09-.17-.16-.32-.22-.45l-.22-.42c-.08-.15-.16-.28-.23-.4a9,9,0,0,0-.6-.84l-.49-.61a6.79,6.79,0,0,0-1.13-1h-.73Zm.57-3.58a2.88,2.88,0,0,0,1.67-.43,1.42,1.42,0,0,0,.61-1.26,1.23,1.23,0,0,0-.49-1.09,2.52,2.52,0,0,0-1.45-.35,4.47,4.47,0,0,0-.59,0,.53.53,0,0,0-.32.17v2.93Z"/><path class="cls-1" d="M128.42,106.42a2.84,2.84,0,0,0,2.28,1,3.8,3.8,0,0,0,1.25-.2,2.86,2.86,0,0,0,1-.58l.17.43a3.74,3.74,0,0,1-1.22.72,4.44,4.44,0,0,1-1.44.22,3.87,3.87,0,0,1-2.9-1.11,4.15,4.15,0,0,1-1.08-3,4.11,4.11,0,0,1,1.12-3,3.78,3.78,0,0,1,2.86-1.16,5.57,5.57,0,0,1,1.25.14l.49.11.32.09a.22.22,0,0,0,.17-.11.65.65,0,0,0,.11-.22H133l.07,1.6v.34l-.13,0a2.58,2.58,0,0,0-.43-.67,2.16,2.16,0,0,0-.57-.42,2.9,2.9,0,0,0-.62-.23,2.5,2.5,0,0,0-.66-.09,2.78,2.78,0,0,0-2.23,1,4,4,0,0,0-.81,2.59,3.8,3.8,0,0,0,.82,2.58"/><path class="cls-1" d="M135.29,100.11c0-.08-.17-.12-.35-.12h-.16v-.12h2.15V100h-.17a.36.36,0,0,0-.32.12.92.92,0,0,0-.08.45v2.89h3.84v-2.89a.94.94,0,0,0-.07-.45c0-.08-.17-.12-.35-.12h-.16v-.12h2.16V100h-.17q-.26,0-.33.12a.92.92,0,0,0-.08.45v6.57a.92.92,0,0,0,.08.45q.08.12.33.12h.17v.12h-2.16v-.12h.16c.18,0,.3,0,.35-.12a.94.94,0,0,0,.07-.45v-3.08h-3.84v3.08a.92.92,0,0,0,.08.45.36.36,0,0,0,.32.12h.17v.12h-2.15v-.12h.16c.18,0,.3,0,.35-.12a.94.94,0,0,0,.07-.45v-6.57a.94.94,0,0,0-.07-.45"/><path class="cls-1" d="M144.94,107.58c.05.08.18.12.37.12h.19v.12h-2.28v-.12h.19c.19,0,.32,0,.37-.12a.94.94,0,0,0,.07-.45v-6.57a.94.94,0,0,0-.07-.45c-.05-.08-.18-.12-.37-.12h-.19v-.12h2.28V100h-.19c-.19,0-.32,0-.37.12a.94.94,0,0,0-.07.45v6.57a.94.94,0,0,0,.07.45"/><path class="cls-1" d="M150.82,107.58q.08.12.36.12h.19v.12H149.1v-.12h.19a.44.44,0,0,0,.37-.12.92.92,0,0,0,.08-.45v-6.66h-1.55a1.23,1.23,0,0,0-.58.11c-.15.06-.27.29-.35.7h-.16l0-1.41h6.18l0,1.41h-.16c-.08-.41-.2-.64-.35-.7a1.22,1.22,0,0,0-.59-.11h-1.52v6.66a.81.81,0,0,0,.08.45"/><path class="cls-1" d="M155,107.82v-.12h.17a.35.35,0,0,0,.31-.12.92.92,0,0,0,.08-.45v-6.57a.92.92,0,0,0-.08-.45.35.35,0,0,0-.31-.12H155v-.12h5.24v1.21h-.16c-.05-.31-.15-.5-.31-.56a1.58,1.58,0,0,0-.6-.09h-2.37c-.14,0-.22,0-.23,0a.51.51,0,0,0,0,.22v2.69h2.39a1.08,1.08,0,0,0,.59-.11.71.71,0,0,0,.17-.47h.15v1.77h-.15a1.76,1.76,0,0,0-.06-.3.37.37,0,0,0-.11-.18.41.41,0,0,0-.22-.1,1.9,1.9,0,0,0-.37,0h-2.39V107c0,.11,0,.18.12.2a2.25,2.25,0,0,0,.46,0H159a3.33,3.33,0,0,0,.48,0,.91.91,0,0,0,.37-.13,1,1,0,0,0,.3-.25,2.06,2.06,0,0,0,.24-.43h.19l-.29,1.4Z"/><path class="cls-1" d="M163.48,106.42a2.81,2.81,0,0,0,2.27,1,3.8,3.8,0,0,0,1.25-.2,2.78,2.78,0,0,0,1-.58l.17.43a3.64,3.64,0,0,1-1.22.72,4.42,4.42,0,0,1-1.43.22,3.87,3.87,0,0,1-2.91-1.11,4.63,4.63,0,0,1,0-6,3.81,3.81,0,0,1,2.87-1.16,5.54,5.54,0,0,1,1.24.14l.49.11.32.09a.26.26,0,0,0,.18-.11.61.61,0,0,0,.1-.22H168l.07,1.6v.34l-.13,0a2.58,2.58,0,0,0-.43-.67,2.11,2.11,0,0,0-.56-.42,3.2,3.2,0,0,0-.63-.23,2.43,2.43,0,0,0-.65-.09,2.81,2.81,0,0,0-2.24,1,4,4,0,0,0-.81,2.59,3.76,3.76,0,0,0,.83,2.58"/><path class="cls-1" d="M173.46,107.58q.07.12.36.12H174v.12h-2.27v-.12h.19a.44.44,0,0,0,.37-.12.92.92,0,0,0,.08-.45v-6.66h-1.55a1.23,1.23,0,0,0-.58.11c-.15.06-.27.29-.35.7h-.16l0-1.41H176l0,1.41h-.15c-.08-.41-.2-.64-.35-.7a1.22,1.22,0,0,0-.59-.11h-1.52v6.66a.81.81,0,0,0,.08.45"/><path class="cls-1" d="M183.5,100.93a2.46,2.46,0,0,0-.08-.74.36.36,0,0,0-.36-.2h-.17v-.12h1.86V100h-.17a.34.34,0,0,0-.35.2,2.11,2.11,0,0,0-.09.74V105a2.89,2.89,0,0,1-.77,2.16,3.55,3.55,0,0,1-4.39,0,2.93,2.93,0,0,1-.78-2.19v-4.45a.81.81,0,0,0-.08-.45.4.4,0,0,0-.34-.12h-.18v-.12h2.19V100h-.17c-.18,0-.29,0-.34.12a.81.81,0,0,0-.08.45V105c0,1.56.71,2.33,2.13,2.33a2.11,2.11,0,0,0,1.59-.58,2.15,2.15,0,0,0,.58-1.61Z"/><path class="cls-1" d="M187.76,107.13a.92.92,0,0,0,.08.45c0,.08.16.12.34.12h.17v.12h-2.14v-.12h.17a.35.35,0,0,0,.31-.12.94.94,0,0,0,.07-.45v-6.57a.94.94,0,0,0-.07-.45.35.35,0,0,0-.31-.12h-.17v-.12H189a3.12,3.12,0,0,1,1.93.53,1.85,1.85,0,0,1,.7,1.57,1.78,1.78,0,0,1-.5,1.26,2.59,2.59,0,0,1-1.52.66c.22.2.43.39.6.56a4.29,4.29,0,0,1,.43.46c.11.13.23.28.36.46l.44.56a3.21,3.21,0,0,1,.35.57c.09.21.19.4.28.58a2.17,2.17,0,0,0,.32.44.52.52,0,0,0,.4.18v.12h-1.43l-.23-.45q-.09-.2-.21-.42c-.08-.15-.16-.28-.23-.4a9,9,0,0,0-.6-.84l-.49-.61a6.79,6.79,0,0,0-1.13-1h-.73Zm.56-3.58a2.9,2.9,0,0,0,1.68-.43,1.42,1.42,0,0,0,.61-1.26,1.23,1.23,0,0,0-.49-1.09,2.54,2.54,0,0,0-1.46-.35,4.3,4.3,0,0,0-.58,0,.53.53,0,0,0-.32.17v2.93Z"/><path class="cls-1" d="M201.52,107.82h-2v-.12a.64.64,0,0,0,.39-.09.16.16,0,0,0,.05-.14.38.38,0,0,0-.05-.26l-.72-1.79h-3.54l-.65,1.65a1,1,0,0,0-.1.36.21.21,0,0,0,.05.15.55.55,0,0,0,.4.12v.12H193.6v-.12a.63.63,0,0,0,.44-.21,1.44,1.44,0,0,0,.32-.48l3-7.22h.52l3.13,7.53a.81.81,0,0,0,.25.3.67.67,0,0,0,.25.08Zm-4.07-6.8-1.55,3.83H199Z"/><path class="cls-1" d="M204.74,107c0,.11,0,.18.12.2a2.25,2.25,0,0,0,.46,0H207a2.86,2.86,0,0,0,1-.14,1.36,1.36,0,0,0,.61-.76l.15,0-.33,1.42h-5.29v-.12h.16q.25,0,.33-.12a.94.94,0,0,0,.07-.45v-6.57a.94.94,0,0,0-.07-.45q-.07-.12-.33-.12h-.16v-.12h2.16V100h-.18a.4.4,0,0,0-.34.12.92.92,0,0,0-.08.45Z"/><path class="cls-1" d="M222.46,100.33a.59.59,0,0,0,0-.14c0-.13-.19-.19-.44-.2v-.12h1.63V100a.71.71,0,0,0-.32.1.64.64,0,0,0-.2.33c-.43,1.25-.84,2.5-1.24,3.75s-.8,2.49-1.17,3.73h-.52l-2-6-1.92,6h-.52l-2.36-7.3a1,1,0,0,0-.25-.47.58.58,0,0,0-.37-.14v-.12h1.95V100a1.13,1.13,0,0,0-.35.05.16.16,0,0,0-.08.15.58.58,0,0,0,0,.2l1.88,5.83,1.63-5.08-.37-.85a.62.62,0,0,0-.2-.24A.76.76,0,0,0,217,100v-.12h2.17V100a.85.85,0,0,0-.42.08.18.18,0,0,0-.09.16.35.35,0,0,0,0,.17l1.92,5.87,1.82-5.62a1.23,1.23,0,0,0,.06-.32"/><path class="cls-1" d="M227,107.58c.05.08.17.12.37.12h.19v.12h-2.28v-.12h.19c.19,0,.32,0,.37-.12a.94.94,0,0,0,.07-.45v-6.57a.94.94,0,0,0-.07-.45c-.05-.08-.18-.12-.37-.12h-.19v-.12h2.28V100h-.19c-.2,0-.32,0-.37.12a.92.92,0,0,0-.08.45v6.57a.92.92,0,0,0,.08.45"/><path class="cls-1" d="M235.14,100.86a2.21,2.21,0,0,0-.07-.69.36.36,0,0,0-.36-.18h-.2v-.12h1.9V100h-.19a.34.34,0,0,0-.35.18,2.13,2.13,0,0,0-.08.69v7h-.6l-4.71-6.74v5.72a1.89,1.89,0,0,0,.08.65.34.34,0,0,0,.35.19h.18v.12H229.2v-.12h.19c.19,0,.31-.06.36-.19a1.67,1.67,0,0,0,.08-.65v-6.38l-.2-.36a.23.23,0,0,0-.12-.12h-.31v-.12h1.55c.74,1.11,1.47,2.17,2.2,3.21s1.46,2.1,2.19,3.2Z"/><path class="cls-1" d="M238.55,100.11q-.08-.12-.33-.12h-.17v-.12h2.73a4.62,4.62,0,0,1,3.24,1,3.82,3.82,0,0,1,1.13,3,3.67,3.67,0,0,1-1.21,2.93,4.79,4.79,0,0,1-3.26,1h-2.63v-.12h.17q.25,0,.33-.12a.92.92,0,0,0,.08-.45v-6.57a.92.92,0,0,0-.08-.45m4.62,1.18a3.84,3.84,0,0,0-2.71-.87,2.17,2.17,0,0,0-.51,0,.87.87,0,0,0-.32.16V107a.35.35,0,0,0,.22.25,1.86,1.86,0,0,0,.47,0,4.13,4.13,0,0,0,2.83-.86,3.92,3.92,0,0,0,0-5.12"/><path class="cls-1" d="M253,106.82a3.76,3.76,0,0,1-5.39,0,4.29,4.29,0,0,1-1-3,4.33,4.33,0,0,1,1-3,3.73,3.73,0,0,1,5.39,0,4.81,4.81,0,0,1,0,5.95m-.75-5.55a2.39,2.39,0,0,0-3.89,0,5,5,0,0,0,0,5.16,2.41,2.41,0,0,0,3.89,0,4.92,4.92,0,0,0,0-5.16"/><path class="cls-1" d="M264,100.33a.59.59,0,0,0,0-.14c0-.13-.18-.19-.44-.2v-.12h1.64V100a.76.76,0,0,0-.33.1.64.64,0,0,0-.2.33c-.42,1.25-.84,2.5-1.24,3.75s-.79,2.49-1.17,3.73h-.51l-2-6-1.92,6h-.52L255,100.6a1,1,0,0,0-.25-.47.58.58,0,0,0-.37-.14v-.12h1.95V100a1.13,1.13,0,0,0-.35.05.16.16,0,0,0-.07.15.88.88,0,0,0,0,.2l1.88,5.83,1.63-5.08-.37-.85a.55.55,0,0,0-.2-.24.74.74,0,0,0-.34-.06v-.12h2.16V100a.79.79,0,0,0-.41.08.17.17,0,0,0-.1.16.35.35,0,0,0,0,.17l1.92,5.87,1.82-5.62a1.23,1.23,0,0,0,.06-.32"/><path class="cls-1" d="M270,107.35a2.64,2.64,0,0,1-1.78.61,4.32,4.32,0,0,1-1.08-.14l-.45-.14-.32-.08a.19.19,0,0,0-.16.08.3.3,0,0,0,0,.13H266l-.2-1.77L266,106a2.46,2.46,0,0,0,.34.56,2.43,2.43,0,0,0,.49.47,2.12,2.12,0,0,0,.62.31,2.27,2.27,0,0,0,.75.12,2.08,2.08,0,0,0,.63-.1,1.66,1.66,0,0,0,.5-.3,1.39,1.39,0,0,0,.33-.46,1.18,1.18,0,0,0,.13-.56,1.32,1.32,0,0,0-.49-1.08,6.58,6.58,0,0,0-.53-.41c-.2-.13-.43-.27-.68-.4s-.55-.32-.79-.48a5.63,5.63,0,0,1-.65-.51,1.88,1.88,0,0,1-.58-1.44,1.8,1.8,0,0,1,.65-1.39,2.32,2.32,0,0,1,1.6-.57,3,3,0,0,1,1,.15l.41.12.3.08a.22.22,0,0,0,.17-.09,1.12,1.12,0,0,0,.05-.13h.13l.15,1.77h-.18a1.85,1.85,0,0,0-.67-.94,2,2,0,0,0-1.31-.39,1.36,1.36,0,0,0-1,.36,1.16,1.16,0,0,0-.38.89,1.32,1.32,0,0,0,.58,1,9.9,9.9,0,0,0,1.33.85l-.08,0a7.34,7.34,0,0,1,.85.5,3.48,3.48,0,0,1,.63.56,2.29,2.29,0,0,1,.39.65,2.34,2.34,0,0,1,.13.77,1.89,1.89,0,0,1-.74,1.5"/><path class="cls-1" d="M283.22,107.82h-2v-.12a.67.67,0,0,0,.4-.09.2.2,0,0,0,.05-.14.44.44,0,0,0-.05-.26l-.73-1.79h-3.53l-.66,1.65a1.15,1.15,0,0,0-.09.36.21.21,0,0,0,0,.15.55.55,0,0,0,.4.12v.12h-1.76v-.12a.68.68,0,0,0,.45-.21,1.42,1.42,0,0,0,.31-.48l3-7.22h.53l3.12,7.53a.91.91,0,0,0,.25.3.72.72,0,0,0,.26.08Zm-4.08-6.8-1.55,3.83h3.1Z"/><path class="cls-1" d="M290.81,100.86a2.21,2.21,0,0,0-.07-.69q-.08-.18-.36-.18h-.2v-.12h1.9V100h-.18a.35.35,0,0,0-.36.18,2.13,2.13,0,0,0-.08.69v7h-.6l-4.71-6.74v5.72a1.89,1.89,0,0,0,.08.65.35.35,0,0,0,.36.19h.17v.12h-1.89v-.12h.19a.36.36,0,0,0,.37-.19,1.89,1.89,0,0,0,.08-.65v-6.38l-.2-.36a.25.25,0,0,0-.13-.12h-.31v-.12h1.55c.74,1.11,1.47,2.17,2.2,3.21s1.46,2.1,2.19,3.2Z"/><path class="cls-1" d="M294.23,100.11a.4.4,0,0,0-.34-.12h-.16v-.12h2.72a4.62,4.62,0,0,1,3.24,1,3.82,3.82,0,0,1,1.13,3,3.64,3.64,0,0,1-1.21,2.93,4.78,4.78,0,0,1-3.25,1h-2.63v-.12h.16a.4.4,0,0,0,.34-.12.94.94,0,0,0,.07-.45v-6.57a.94.94,0,0,0-.07-.45m4.62,1.18a3.86,3.86,0,0,0-2.72-.87,2.17,2.17,0,0,0-.51,0,1,1,0,0,0-.32.16V107a.35.35,0,0,0,.22.25,1.86,1.86,0,0,0,.47,0,4.13,4.13,0,0,0,2.83-.86,3.91,3.91,0,0,0,0-5.12"/><path class="cls-1" d="M306.2,100.11q-.07-.12-.33-.12h-.16v-.12h2.72a4.62,4.62,0,0,1,3.24,1,3.82,3.82,0,0,1,1.13,3,3.67,3.67,0,0,1-1.21,2.93,4.79,4.79,0,0,1-3.26,1h-2.62v-.12h.16q.25,0,.33-.12a.92.92,0,0,0,.08-.45v-6.57a.92.92,0,0,0-.08-.45m4.63,1.18a3.88,3.88,0,0,0-2.72-.87,2.34,2.34,0,0,0-.52,0,.91.91,0,0,0-.31.16V107a.35.35,0,0,0,.22.25,1.86,1.86,0,0,0,.47,0,4.15,4.15,0,0,0,2.83-.86,3.94,3.94,0,0,0,0-5.12"/><path class="cls-1" d="M320.63,106.82a3.76,3.76,0,0,1-5.39,0,4.29,4.29,0,0,1-1-3,4.33,4.33,0,0,1,1-3,3.73,3.73,0,0,1,5.39,0,4.81,4.81,0,0,1,0,5.95m-.75-5.55a2.39,2.39,0,0,0-3.89,0,5,5,0,0,0,0,5.16,2.41,2.41,0,0,0,3.89,0,4.92,4.92,0,0,0,0-5.16"/><path class="cls-1" d="M329.72,106.82a3.76,3.76,0,0,1-5.39,0,4.29,4.29,0,0,1-1-3,4.33,4.33,0,0,1,1-3,3.73,3.73,0,0,1,5.39,0,4.81,4.81,0,0,1,0,5.95m-.75-5.55a2.39,2.39,0,0,0-3.89,0,5,5,0,0,0,0,5.16,2.41,2.41,0,0,0,3.89,0,4.92,4.92,0,0,0,0-5.16"/><path class="cls-1" d="M333.39,107.13a.92.92,0,0,0,.08.45c0,.08.17.12.35.12H334v.12h-2.14v-.12H332a.35.35,0,0,0,.31-.12.92.92,0,0,0,.08-.45v-6.57a.92.92,0,0,0-.08-.45A.35.35,0,0,0,332,100h-.17v-.12h2.81a3.17,3.17,0,0,1,1.94.53,1.87,1.87,0,0,1,.69,1.57,1.78,1.78,0,0,1-.5,1.26,2.59,2.59,0,0,1-1.52.66c.23.2.43.39.61.56a4.09,4.09,0,0,1,.42.46c.11.13.24.28.37.46l.43.56a2.72,2.72,0,0,1,.35.57c.1.21.19.4.29.58a2.14,2.14,0,0,0,.31.44.53.53,0,0,0,.4.18v.12H337c-.09-.17-.16-.32-.22-.45l-.22-.42c-.08-.15-.16-.28-.23-.4a9,9,0,0,0-.6-.84l-.49-.61a6.4,6.4,0,0,0-1.13-1h-.73Zm.57-3.58a2.94,2.94,0,0,0,1.68-.43,1.44,1.44,0,0,0,.61-1.26,1.25,1.25,0,0,0-.49-1.09,2.58,2.58,0,0,0-1.46-.35,4.2,4.2,0,0,0-.58,0,.53.53,0,0,0-.33.17v2.93Z"/><path class="cls-1" d="M344.07,107.35a2.64,2.64,0,0,1-1.78.61,4.45,4.45,0,0,1-1.08-.14l-.45-.14-.32-.08a.19.19,0,0,0-.16.08.3.3,0,0,0,0,.13h-.14l-.2-1.77L340,106a2.12,2.12,0,0,0,.33.56,2.43,2.43,0,0,0,.49.47,2.39,2.39,0,0,0,1.37.43,2.08,2.08,0,0,0,.63-.1,1.66,1.66,0,0,0,.5-.3,1.57,1.57,0,0,0,.34-.46,1.31,1.31,0,0,0,.12-.56,1.34,1.34,0,0,0-.48-1.08c-.16-.13-.34-.27-.54-.41s-.42-.27-.67-.4-.56-.32-.8-.48a6.65,6.65,0,0,1-.65-.51,1.88,1.88,0,0,1-.58-1.44,1.8,1.8,0,0,1,.65-1.39,2.34,2.34,0,0,1,1.6-.57,3,3,0,0,1,1,.15l.41.12.3.08a.22.22,0,0,0,.17-.09.43.43,0,0,0,.05-.13h.13l.15,1.77h-.17a1.93,1.93,0,0,0-.68-.94,2,2,0,0,0-1.31-.39,1.38,1.38,0,0,0-1,.36,1.16,1.16,0,0,0-.38.89,1.33,1.33,0,0,0,.57,1,10.74,10.74,0,0,0,1.34.85l-.08,0a6.59,6.59,0,0,1,.85.5,3.48,3.48,0,0,1,.63.56,2.29,2.29,0,0,1,.39.65,2.34,2.34,0,0,1,.13.77,1.89,1.89,0,0,1-.74,1.5"/><path class="cls-1" d="M110.35,88.78V88.2h.93c.93,0,1.53-.21,1.8-.61a4.37,4.37,0,0,0,.4-2.24V52.94a4.11,4.11,0,0,0-.43-2.24,2.17,2.17,0,0,0-1.83-.61h-.92v-.58h13.62q6.67,0,10.27,2.5c2.4,1.66,3.59,4.19,3.59,7.6A8.43,8.43,0,0,1,136,65.12q-1.77,2.14-6,3.07a12.35,12.35,0,0,1,7,3.48,8.94,8.94,0,0,1,2.41,6.26,9.36,9.36,0,0,1-3.86,8q-3.86,2.85-10.47,2.85Zm8.06-4.06a2.12,2.12,0,0,0,1.4,1.1,16.42,16.42,0,0,0,3.36.23q5.28,0,8.12-2a6.85,6.85,0,0,0,2.84-6q0-4.41-3.22-6.35t-9.54-2h-3ZM124,66.85A10.34,10.34,0,0,0,130.59,65a6.55,6.55,0,0,0,2.32-5.48,6.3,6.3,0,0,0-2.55-5.48,12,12,0,0,0-7.07-1.83c-1.44,0-2.5,0-3.19.06a2.19,2.19,0,0,0-1.63.75v13.8Z"/><path class="cls-1" d="M149.07,88.78V88.2h.82a1.68,1.68,0,0,0,1.53-.61,4.64,4.64,0,0,0,.38-2.24V52.94a4.64,4.64,0,0,0-.38-2.24,1.68,1.68,0,0,0-1.53-.61h-.82v-.57h25.87l.06,6h-.81c-.23-1.55-.74-2.48-1.51-2.79a8.52,8.52,0,0,0-3-.4H158c-.7,0-1.09.08-1.16.23a3,3,0,0,0-.12,1.1V66.91H168.5a4.86,4.86,0,0,0,2.93-.58,3.46,3.46,0,0,0,.84-2.32H173v8.76h-.76a9.47,9.47,0,0,0-.29-1.45,2,2,0,0,0-.55-.93,2.3,2.3,0,0,0-1.1-.49,9.22,9.22,0,0,0-1.83-.15H156.73V84.89c0,.54.19.86.58,1a12,12,0,0,0,2.26.14h9.57a18.53,18.53,0,0,0,2.41-.14,5.15,5.15,0,0,0,1.82-.61A5.05,5.05,0,0,0,174.82,84,8.83,8.83,0,0,0,176,81.88H177l-1.45,6.9Z"/><path class="cls-1" d="M195,84.89c0,.54.19.86.58,1a11.89,11.89,0,0,0,2.26.14h8.47a13.76,13.76,0,0,0,5-.69c1.17-.51,2.17-1.74,3-3.71l.75.17-1.62,7H187.28V88.2h.81a1.75,1.75,0,0,0,1.59-.61,4.64,4.64,0,0,0,.38-2.24V52.94a4.64,4.64,0,0,0-.38-2.24,1.75,1.75,0,0,0-1.59-.61h-.81v-.57H198v.57h-.88a1.91,1.91,0,0,0-1.68.61,4.37,4.37,0,0,0-.4,2.24Z"/><path class="cls-1" d="M233,87.59c.25.4.86.61,1.83.61h.93v.58H224.47V88.2h.92c1,0,1.58-.21,1.83-.61a4.64,4.64,0,0,0,.38-2.24V52.94a4.64,4.64,0,0,0-.38-2.24c-.25-.4-.86-.61-1.83-.61h-.92v-.57h11.25v.57h-.93c-1,0-1.58.21-1.83.61a4.67,4.67,0,0,0-.37,2.24V85.35a4.67,4.67,0,0,0,.37,2.24"/><path class="cls-1" d="M267.09,86.46a13,13,0,0,1-8.76,3,20.79,20.79,0,0,1-5.33-.69c-.89-.27-1.64-.5-2.26-.67l-1.57-.44a.91.91,0,0,0-.78.44,1.3,1.3,0,0,0-.2.61h-.7l-1-8.76.58-.35a13.06,13.06,0,0,0,1.66,2.76,11.36,11.36,0,0,0,2.4,2.29,11.74,11.74,0,0,0,3.08,1.56,11.23,11.23,0,0,0,3.71.59,8.89,8.89,0,0,0,3.1-.53,7.39,7.39,0,0,0,2.47-1.48,7.27,7.27,0,0,0,1.65-2.23,6.46,6.46,0,0,0,.61-2.78,6.67,6.67,0,0,0-2.38-5.34c-.77-.65-1.65-1.32-2.64-2a36.6,36.6,0,0,0-3.33-2c-1.43-.77-2.74-1.56-3.92-2.35a26.8,26.8,0,0,1-3.22-2.52,9.37,9.37,0,0,1-2.9-7.14,8.9,8.9,0,0,1,3.25-6.84,11.46,11.46,0,0,1,7.89-2.84,15,15,0,0,1,4.75.75l2,.61c.58.18,1.07.3,1.45.38a1,1,0,0,0,.84-.43,2.6,2.6,0,0,0,.27-.67h.63l.76,8.76-.87.05A9.78,9.78,0,0,0,265,53.54a10.23,10.23,0,0,0-6.46-1.88,6.87,6.87,0,0,0-4.85,1.74,5.76,5.76,0,0,0-1.88,4.41q0,2.61,2.84,4.93A50.54,50.54,0,0,0,261.29,67l-.4-.17a36.42,36.42,0,0,1,4.2,2.49,16.74,16.74,0,0,1,3.1,2.75,10.65,10.65,0,0,1,1.92,3.19,11,11,0,0,1,.64,3.8,9.28,9.28,0,0,1-3.66,7.43"/><path class="cls-1" d="M290.12,84.89c0,.54.19.86.58,1A11.82,11.82,0,0,0,293,86h8.46a13.78,13.78,0,0,0,5-.69c1.16-.51,2.17-1.74,3-3.71l.75.17-1.62,7H282.4V88.2h.81a1.76,1.76,0,0,0,1.6-.61,4.64,4.64,0,0,0,.38-2.24V52.94a4.64,4.64,0,0,0-.38-2.24,1.76,1.76,0,0,0-1.6-.61h-.81v-.57h10.67v.57h-.87a1.91,1.91,0,0,0-1.68.61,4.37,4.37,0,0,0-.4,2.24Z"/><path class="cls-1" d="M317.39,88.78V88.2h.81a1.68,1.68,0,0,0,1.54-.61,4.64,4.64,0,0,0,.38-2.24V52.94a4.64,4.64,0,0,0-.38-2.24,1.68,1.68,0,0,0-1.54-.61h-.81v-.57h25.87l.05,6h-.81q-.35-2.33-1.5-2.79a8.56,8.56,0,0,0-3-.4H326.32c-.69,0-1.08.08-1.16.23a3.09,3.09,0,0,0-.11,1.1V66.91h11.77a4.88,4.88,0,0,0,2.93-.58,3.57,3.57,0,0,0,.84-2.32h.75v8.76h-.75a9.47,9.47,0,0,0-.29-1.45,2.1,2.1,0,0,0-.55-.93,2.3,2.3,0,0,0-1.1-.49,9.36,9.36,0,0,0-1.83-.15H325.05V84.89c0,.54.19.86.58,1a11.89,11.89,0,0,0,2.26.14h9.57a18.36,18.36,0,0,0,2.4-.14,5.14,5.14,0,0,0,1.83-.61A5.33,5.33,0,0,0,343.14,84a9.18,9.18,0,0,0,1.22-2.11h.93l-1.45,6.9Z"/><path class="cls-2" d="M61.86,78.52,51.68,68.33l4.83-4.83,3.63,3.63,5.92-5.92.25-.27.13-.15.72.66-.12.14-.29.31-6.61,6.61-3.63-3.63-3.45,3.45,9.49,9.5Z"/><path class="cls-2" d="M66,74.38l-4-4,6.61-6.61c.1-.1.2-.2.31-.29l.14-.13.66.71-.15.15-.27.24-5.92,5.93,3.28,3.28Z"/><path class="cls-2" d="M48.22,64.88l-1-1A34,34,0,0,0,44,60.94a4.83,4.83,0,0,0-2.28-1.07,3,3,0,0,0-2,.54,13.42,13.42,0,0,0-1.39,1.08l-.36.31-.32-.35a11.94,11.94,0,0,1-1.06-1.3l-.23-.33L49.92,46.17l.69.69L37.55,59.92c.13.17.27.34.43.52a12.82,12.82,0,0,1,1.13-.85,3.94,3.94,0,0,1,2.71-.69,5.87,5.87,0,0,1,2.75,1.26,37.77,37.77,0,0,1,3.34,3l.31.31,3.46-3.45a30.89,30.89,0,0,1-2.53-2.85,5.46,5.46,0,0,1-1.23-2.72,4,4,0,0,1,.73-2.67,18.14,18.14,0,0,1,2.44-2.87L52,48l.69.69-.93.92a18.37,18.37,0,0,0-2.32,2.73,3,3,0,0,0-.57,2,4.61,4.61,0,0,0,1,2.23,33.42,33.42,0,0,0,2.79,3.1l.34.34-.47.48Z"/><path class="cls-2" d="M54.52,110.47l-.34-.24a12.23,12.23,0,0,1-1.74-1.47l-.77-.76L53,106.73A18.38,18.38,0,0,0,55.27,104a3,3,0,0,0,.57-2,4.52,4.52,0,0,0-1-2.23A34.77,34.77,0,0,0,52,96.64l-.34-.34.48-.48,4.35-4.35,1,1a34,34,0,0,0,3.25,2.94A4.82,4.82,0,0,0,63,96.48a3,3,0,0,0,2.06-.54,12.16,12.16,0,0,0,1.38-1.08l.64.74a14.35,14.35,0,0,1-1.49,1.16,4,4,0,0,1-2.72.69,5.91,5.91,0,0,1-2.75-1.26,37.6,37.6,0,0,1-3.34-3l-.31-.32L53.05,96.3a32.92,32.92,0,0,1,2.54,2.84,5.6,5.6,0,0,1,1.22,2.73,4,4,0,0,1-.72,2.67,18.84,18.84,0,0,1-2.45,2.87l-.59.59.08.07a11,11,0,0,0,1.29,1.12L67.48,96.13l.69.69Z"/><path class="cls-2" d="M71,94l-.69-.69L83.39,80.22a12.13,12.13,0,0,0-1.13-1.29l-.07-.07-.58.59a18.5,18.5,0,0,1-2.88,2.44,4,4,0,0,1-2.67.73,5.57,5.57,0,0,1-2.72-1.22,35.75,35.75,0,0,1-3.19-2.88l.21-.21L70,78l.48-.47.35.34a34.88,34.88,0,0,0,3.09,2.79,4.61,4.61,0,0,0,2.23,1,3,3,0,0,0,2-.57,18.37,18.37,0,0,0,2.73-2.32l1.27-1.27.76.76A13,13,0,0,1,84.43,80l.23.34Z"/><path class="cls-2" d="M69.79,92.94l-.74-.65a12.16,12.16,0,0,0,1.08-1.39,2.93,2.93,0,0,0,.54-2.05,4.92,4.92,0,0,0-1.07-2.28,34.32,34.32,0,0,0-2.94-3.25L66,82.66l.69-.69.66.66a35.2,35.2,0,0,1,3,3.35,5.84,5.84,0,0,1,1.26,2.74A3.94,3.94,0,0,1,71,91.43a14,14,0,0,1-1.16,1.51"/><path class="cls-2" d="M68.22,60.15l-.8-.56a8.54,8.54,0,0,0,.94-1.71,7.42,7.42,0,0,0,.54-3.3A8.56,8.56,0,0,0,68,51.36a12,12,0,0,0-2.15-3,11.21,11.21,0,0,0-2.93-2.12,8.15,8.15,0,0,0-3.16-.88,7.76,7.76,0,0,0-3.29.57,8.58,8.58,0,0,0-1.71.94l-.56-.8a9.12,9.12,0,0,1,1.92-1,8.51,8.51,0,0,1,3.69-.63,9,9,0,0,1,3.55,1,12,12,0,0,1,3.17,2.3,12.37,12.37,0,0,1,2.33,3.2,9.15,9.15,0,0,1,1,3.59,8.35,8.35,0,0,1-.61,3.73,9.21,9.21,0,0,1-1,1.91"/><path class="cls-2" d="M86,78.92l-.37-.43c-.44-.5-.9-1-1.37-1.47l-.89-.89.24-.33a8.25,8.25,0,0,0,.93-1.71,7.74,7.74,0,0,0,.57-3.28,8.18,8.18,0,0,0-.87-3.17,11.21,11.21,0,0,0-2.13-2.92,11.32,11.32,0,0,0-2.95-2.15A8.35,8.35,0,0,0,76,61.64a7.59,7.59,0,0,0-3.3.54,8.28,8.28,0,0,0-1.71.94l-.56-.8a9.47,9.47,0,0,1,1.91-1A8.47,8.47,0,0,1,76,60.67a9.44,9.44,0,0,1,3.59,1A12.61,12.61,0,0,1,82.82,64a12.25,12.25,0,0,1,2.31,3.17,9.2,9.2,0,0,1,1,3.55,8.71,8.71,0,0,1-.63,3.7A10.21,10.21,0,0,1,84.66,76l.31.31c.35.35.7.72,1,1.1A18.76,18.76,0,0,0,88.28,74a14.25,14.25,0,0,0,1.58-5.18,10.87,10.87,0,0,0-.6-4.71,11.11,11.11,0,0,0-2.56-4,10.6,10.6,0,0,0-6.55-3.08,13.42,13.42,0,0,0-7.57,1.52l-1.35.7.7-1.35a13.39,13.39,0,0,0,1.52-7.56,10.47,10.47,0,0,0-3.08-6.55,10.92,10.92,0,0,0-4-2.57,10.72,10.72,0,0,0-4.71-.59,14.09,14.09,0,0,0-5.18,1.57,19.61,19.61,0,0,0-3.85,2.64l-.63-.74a20.52,20.52,0,0,1,4-2.77,15,15,0,0,1,5.54-1.67,11.58,11.58,0,0,1,5.13.65,11.88,11.88,0,0,1,4.3,2.78,11.54,11.54,0,0,1,3.36,7.14,14,14,0,0,1-1.06,6.89,14,14,0,0,1,6.89-1.06,11.56,11.56,0,0,1,7.14,3.36,12,12,0,0,1,2.78,4.3,11.61,11.61,0,0,1,.66,5.14,15.36,15.36,0,0,1-1.68,5.54,20.26,20.26,0,0,1-2.76,4Z"/><path class="cls-2" d="M38.29,95.56l-.72-.66.13-.14a4.11,4.11,0,0,1,.29-.31l6.61-6.61,3.62,3.63L51.68,88l-9.5-9.49.69-.69L53.06,88l-4.84,4.83L44.6,89.22l-5.93,5.92-.25.27Z"/><path class="cls-2" d="M35.64,93,35,92.25l.15-.13.27-.25,5.92-5.93L38,82.66l.69-.69,4,4-6.61,6.62-.31.29Z"/><path class="cls-2" d="M18.72,78.92a20,20,0,0,0-2.27,3.41,14.33,14.33,0,0,0-1.57,5.19,10.59,10.59,0,0,0,.6,4.71,10.93,10.93,0,0,0,2.56,4,10.5,10.5,0,0,0,6.55,3.08,13.39,13.39,0,0,0,7.56-1.52L33.5,97l-.7,1.35A13.42,13.42,0,0,0,31.28,106a10.52,10.52,0,0,0,3.08,6.54,10.93,10.93,0,0,0,4,2.56,10.59,10.59,0,0,0,4.71.6,14.14,14.14,0,0,0,5.19-1.57,19.23,19.23,0,0,0,3.41-2.27c-.38-.34-.75-.69-1.1-1l-.31-.32a9.09,9.09,0,0,1-1.57.82,8.71,8.71,0,0,1-3.7.63,9.15,9.15,0,0,1-3.55-1,12.69,12.69,0,0,1-5.5-5.51,9.44,9.44,0,0,1-1-3.59,8.49,8.49,0,0,1,.61-3.73,9.21,9.21,0,0,1,1-1.91l.8.56a8.54,8.54,0,0,0-.94,1.71,7.72,7.72,0,0,0-.54,3.3,8.3,8.3,0,0,0,.93,3.22,11.32,11.32,0,0,0,2.15,3,10.94,10.94,0,0,0,2.92,2.12,8.2,8.2,0,0,0,3.17.88,7.74,7.74,0,0,0,3.28-.57,8.32,8.32,0,0,0,1.71-.94l.33-.23.89.89c.47.47,1,.93,1.47,1.37l.43.37-.43.36a20.46,20.46,0,0,1-4,2.77,15.22,15.22,0,0,1-5.54,1.68c-.38,0-.76,0-1.13,0a11.48,11.48,0,0,1-4-.71,12,12,0,0,1-4.3-2.78,11.56,11.56,0,0,1-3.36-7.15,14,14,0,0,1,1.06-6.88,14,14,0,0,1-6.88,1.06,11.51,11.51,0,0,1-7.14-3.36,12,12,0,0,1-2.79-4.3,11.77,11.77,0,0,1-.65-5.14,15.14,15.14,0,0,1,1.67-5.54,20.33,20.33,0,0,1,2.77-4l.37-.43.37.43"/><path class="cls-2" d="M21.34,80.22l-.23.33a8.32,8.32,0,0,0-.94,1.71,7.72,7.72,0,0,0-.57,3.28,8.15,8.15,0,0,0,.88,3.17,11.33,11.33,0,0,0,2.12,2.92,11.78,11.78,0,0,0,2.95,2.16,8.55,8.55,0,0,0,3.23.92,7.55,7.55,0,0,0,3.29-.54,8.13,8.13,0,0,0,1.72-.94l.55.8a9.21,9.21,0,0,1-1.91,1,8.49,8.49,0,0,1-3.73.61,9.32,9.32,0,0,1-3.59-1,12.69,12.69,0,0,1-5.51-5.5,9.15,9.15,0,0,1-1-3.55,8.66,8.66,0,0,1,.63-3.69,9.17,9.17,0,0,1,.82-1.58"/><path class="cls-2" d="M20.31,76.35,20.07,76,34,62.09l.33.23a11.72,11.72,0,0,1,1.3,1.06l.35.32-.31.36a11.94,11.94,0,0,0-1.07,1.39,2.94,2.94,0,0,0-.55,2,4.88,4.88,0,0,0,1.07,2.28A34,34,0,0,0,38.07,73l.66.66-.69.69-.66-.66a37.24,37.24,0,0,1-3-3.34,5.89,5.89,0,0,1-1.27-2.75,3.93,3.93,0,0,1,.7-2.72,13.54,13.54,0,0,1,.84-1.13l-.52-.42L21.35,76.13l-2.63,2.79V77.49L20.08,76"/><path class="cls-2" d="M22.54,78.86h0l1.28-1.27a17.88,17.88,0,0,1,2.72-2.32,3,3,0,0,1,2-.57,4.61,4.61,0,0,1,2.23,1,35,35,0,0,1,3.1,2.79l.34.34.48-.47L34.38,78l.2-.21A32.84,32.84,0,0,0,31.39,75a5.47,5.47,0,0,0-2.71-1.23,4,4,0,0,0-2.68.73,18.69,18.69,0,0,0-2.87,2.44l-.59.58a34.89,34.89,0,0,0-2.46,2.85c-.74,1,1.26-.11,1.26-.11l1.19-1.36"/><path class="cls-2" d="M18.35,78.49a20.76,20.76,0,0,1-2.77-4,15.39,15.39,0,0,1-1.67-5.54,11.61,11.61,0,0,1,.65-5.14,12,12,0,0,1,2.79-4.3,11.51,11.51,0,0,1,7.14-3.36,14,14,0,0,1,6.88,1.06,14,14,0,0,1-1.06-6.89,11.56,11.56,0,0,1,3.36-7.14A12,12,0,0,1,38,40.37a11.61,11.61,0,0,1,5.14-.65,15,15,0,0,1,5.54,1.67,20.76,20.76,0,0,1,4,2.77l.43.37-.43.37c-.5.43-1,.89-1.47,1.36l-.89.89L50,46.92A8.32,8.32,0,0,0,48.28,46,7.71,7.71,0,0,0,45,45.41a8.2,8.2,0,0,0-3.16.88,11.17,11.17,0,0,0-2.92,2.12,11.49,11.49,0,0,0-2.15,3,8.4,8.4,0,0,0-.93,3.22,7.65,7.65,0,0,0,.55,3.31,8.19,8.19,0,0,0,.93,1.7l-.8.56a9.47,9.47,0,0,1-1-1.91,8.49,8.49,0,0,1-.61-3.73,9.27,9.27,0,0,1,1-3.59,12.61,12.61,0,0,1,2.33-3.2,12.21,12.21,0,0,1,3.17-2.3,9.09,9.09,0,0,1,3.55-1,8.71,8.71,0,0,1,3.7.63,9.09,9.09,0,0,1,1.57.82l.31-.32c.36-.35.72-.7,1.1-1a19.6,19.6,0,0,0-3.41-2.27A14.14,14.14,0,0,0,43,40.69a10.73,10.73,0,0,0-4.71.59,11,11,0,0,0-4,2.57,10.55,10.55,0,0,0-3.08,6.55A13.31,13.31,0,0,0,32.81,58l.69,1.35-1.35-.7a13.4,13.4,0,0,0-7.56-1.52A10.55,10.55,0,0,0,18,60.17a10.85,10.85,0,0,0-2.56,4,10.57,10.57,0,0,0-.6,4.71A14.22,14.22,0,0,0,16.45,74a19.61,19.61,0,0,0,2.64,3.85Z"/><path class="cls-2" d="M20.31,76.35a9.49,9.49,0,0,1-1-1.91,8.66,8.66,0,0,1-.63-3.69,9.2,9.2,0,0,1,1-3.55A12.25,12.25,0,0,1,21.91,64a12.61,12.61,0,0,1,3.2-2.33,9.37,9.37,0,0,1,3.59-1,8.47,8.47,0,0,1,3.73.61,9.21,9.21,0,0,1,1.91,1l-.56.8a8.28,8.28,0,0,0-1.71-.94,7.72,7.72,0,0,0-3.3-.54,8.4,8.4,0,0,0-3.22.93,11.49,11.49,0,0,0-2.95,2.15,11.1,11.1,0,0,0-2.12,2.92,8.15,8.15,0,0,0-.88,3.17,7.74,7.74,0,0,0,.57,3.28,8.32,8.32,0,0,0,.94,1.71Z"/><path class="cls-2" d="M42.53,78.86,37.7,74l3.62-3.62L35.4,64.48l-.26-.24L35,64.09l.66-.71.15.13.3.29,6.61,6.61L39.08,74l3.45,3.45L52,68l.69.69Z"/><path class="cls-2" d="M44.6,68.51,38,61.9l-.29-.31-.13-.14.72-.66.13.15.25.27,5.93,5.92,3.28-3.28.69.69Z"/><path class="cls-2" d="M56.85,64.54l-.69-.69.66-.66a37.6,37.6,0,0,1,3.34-3,5.91,5.91,0,0,1,2.75-1.26,4,4,0,0,1,2.72.69c.34.23.71.51,1.13.85.15-.18.3-.35.42-.52L54.41,47.15a13.28,13.28,0,0,0-1.28,1.13l-.07.07.58.59a18.84,18.84,0,0,1,2.45,2.87,4,4,0,0,1,.72,2.68,5.58,5.58,0,0,1-1.22,2.71,34.4,34.4,0,0,1-2.88,3.19l-.21-.2-.35.34-.47-.48.34-.34a33.42,33.42,0,0,0,2.79-3.1,4.61,4.61,0,0,0,1-2.23,3,3,0,0,0-.57-2A17.88,17.88,0,0,0,53,49.62l-1.27-1.27.76-.76a12.93,12.93,0,0,1,1.74-1.47l.34-.24L68.46,59.82l-.24.33a11.94,11.94,0,0,1-1.06,1.3l-.32.35-.36-.31a12.16,12.16,0,0,0-1.38-1.08A3,3,0,0,0,63,59.87a4.92,4.92,0,0,0-2.28,1.07,34,34,0,0,0-3.25,2.94Z"/><path class="cls-2" d="M59.35,111.93a8.84,8.84,0,0,1-3.25-.65,9.6,9.6,0,0,1-1.92-1l.56-.8a8.58,8.58,0,0,0,1.71.94,7.76,7.76,0,0,0,3.29.57,8.15,8.15,0,0,0,3.16-.88,11,11,0,0,0,2.93-2.12A11.8,11.8,0,0,0,68,105a8.51,8.51,0,0,0,.92-3.22,7.59,7.59,0,0,0-.54-3.3,8.54,8.54,0,0,0-.94-1.71l-.23-.34L70.61,93l.34.23a8.28,8.28,0,0,0,1.71.94,7.72,7.72,0,0,0,3.3.54,8.51,8.51,0,0,0,3.22-.92,11.43,11.43,0,0,0,2.95-2.16,11,11,0,0,0,2.13-2.92,8.14,8.14,0,0,0,.87-3.17,7.72,7.72,0,0,0-.57-3.28,8.25,8.25,0,0,0-.93-1.71l.8-.56a9.54,9.54,0,0,1,1,1.92,8.64,8.64,0,0,1,.63,3.69,9.2,9.2,0,0,1-1,3.55,12.15,12.15,0,0,1-2.31,3.17,12.61,12.61,0,0,1-3.2,2.33,9.27,9.27,0,0,1-3.59,1,8.49,8.49,0,0,1-3.73-.61,9.77,9.77,0,0,1-1.57-.81l-2.28,2.28a8.88,8.88,0,0,1,1.42,5.3,9.27,9.27,0,0,1-1,3.59,12.69,12.69,0,0,1-5.5,5.51,9.15,9.15,0,0,1-3.54,1l-.45,0"/><path class="cls-2" d="M62.75,116.69c-.37,0-.74,0-1.13,0A15.17,15.17,0,0,1,56.09,115a20.52,20.52,0,0,1-4-2.77l.63-.73a19.54,19.54,0,0,0,3.85,2.63,14.09,14.09,0,0,0,5.18,1.57,10.59,10.59,0,0,0,4.71-.6,10.77,10.77,0,0,0,4-2.56A10.47,10.47,0,0,0,73.45,106a13.42,13.42,0,0,0-1.52-7.57L71.23,97l1.35.7a13.42,13.42,0,0,0,7.57,1.52,10.55,10.55,0,0,0,6.55-3.08,11.2,11.2,0,0,0,2.56-4,10.87,10.87,0,0,0,.6-4.71,14.36,14.36,0,0,0-1.58-5.19,19.78,19.78,0,0,0-2.63-3.84l.74-.63a20.26,20.26,0,0,1,2.76,4,15.36,15.36,0,0,1,1.68,5.54,11.61,11.61,0,0,1-.66,5.14,11.86,11.86,0,0,1-2.79,4.3,11.51,11.51,0,0,1-7.13,3.36,14,14,0,0,1-6.89-1.06,14,14,0,0,1,1.06,6.88,11.54,11.54,0,0,1-3.36,7.15,11.88,11.88,0,0,1-4.3,2.78,11.44,11.44,0,0,1-4,.71"/><path class="cls-2" d="M34,94.27,20.36,80.62l.69-.69L34.11,93l.52-.42c-.34-.41-.62-.79-.85-1.13a4,4,0,0,1-.69-2.72A5.86,5.86,0,0,1,34.36,86a36,36,0,0,1,3-3.35l.32-.31-3.46-3.46a30.89,30.89,0,0,1-2.85,2.53,5.47,5.47,0,0,1-2.71,1.23A4,4,0,0,1,26,81.89a19.08,19.08,0,0,1-2.87-2.44l-.93-.93.69-.69.93.93a18.38,18.38,0,0,0,2.71,2.32,3,3,0,0,0,2,.57,4.61,4.61,0,0,0,2.23-1,33.42,33.42,0,0,0,3.1-2.79l.34-.34.48.48,4.36,4.35-1,1a37,37,0,0,0-2.94,3.25,4.92,4.92,0,0,0-1.07,2.28,3,3,0,0,0,.54,2.05,15,15,0,0,0,1.08,1.39l.31.36-.35.32A11.94,11.94,0,0,1,34.34,94Z"/><path class="cls-2" d="M52,108.34l-.93-.93a18.14,18.14,0,0,1-2.44-2.87,4,4,0,0,1-.73-2.68,5.54,5.54,0,0,1,1.23-2.72A35.31,35.31,0,0,1,52,96l.21.21.35-.35.47.48-.34.34a34.77,34.77,0,0,0-2.79,3.1,4.61,4.61,0,0,0-1,2.23,3,3,0,0,0,.57,2,18.9,18.9,0,0,0,2.32,2.72l.93.92Z"/><path class="cls-2" d="M49.92,110.18,36.28,96.53l.23-.33a13,13,0,0,1,1.06-1.3l.32-.35.36.31a12.16,12.16,0,0,0,1.39,1.08,2.93,2.93,0,0,0,2,.54A4.74,4.74,0,0,0,44,95.41a34,34,0,0,0,3.25-2.94l.66-.66.69.69-.66.66a36.25,36.25,0,0,1-3.34,3,5.87,5.87,0,0,1-2.75,1.26,3.94,3.94,0,0,1-2.71-.69A12.82,12.82,0,0,1,38,95.91c-.16.18-.3.35-.43.52l13.06,13.06Z"/><path class="cls-2" d="M70.49,78.86,65.66,74l1-1a33,33,0,0,0,2.94-3.25,4.88,4.88,0,0,0,1.07-2.28,2.93,2.93,0,0,0-.54-2,12.16,12.16,0,0,0-1.08-1.39l-.31-.36.35-.32a12.72,12.72,0,0,1,1.3-1.06l.34-.23L84.37,75.73l-.69.69L70.62,63.36c-.16.13-.34.27-.52.43A12.82,12.82,0,0,1,71,64.92a3.94,3.94,0,0,1,.69,2.71,5.87,5.87,0,0,1-1.26,2.75,36.56,36.56,0,0,1-3,3.34L67,74l3.45,3.46A32.46,32.46,0,0,1,73.34,75a5.5,5.5,0,0,1,2.72-1.23,4,4,0,0,1,2.67.73,18.6,18.6,0,0,1,2.88,2.44l.92.93-.68.69-.93-.93a18.38,18.38,0,0,0-2.72-2.32,3.08,3.08,0,0,0-2-.57,4.61,4.61,0,0,0-2.23,1,33.52,33.52,0,0,0-3.09,2.79Z"/><path class="cls-2" d="M66.76,95.91l-.45-.5-.25-.27-5.92-5.92L56.85,92.5l-.69-.69,4-4,6.61,6.61.09.1c.32-.29.64-.6,1-.93s.64-.65.92-1l-.09-.09L62,85.94l3.63-3.62-3.45-3.46-9.5,9.5L52,87.67,62.21,77.48,67,82.32l-3.63,3.62,5.92,5.93.27.24.5.47-.31.36c-.39.44-.82.9-1.29,1.37s-.92.89-1.38,1.29Z"/><path class="cls-2" d="M344.39,94.88H110.85a.55.55,0,1,1,0-1.1H344.39a.55.55,0,1,1,0,1.1Z"/></svg>