<svg xmlns="http://www.w3.org/2000/svg" viewBox="0 0 846.69 341.13"><defs><style>.cls-1{fill:#222;}</style></defs><title>logo-solii-full</title><g id="Layer_2" data-name="Layer 2"><g id="Layer_1-2" data-name="Layer 1"><path class="cls-1" d="M225.86,341.11a4.5,4.5,0,0,1-3.19-7.68L314.3,241.8a4.5,4.5,0,0,1,6.37,6.36L229,339.79A4.48,4.48,0,0,1,225.86,341.11Z"/><path class="cls-1" d="M4.5,250.41a4.49,4.49,0,0,1-4.5-4.5V245a4.5,4.5,0,0,1,7.75-3.12l0,0A4.5,4.5,0,0,1,9,245c0,.17,0,.34,0,.5s0,.25,0,.37A4.49,4.49,0,0,1,4.5,250.41Z"/><path class="cls-1" d="M4.5,119.79a4.42,4.42,0,0,1-1.71-.34A4.51,4.51,0,0,1,0,115.3v-1a4.5,4.5,0,0,1,9,0c0,.12,0,.24,0,.37s0,.33,0,.49a4.52,4.52,0,0,1-1.31,3.25A4.58,4.58,0,0,1,4.5,119.79Z"/><path class="cls-1" d="M95.88,341.13H4.5a4.49,4.49,0,0,1-4.5-4.5v-92.2a4.5,4.5,0,0,1,9,0v87.7H95.88a4.5,4.5,0,0,1,0,9Z"/><path class="cls-1" d="M96.15,28.15h-.07l-.48,0h-.38a4.5,4.5,0,0,1,0-9h1a4.5,4.5,0,0,1,3.18,7.69l0,0A4.54,4.54,0,0,1,96.15,28.15Z"/><path class="cls-1" d="M225.86,28.15a4.52,4.52,0,0,1,0-9h1a4.5,4.5,0,0,1,0,9h-.39l-.47,0Z"/><path class="cls-1" d="M4.5,120.63a4.49,4.49,0,0,1-4.5-4.5V23.62a4.5,4.5,0,0,1,4.5-4.5H97.56a4.5,4.5,0,0,1,0,9H9v88A4.49,4.49,0,0,1,4.5,120.63Z"/><path class="cls-1" d="M96.18,341.13h-1a4.5,4.5,0,0,1,0-9h.88a4.51,4.51,0,1,1,.08,9Z"/><path class="cls-1" d="M317.51,119.8a4.51,4.51,0,0,1-3.15-1.28l0,0a4.49,4.49,0,0,1-1.35-3.28v-.49c0-.12,0-.25,0-.37a4.5,4.5,0,0,1,9,0v1a4.51,4.51,0,0,1-2.76,4.15A4.4,4.4,0,0,1,317.51,119.8Z"/><path class="cls-1" d="M317.51,341.13H226a4.5,4.5,0,0,1,0-9h87V245.06a4.5,4.5,0,1,1,9,0v91.57A4.49,4.49,0,0,1,317.51,341.13Z"/><path class="cls-1" d="M317.51,119.74a4.49,4.49,0,0,1-4.5-4.5V28.12H222.56a4.5,4.5,0,0,1,0-9h94.95a4.5,4.5,0,0,1,4.5,4.5v91.62A4.49,4.49,0,0,1,317.51,119.74Z"/><path class="cls-1" d="M317.51,250.41a4.49,4.49,0,0,1-4.5-4.5c0-.12,0-.25,0-.37v-.49a4.51,4.51,0,1,1,9-.09v.95A4.49,4.49,0,0,1,317.51,250.41Z"/><path class="cls-1" d="M226.79,341.13h-1a4.5,4.5,0,0,1-3.12-7.74l0,0a4.49,4.49,0,0,1,3.17-1.25h.88a4.5,4.5,0,0,1,0,9Z"/><path class="cls-1" d="M317.49,249.46A4.48,4.48,0,0,1,313,245a61.52,61.52,0,0,0-61.26-60.41,4.5,4.5,0,0,1,0-9A61.52,61.52,0,0,0,313,115.21a4.5,4.5,0,1,1,9,.4,70.65,70.65,0,0,1-45.62,64.52A70.65,70.65,0,0,1,322,244.49a4.43,4.43,0,0,1-1.26,3.61A4.49,4.49,0,0,1,317.49,249.46Z"/><path class="cls-1" d="M161,93.91a4.51,4.51,0,0,1-4.5-4.5A61.52,61.52,0,0,0,96.09,28.15a4.51,4.51,0,1,1,.39-9A70.64,70.64,0,0,1,161,64.77a70.65,70.65,0,0,1,64.37-45.61A4.4,4.4,0,0,1,229,20.38a4.51,4.51,0,0,1-3,7.77A61.53,61.53,0,0,0,165.5,89.41,4.5,4.5,0,0,1,161,93.91Z"/><path class="cls-1" d="M96.16,341.13A4.47,4.47,0,0,1,93,339.82a4.51,4.51,0,0,1,3.09-7.71,61.52,61.52,0,0,0,60.41-61.26,4.5,4.5,0,0,1,9,0,61.53,61.53,0,0,0,60.42,61.26,4.51,4.51,0,1,1-.39,9A70.66,70.66,0,0,1,161,295.48,70.62,70.62,0,0,1,96.64,341.1Z"/><path class="cls-1" d="M4.52,249.48a4.48,4.48,0,0,1-3.24-1.38A4.53,4.53,0,0,1,0,244.66a70.64,70.64,0,0,1,45.62-64.53A70.65,70.65,0,0,1,0,115.76a4.45,4.45,0,0,1,1.29-3.64A4.51,4.51,0,0,1,9,115.21a61.53,61.53,0,0,0,61.26,60.42,4.5,4.5,0,0,1,0,9A61.53,61.53,0,0,0,9,245a4.49,4.49,0,0,1-4.5,4.44Z"/><path class="cls-1" d="M161,250.41a4.5,4.5,0,0,1-4.5-4.5,61.35,61.35,0,0,0-61.28-61.28,4.5,4.5,0,0,1,0-9,61.35,61.35,0,0,0,61.28-61.28,4.5,4.5,0,0,1,9,0,61.36,61.36,0,0,0,61.29,61.28,4.5,4.5,0,0,1,0,9,61.36,61.36,0,0,0-61.29,61.28A4.49,4.49,0,0,1,161,250.41Zm-41-70.28a70.64,70.64,0,0,1,41,41,70.68,70.68,0,0,1,41-41,70.71,70.71,0,0,1-41-41A70.67,70.67,0,0,1,120,180.13Z"/><path class="cls-1" d="M4.52,119.78a4.5,4.5,0,0,1-3.18-7.68L93,20.47a4.5,4.5,0,0,1,6.37,6.36L7.71,118.46A4.49,4.49,0,0,1,4.52,119.78Z"/><path class="cls-1" d="M89.82,184.63H70.28A70.56,70.56,0,0,1,0,115.34a4.53,4.53,0,0,1,1.32-3.24L93,20.47a4.62,4.62,0,0,1,3.25-1.32A70.56,70.56,0,0,1,165.5,89.41V109a4.5,4.5,0,0,1-4.5,4.5,66.76,66.76,0,0,0-66.68,66.68A4.5,4.5,0,0,1,89.82,184.63ZM9.08,117.09a61.53,61.53,0,0,0,61.2,58.54H85.46a75.78,75.78,0,0,1,71-71V89.41A61.54,61.54,0,0,0,98,28.2Z"/><path class="cls-1" d="M95.22,184.63h-5.4a4.51,4.51,0,0,1-4.5-4.5A75.77,75.77,0,0,1,161,104.45a4.49,4.49,0,0,1,4.5,4.5v5.4A70.36,70.36,0,0,1,95.22,184.63Zm-.74-9h.74a61.35,61.35,0,0,0,61.28-61.28v-.75A66.78,66.78,0,0,0,94.48,175.63Z"/><path class="cls-1" d="M317.49,119.78a4.49,4.49,0,0,1-3.19-1.32L222.67,26.83A4.5,4.5,0,0,1,229,20.47l91.63,91.63a4.5,4.5,0,0,1-3.18,7.68Z"/><path class="cls-1" d="M251.73,184.63H232.18a4.51,4.51,0,0,1-4.5-4.5A66.75,66.75,0,0,0,161,113.45a4.51,4.51,0,0,1-4.5-4.5V89.41a70.57,70.57,0,0,1,69.29-70.26A4.55,4.55,0,0,1,229,20.47l91.63,91.63a4.53,4.53,0,0,1,1.32,3.24A70.56,70.56,0,0,1,251.73,184.63Zm-15.18-9h15.18a61.53,61.53,0,0,0,61.2-58.54L224.05,28.2A61.55,61.55,0,0,0,165.5,89.41v15.17A75.79,75.79,0,0,1,236.55,175.63Z"/><path class="cls-1" d="M232.18,184.63h-5.39a70.36,70.36,0,0,1-70.29-70.28V109a4.5,4.5,0,0,1,4.5-4.5,75.77,75.77,0,0,1,75.68,75.68A4.5,4.5,0,0,1,232.18,184.63Zm-66.68-71v.75a61.36,61.36,0,0,0,61.29,61.28h.74A66.78,66.78,0,0,0,165.5,113.6Z"/><path class="cls-1" d="M96.15,341.11A4.48,4.48,0,0,1,93,339.79L1.34,248.16a4.5,4.5,0,0,1,6.37-6.36l91.63,91.63a4.5,4.5,0,0,1-3.19,7.68Z"/><path class="cls-1" d="M96.15,341.11A4.49,4.49,0,0,1,93,339.79L1.34,248.16A4.53,4.53,0,0,1,0,244.92a70.56,70.56,0,0,1,70.26-69.29H89.82a4.49,4.49,0,0,1,4.5,4.5A66.76,66.76,0,0,0,161,246.81a4.49,4.49,0,0,1,4.5,4.5v19.54a70.56,70.56,0,0,1-69.28,70.26ZM9.08,243.17,98,332.06a61.55,61.55,0,0,0,58.54-61.21V255.68a75.79,75.79,0,0,1-71-71.05H70.28A61.53,61.53,0,0,0,9.08,243.17Z"/><path class="cls-1" d="M161,255.81a75.77,75.77,0,0,1-75.68-75.68,4.5,4.5,0,0,1,4.5-4.5h5.4a70.36,70.36,0,0,1,70.28,70.28v5.4A4.5,4.5,0,0,1,161,255.81ZM94.48,184.63a66.78,66.78,0,0,0,62,62v-.75a61.35,61.35,0,0,0-61.28-61.28Z"/><path class="cls-1" d="M225.86,341.11h-.07a70.57,70.57,0,0,1-69.29-70.26V251.31a4.5,4.5,0,0,1,4.5-4.5,66.75,66.75,0,0,0,66.68-66.68,4.5,4.5,0,0,1,4.5-4.5h19.55A70.56,70.56,0,0,1,322,244.92a4.53,4.53,0,0,1-1.32,3.24L229,339.79A4.49,4.49,0,0,1,225.86,341.11ZM165.5,255.68v15.17a61.55,61.55,0,0,0,58.55,61.21l88.88-88.89a61.53,61.53,0,0,0-61.2-58.54H236.55A75.8,75.8,0,0,1,165.5,255.68Z"/><path class="cls-1" d="M80.4,266.85A4,4,0,0,1,77.57,260L95.1,242.49a4,4,0,1,1,5.66,5.66L83.23,265.68A4,4,0,0,1,80.4,266.85Z"/><path class="cls-1" d="M225.65,121.1a4,4,0,0,1-2.83-6.83l17.53-17.53A4,4,0,1,1,246,102.4l-17.53,17.53A4,4,0,0,1,225.65,121.1Z"/><path class="cls-1" d="M243.18,266.85a4,4,0,0,1-2.83-1.17l-17.53-17.53a4,4,0,1,1,5.66-5.66L246,260a4,4,0,0,1-2.83,6.83Z"/><path class="cls-1" d="M97.93,121.1a4,4,0,0,1-2.83-1.17L77.57,102.4a4,4,0,0,1,5.66-5.66l17.53,17.53a4,4,0,0,1-2.83,6.83Z"/><path class="cls-1" d="M462.74,74.09c-6.51-8.44-13.27-12.3-29.93-12.3-14.23,0-23.41,5.55-23.41,16.17,0,13.75,12.07,17.86,28,19.06,22.69,1.69,43.44,8.21,43.44,36,0,21-14.24,35.48-45.37,35.48-24.62,0-37.41-7.48-46.58-20l14.24-10.14c6.52,8.69,15.2,12.31,32.58,12.31,16.17,0,25.83-6.27,25.83-17.13,0-13-7.73-17.62-31.14-19.31-20.27-1.45-40.3-9.66-40.3-36,0-20,14.48-34.27,43.2-34.27,19.55,0,34.51,5.06,43.92,20Z"/><path class="cls-1" d="M601.76,113.92c0,31.37-15.45,54.54-50.2,54.54-32.1,0-50.2-21.24-50.2-54.54V98c0-34.27,18.58-54.06,50.2-54.06,31.85,0,50.2,19.54,50.2,54.06Zm-19.31,0V98c0-22.93-11.1-36.69-30.89-36.69s-30.9,14-30.9,36.69v15.93c0,20.75,8.69,37.16,30.9,37.16C572.07,151.08,582.45,134.43,582.45,113.92Z"/><path class="cls-1" d="M627.1,0h19.3V124.54c0,13,.73,24.13,20.52,24.13v17.86c-30.41,0-39.82-12.07-39.82-37.17Z"/><path class="cls-1" d="M695.64,0h21.72V21.72H695.64Zm1.2,45.86h19.31V166.53H696.84Z"/><path class="cls-1" d="M753.56,0h21.72V21.72H753.56Zm1.21,45.86h19.3V166.53h-19.3Z"/><path class="cls-1" d="M387.84,266.21l11.82-34h5.42l11.82,34h-6.06l-2.32-7H396.26l-2.31,7Zm10-12h9.06l-4.53-13.74Z"/><path class="cls-1" d="M442.12,266.21l-6.56-13.79H429v13.79h-5.71v-34h11.58c7.83,0,12.51,3.4,12.51,10.14,0,4.68-2.22,7.69-6.16,9.12l7.24,14.72Zm-7.69-18.71c4.83,0,7.19-1.29,7.19-5.13s-2.36-5.17-7.19-5.17H429v10.3Z"/><path class="cls-1" d="M477.19,232.23v5h-9.76v29h-5.71v-29h-9.8v-5Z"/><path class="cls-1" d="M489.94,266.21h-5.71v-34h5.71Z"/><path class="cls-1" d="M518,240.45c-1.68-2.31-3.5-3.69-7.34-3.69-3.5,0-5.57,1.57-5.57,4.43,0,3.25,2.56,4.53,7.29,5.57,6.85,1.47,10.39,4,10.39,10.14,0,5.08-3.39,9.76-11.57,9.76-5.81,0-9.9-1.78-12.71-5.57L503,258a9.11,9.11,0,0,0,7.93,3.69c4.68,0,6.16-2.07,6.16-4.53,0-2.71-1.53-4.38-7.44-5.66-6.55-1.38-10.24-4.54-10.24-10.3,0-5.12,3.35-9.41,11.33-9.41,5.42,0,9.21,1.83,11.62,5.57Z"/><path class="cls-1" d="M527.13,266.21l11.82-34h5.42l11.82,34h-6.06l-2.31-7H535.55l-2.31,7Zm10-12h9.06l-4.53-13.74Z"/><path class="cls-1" d="M587,232.23v34H581.9l-13.84-23.1v23.1h-5.52v-34h4.93l14,23.39V232.23Z"/><path class="cls-1" d="M593.28,266.21l11.82-34h5.42l11.82,34h-6.06l-2.32-7H601.7l-2.31,7Zm10-12h9.06l-4.53-13.74Z"/><path class="cls-1" d="M634.4,261.29h15.13v4.92H628.69v-34h5.71Z"/><path class="cls-1" d="M401.68,330.21h-5.52l-8-34h6.11l5.22,24.28,7-24.28h5.27l7.09,24.43L424,296.23h6.11l-8,34H416.5l-7.43-24.72Z"/><path class="cls-1" d="M442.9,330.21h-5.71v-34h5.71Z"/><path class="cls-1" d="M477.73,296.23v34h-5.08l-13.84-23.1v23.1H453.3v-34h4.92l14,23.39V296.23Z"/><path class="cls-1" d="M487.68,330.21v-34h11.47c7.64,0,12.76,4.08,12.76,15v4c0,10.89-5.12,15-12.76,15Zm18.52-15v-4c0-7-2.17-10-7.05-10h-5.76v24.09h5.76C504,325.29,506.2,322.23,506.2,315.24Z"/><path class="cls-1" d="M531.81,330.66c-7.59,0-12.71-4.58-12.71-15.27v-4.34c0-10.69,5.12-15.27,12.71-15.27s12.76,4.58,12.76,15.27v4.34C544.57,326.08,539.44,330.66,531.81,330.66Zm-7-15.27c0,7.34,2.47,10.29,7,10.29s7-2.95,7-10.29v-4.34c0-7.34-2.51-10.29-7-10.29s-7,2.95-7,10.29Z"/><path class="cls-1" d="M563.33,330.21h-5.52l-8-34h6.1l5.22,24.28,6.95-24.28h5.27l7.09,24.43,5.22-24.43h6.11l-8,34h-5.56l-7.44-24.72Z"/><path class="cls-1" d="M616,304.45c-1.67-2.31-3.49-3.69-7.34-3.69-3.49,0-5.56,1.57-5.56,4.43,0,3.25,2.56,4.53,7.29,5.57,6.85,1.47,10.39,4,10.39,10.14,0,5.08-3.4,9.76-11.57,9.76-5.82,0-9.9-1.78-12.71-5.57L601,322a9.11,9.11,0,0,0,7.93,3.69c4.68,0,6.16-2.07,6.16-4.53,0-2.71-1.53-4.38-7.44-5.66-6.55-1.38-10.24-4.54-10.24-10.3,0-5.12,3.34-9.41,11.32-9.41,5.42,0,9.22,1.83,11.63,5.57Z"/><path class="cls-1" d="M647.8,311.2c-2-2.41-3.35-4.78-3.35-7.68,0-4.68,3.75-7.74,8.92-7.74,6.16,0,8.77,3.4,8.77,6.75,0,3.79-3.6,6.4-7.19,9l7.58,8.38a14.4,14.4,0,0,0,1-5.57h5.32a18.18,18.18,0,0,1-2.65,9.66l5.66,6.2H665l-2.26-2.46a15.38,15.38,0,0,1-9.46,2.91c-7.49,0-11.33-4.68-11.33-9.51C642,316.62,644.7,313.61,647.8,311.2ZM659.33,324l-8.47-9.36c-2,1.72-3.35,3.59-3.35,5.91,0,3.15,2.41,5.12,6,5.12A10.23,10.23,0,0,0,659.33,324Zm-7.24-15.76c2.56-1.73,4.68-3.35,4.68-5.37,0-1.28-1.09-2.71-3.35-2.71a3.12,3.12,0,0,0-3.4,3.35A8.31,8.31,0,0,0,652.09,308.25Z"/><path class="cls-1" d="M693.56,330.21v-34H705c7.63,0,12.75,4.08,12.75,15v4c0,10.89-5.12,15-12.75,15Zm18.52-15v-4c0-7-2.17-10-7-10h-5.77v24.09H705C709.91,325.29,712.08,322.23,712.08,315.24Z"/><path class="cls-1" d="M737.69,330.66c-7.58,0-12.7-4.58-12.7-15.27v-4.34c0-10.69,5.12-15.27,12.7-15.27s12.76,4.58,12.76,15.27v4.34C750.45,326.08,745.33,330.66,737.69,330.66Zm-7-15.27c0,7.34,2.46,10.29,7,10.29s7-2.95,7-10.29v-4.34c0-7.34-2.52-10.29-7-10.29s-7,2.95-7,10.29Z"/><path class="cls-1" d="M770.35,330.66c-7.59,0-12.71-4.58-12.71-15.27v-4.34c0-10.69,5.12-15.27,12.71-15.27s12.76,4.58,12.76,15.27v4.34C783.11,326.08,778,330.66,770.35,330.66Zm-7-15.27c0,7.34,2.47,10.29,7,10.29s7-2.95,7-10.29v-4.34c0-7.34-2.51-10.29-7-10.29s-7,2.95-7,10.29Z"/><path class="cls-1" d="M810.54,330.21,804,316.42h-6.6v13.79h-5.71v-34h11.57c7.83,0,12.51,3.4,12.51,10.14,0,4.68-2.22,7.69-6.16,9.12l7.25,14.72Zm-7.68-18.71c4.82,0,7.19-1.29,7.19-5.13s-2.37-5.17-7.19-5.17h-5.47v10.3Z"/><path class="cls-1" d="M841.92,304.45c-1.68-2.31-3.5-3.69-7.34-3.69-3.5,0-5.57,1.57-5.57,4.43,0,3.25,2.56,4.53,7.29,5.57,6.85,1.47,10.39,4,10.39,10.14,0,5.08-3.4,9.76-11.57,9.76-5.81,0-9.9-1.78-12.71-5.57l4.48-3.1a9.11,9.11,0,0,0,7.93,3.69c4.68,0,6.16-2.07,6.16-4.53,0-2.71-1.53-4.38-7.44-5.66-6.55-1.38-10.24-4.54-10.24-10.3,0-5.12,3.35-9.41,11.33-9.41,5.41,0,9.21,1.83,11.62,5.57Z"/></g></g></svg>